<svg width="340" height="108" fill="none" xmlns="http://www.w3.org/2000/svg"><g clip-path="url(#clip0_2_56)"><path d="M154.521 16.609h7.08v13.433c-1.82 1.355-3.92 2.394-6.31 3.126a24.87 24.87 0 01-7.22 1.088c-3.479 0-6.599-.732-9.369-2.196-2.77-1.464-4.95-3.502-6.53-6.104-1.58-2.601-2.37-5.539-2.37-8.823 0-3.284.79-6.222 2.37-8.824 1.58-2.601 3.77-4.639 6.58-6.103C141.562.742 144.711.01 148.221.01c2.93 0 5.6.495 7.99 1.464 2.39.98 4.4 2.394 6.029 4.254l-4.969 4.54c-2.39-2.493-5.28-3.74-8.66-3.74-2.14 0-4.03.446-5.689 1.326a9.471 9.471 0 00-3.87 3.74c-.93 1.612-1.39 3.452-1.39 5.539 0 2.087.46 3.878 1.39 5.49.92 1.612 2.21 2.859 3.85 3.759 1.64.9 3.509 1.345 5.619 1.345 2.23 0 4.24-.475 6.03-1.414v-9.694l-.03-.01zM169.68.564h7.75V27.44h16.789v6.242H169.69V.564h-.01zm36.028 31.466c-2.79-1.484-4.97-3.521-6.55-6.123-1.58-2.602-2.37-5.53-2.37-8.774 0-3.245.79-6.173 2.37-8.774 1.58-2.602 3.76-4.64 6.55-6.123 2.79-1.484 5.92-2.226 9.399-2.226 3.48 0 6.6.742 9.37 2.226 2.77 1.483 4.96 3.521 6.549 6.123 1.59 2.601 2.39 5.53 2.39 8.774 0 3.245-.8 6.172-2.39 8.774-1.589 2.602-3.779 4.65-6.549 6.123-2.77 1.484-5.9 2.226-9.37 2.226-3.469 0-6.609-.742-9.399-2.226zm14.749-5.658a9.73 9.73 0 003.75-3.759c.91-1.612 1.36-3.432 1.36-5.49 0-2.058-.45-3.878-1.36-5.49a9.73 9.73 0 00-3.75-3.759c-1.59-.9-3.38-1.345-5.36-1.345-1.98 0-3.759.445-5.359 1.345a9.73 9.73 0 00-3.75 3.759c-.91 1.612-1.36 3.442-1.36 5.49s.45 3.878 1.36 5.49a9.731 9.731 0 003.75 3.759c1.59.9 3.379 1.345 5.359 1.345s3.76-.445 5.36-1.345zm48.787-6.905c1.08 1.405 1.63 3.126 1.63 5.184 0 2.898-1.14 5.134-3.42 6.696-2.28 1.563-5.599 2.345-9.969 2.345h-17.309V.564h16.359c4.08 0 7.21.771 9.399 2.314 2.18 1.544 3.28 3.64 3.28 6.292 0 1.612-.39 3.046-1.17 4.303-.78 1.266-1.87 2.255-3.28 2.977 1.91.604 3.41 1.603 4.5 3.007l-.02.01zM247.865 6.341v7.804h7.7c1.91 0 3.36-.326 4.35-.989.99-.663 1.48-1.642 1.48-2.938 0-1.296-.5-2.265-1.48-2.908-.99-.643-2.44-.97-4.35-.97h-7.7zm13.65 20.575c1.04-.663 1.55-1.692 1.55-3.077 0-2.74-2.06-4.115-6.17-4.115h-9.04v8.181h9.04c2.04 0 3.58-.326 4.62-.99zm38.187-.326h-15.539l-2.97 7.092h-7.939L288.183.564h7.65l14.969 33.118h-8.13l-2.96-7.093h-.01zm-2.439-5.817l-5.31-12.682-5.31 12.682h10.62zM315.201.564h7.75V27.44h16.789v6.242h-24.529V.564h-.01z" fill="#fff"/><path d="M147.981 62.616h-11.979l-2.28 5.47h-6.12l11.5-25.521h5.899l11.54 25.521h-6.27l-2.28-5.47h-.01zm-1.88-4.481l-4.089-9.773-4.09 9.773h8.179zm29.559 9.951l-4.98-7.112h-5.49v7.112h-5.969V42.565h11.169c2.28 0 4.27.376 5.95 1.128 1.68.751 2.979 1.82 3.889 3.205.91 1.384 1.36 3.026 1.36 4.926 0 1.899-.46 3.531-1.38 4.906-.92 1.375-2.229 2.424-3.929 3.156l5.789 8.2h-6.409zm-1.51-19.566c-.93-.762-2.3-1.148-4.09-1.148h-4.87v8.893h4.87c1.79 0 3.16-.386 4.09-1.167.93-.782 1.4-1.87 1.4-3.284 0-1.415-.47-2.532-1.4-3.304v.01zm35.638 19.566l-.04-15.313-7.59 12.613h-2.69L191.909 53.1v14.986h-5.6V42.565h4.94l9.659 15.857 9.51-15.857h4.899l.07 25.521h-5.599zm31.698-4.738v4.738h-19.979V42.565h19.499v4.738h-13.559v5.54h11.979v4.59h-11.979v5.905h14.039v.01zm28.418-20.783v25.521h-4.9l-12.859-15.5v15.5h-5.899V42.565h4.939l12.829 15.5v-15.5h5.9-.01zm6.12 0h5.97v25.521h-5.97V42.565zm29.078 20.051h-11.979l-2.28 5.47h-6.12l11.5-25.521h5.899l11.54 25.521h-6.27l-2.28-5.47h-.01zm-1.88-4.481l-4.09-9.773-4.089 9.773h8.179zM340 42.565v25.521h-4.9l-12.859-15.5v15.5h-5.9V42.565h4.94l12.829 15.5v-15.5h5.9-.01z" fill="#FFD272"/><path d="M133.892 106.388c-2.02-.584-3.65-1.336-4.87-2.266l2.15-4.718c1.17.851 2.57 1.533 4.19 2.048 1.62.514 3.23.771 4.85.771 1.8 0 3.13-.267 3.99-.791.859-.524 1.289-1.237 1.289-2.107 0-.643-.25-1.177-.76-1.603-.509-.425-1.159-.771-1.959-1.028-.8-.258-1.87-.544-3.23-.851-2.09-.495-3.8-.98-5.13-1.474a8.312 8.312 0 01-3.42-2.364c-.95-1.088-1.43-2.532-1.43-4.333 0-1.573.43-2.997 1.29-4.273.86-1.276 2.16-2.295 3.89-3.037 1.73-.752 3.85-1.128 6.36-1.128 1.75 0 3.459.208 5.129.624 1.67.415 3.13 1.008 4.38 1.78l-1.96 4.758c-2.53-1.414-5.059-2.127-7.589-2.127-1.77 0-3.08.287-3.93.851-.85.564-1.27 1.316-1.27 2.245 0 .93.49 1.623 1.47 2.068.98.455 2.47.9 4.48 1.335 2.09.495 3.789.98 5.129 1.474a8.51 8.51 0 013.42 2.325c.95 1.058 1.43 2.493 1.43 4.293 0 1.553-.44 2.958-1.31 4.234-.87 1.276-2.18 2.295-3.93 3.037-1.75.751-3.869 1.117-6.379 1.117-2.17 0-4.26-.287-6.28-.87v.01zm26.129-2.345c-2.18-2.146-3.27-5.203-3.27-9.17V79.7h6.339v14.937c0 4.847 2.04 7.28 6.1 7.28 1.98 0 3.5-.583 4.54-1.76s1.56-3.017 1.56-5.52V79.699h6.259v15.174c0 3.977-1.09 7.034-3.269 9.17-2.18 2.147-5.22 3.215-9.14 3.215-3.92 0-6.96-1.068-9.139-3.215h.02zm53.566 2.75l-.04-16.252-8.059 13.393h-2.86l-8.019-13.047v15.906h-5.95V79.699h5.24l10.249 16.836L214.247 79.7h5.2l.08 27.094h-5.95.01zm38.208 0l-.04-16.252-8.059 13.393h-2.86l-8.02-13.047v15.906h-5.949V79.699h5.239l10.25 16.836L252.455 79.7h5.2l.08 27.094h-5.95.01zM265.084 79.7h6.34v27.093h-6.34V79.699zm19.349 5.113h-8.759V79.71h23.868v5.104h-8.769v21.99h-6.34v-21.99zm24.909-6.023c.71.682 1.06 1.582 1.06 2.69 0 .514-.07 1.028-.2 1.553-.13.514-.4 1.286-.82 2.324l-2.27 5.57h-3.87l1.68-6.114a3.448 3.448 0 01-1.53-1.276c-.37-.564-.55-1.256-.55-2.047 0-1.108.36-2.008 1.08-2.691.72-.683 1.62-1.029 2.72-1.029s1.99.347 2.7 1.029v-.01zm16.05 12.137v2.977h-12.07V91.54l6.16-5.757c.65-.614 1.1-1.148 1.32-1.593.23-.445.34-.88.34-1.316 0-.633-.22-1.117-.65-1.454-.43-.336-1.07-.504-1.9-.504-.7 0-1.33.129-1.89.395a3.68 3.68 0 00-1.41 1.188l-2.69-1.712c.62-.92 1.48-1.632 2.58-2.156 1.09-.515 2.35-.782 3.76-.782 1.19 0 2.22.188 3.11.574.89.386 1.58.93 2.08 1.622.49.703.74 1.524.74 2.473a5.38 5.38 0 01-.55 2.414c-.36.752-1.07 1.612-2.12 2.572l-3.67 3.432h6.87l-.01-.01zm14.299 0v2.977h-12.07V91.54l6.16-5.757c.65-.614 1.1-1.148 1.32-1.593.23-.445.34-.88.34-1.316 0-.633-.22-1.117-.65-1.454-.43-.336-1.07-.504-1.9-.504-.7 0-1.33.129-1.89.395a3.68 3.68 0 00-1.41 1.188l-2.69-1.712c.62-.92 1.48-1.632 2.58-2.156 1.09-.515 2.35-.782 3.76-.782 1.19 0 2.22.188 3.11.574.89.386 1.58.93 2.08 1.622.49.703.74 1.524.74 2.473a5.38 5.38 0 01-.55 2.414c-.36.752-1.07 1.612-2.12 2.572l-3.67 3.432h6.87l-.01-.01zM107.914 68.165l-11.59-11.464a3.68 3.68 0 010-5.253l11.59-11.465c.7-.692 1.1-1.642 1.1-2.621V3.868c0-2.048-1.68-3.71-3.75-3.71H71.406c-.99 0-1.95.396-2.65 1.088l-11.59 11.465a3.777 3.777 0 01-5.309 0L40.267 1.237a3.784 3.784 0 00-2.65-1.089H3.75C1.68.148 0 1.81 0 3.868v33.494c0 .989.4 1.929 1.1 2.621l11.59 11.465a3.68 3.68 0 010 5.253L1.1 68.165c-.7.693-1.1 1.642-1.1 2.622v33.494c0 2.047 1.68 3.709 3.75 3.709h33.858c.99 0 1.95-.396 2.65-1.088l11.589-11.465a3.777 3.777 0 015.31 0l11.589 11.465c.7.692 1.66 1.088 2.65 1.088h33.858c2.07 0 3.75-1.662 3.75-3.709V70.787c0-.99-.4-1.93-1.1-2.622h.01zM70.746 3.7a1.43 1.43 0 011.01-.416h32.658c.79 0 1.43.633 1.43 1.415v32.317a1.4 1.4 0 01-.42.999l-12.99 12.85c-.56.553-1.46.553-2.02 0a1.398 1.398 0 010-1.999l12.15-12.019a1.4 1.4 0 00.42-.999V7.528c0-.782-.64-1.415-1.43-1.415H72.936c-.38 0-.74.149-1.01.416L34.598 43.465c-.56.554-1.46.554-2.02 0a1.398 1.398 0 010-1.998L70.746 3.7zm12.2 37.767l9.049-8.952a1.4 1.4 0 00.42-1v-13.52c0-.782-.64-1.415-1.43-1.415h-13.67c-.38 0-.74.148-1.01.415l-34.238 33.86c-.56.554-1.46.554-2.02 0a1.398 1.398 0 010-1.998l35.079-34.7a1.43 1.43 0 011.01-.416h17.719c.79 0 1.43.633 1.43 1.415v17.528a1.4 1.4 0 01-.42.999l-9.89 9.783c-.56.554-1.46.554-2.02 0a1.399 1.399 0 010-1.998h-.01zm-.6-3.838a3.777 3.777 0 01-5.31 0l-5.9-5.836a3.68 3.68 0 010-5.253l5.8-5.737a3.784 3.784 0 012.65-1.088h5.899c2.07 0 3.75 1.662 3.75 3.71v5.835c0 .99-.4 1.93-1.1 2.622l-5.8 5.737.01.01zm-6.04 53.545c.27.267.63.415 1.01.415h13.669c.79 0 1.43-.633 1.43-1.414V76.653a1.4 1.4 0 00-.42-1l-34.238-33.89a1.398 1.398 0 010-1.997 1.435 1.435 0 012.02 0l35.077 34.7c.27.268.42.624.42 1v17.528c0 .781-.64 1.415-1.43 1.415H76.126c-.38 0-.74-.149-1.01-.416l-9.89-9.783a1.398 1.398 0 010-1.998 1.435 1.435 0 012.02 0l9.05 8.952.01.01zm-5.17-14.798l5.9-5.837a3.777 3.777 0 015.31 0l5.799 5.738c.7.692 1.1 1.642 1.1 2.621v5.836c0 2.048-1.68 3.71-3.75 3.71h-5.9c-.99 0-1.95-.396-2.65-1.088l-5.8-5.738a3.68 3.68 0 010-5.252l-.01.01zM26.069 66.69l-9.05 8.953a1.4 1.4 0 00-.42.999v13.522c0 .781.64 1.414 1.43 1.414h13.67c.38 0 .74-.148 1.01-.415l34.237-33.87a1.435 1.435 0 012.02 0c.56.554.56 1.444 0 1.998L33.888 93.993a1.43 1.43 0 01-1.01.416H15.17c-.79 0-1.43-.634-1.43-1.415V75.466c0-.376.15-.732.42-1l9.89-9.783a1.435 1.435 0 012.02 0c.56.554.56 1.445 0 1.998v.01zm.6 3.838a3.777 3.777 0 015.31 0l5.899 5.837a3.68 3.68 0 010 5.252l-5.8 5.738a3.784 3.784 0 01-2.65 1.088h-5.9c-2.07 0-3.75-1.662-3.75-3.71v-5.836c0-.99.4-1.929 1.1-2.621l5.8-5.738-.01-.01zm6.04-53.544a1.43 1.43 0 00-1.01-.416h-13.67c-.79 0-1.43.633-1.43 1.415v13.522c0 .376.15.732.42.999l34.238 33.87c.56.554.56 1.444 0 1.998s-1.46.554-2.02 0L14.16 33.682a1.4 1.4 0 01-.42-.999V15.154c0-.781.64-1.414 1.43-1.414h17.72c.379 0 .739.148 1.009.415l9.89 9.784c.56.553.56 1.444 0 1.998s-1.46.554-2.02 0l-9.05-8.953h-.01zm5.169 14.798l-5.9 5.836a3.777 3.777 0 01-5.31 0l-5.8-5.737a3.703 3.703 0 01-1.1-2.622v-5.836c0-2.047 1.68-3.71 3.75-3.71h5.9c.99 0 1.95.396 2.65 1.089l5.8 5.737a3.68 3.68 0 010 5.253l.01-.01zm8.07 19.665l5.909-5.846a3.777 3.777 0 015.31 0l5.9 5.836a3.697 3.697 0 010 5.253l-5.9 5.846a3.777 3.777 0 01-5.31 0l-5.9-5.836a3.697 3.697 0 010-5.253h-.01zm-11.05-39.686a1.43 1.43 0 00-1.01-.416H12.739c-.79 0-1.43.633-1.43 1.415v20.921c0 .376.15.732.42 1l35.788 35.402c.56.554.56 1.444 0 1.998s-1.46.554-2.02 0L8.87 35.848a1.4 1.4 0 01-.42-.999V9.932c0-.782.64-1.415 1.43-1.415h25.189c.38 0 .74.148 1.01.415l11.44 11.317c.56.554.56 1.444 0 1.998s-1.46.554-2.02 0l-10.6-10.485zm-12.57 51.23L11.73 73.477a1.4 1.4 0 00-.42 1v20.92c0 .782.64 1.415 1.43 1.415h21.149c.38 0 .74-.148 1.01-.415l35.788-35.403a1.435 1.435 0 012.02 0c.56.554.56 1.444 0 1.998L36.078 99.226a1.43 1.43 0 01-1.01.415H9.879c-.79 0-1.43-.633-1.43-1.414V73.309c0-.376.15-.732.42-.999l11.44-11.316a1.435 1.435 0 012.02 0c.56.554.56 1.444 0 1.998zm51.788 33.405c.27.267.63.415 1.01.415h21.148c.79 0 1.43-.633 1.43-1.414V74.476a1.4 1.4 0 00-.42-.999L61.496 38.074a1.398 1.398 0 010-1.998 1.435 1.435 0 012.02 0l36.628 36.234c.27.267.42.623.42 1v24.917c0 .781-.64 1.414-1.43 1.414H73.946c-.38 0-.74-.148-1.01-.415L61.496 87.91a1.398 1.398 0 010-1.999 1.435 1.435 0 012.02 0l10.6 10.486zm12.569-51.23l10.6-10.486a1.4 1.4 0 00.42-.999v-20.92c0-.782-.64-1.415-1.43-1.415h-21.15c-.38 0-.74.149-1.01.416L38.329 47.165c-.56.554-1.46.554-2.02 0a1.398 1.398 0 010-1.998L72.936 8.932a1.43 1.43 0 011.01-.415h25.188c.79 0 1.43.633 1.43 1.415v24.917a1.4 1.4 0 01-.42 1l-11.44 11.316c-.56.554-1.46.554-2.02 0a1.398 1.398 0 010-1.998zM3.59 38.015a1.4 1.4 0 01-.42-1V4.7c0-.782.64-1.415 1.43-1.415h32.658c.38 0 .74.149 1.01.416l12.989 12.85c.56.553.56 1.444 0 1.997-.56.554-1.46.554-2.02 0L37.087 6.53a1.43 1.43 0 00-1.01-.416H7.46c-.79 0-1.43.633-1.43 1.415v28.31c0 .376.15.733.42 1l37.337 36.936c.56.554.56 1.444 0 1.998s-1.46.554-2.02 0L3.59 38.015zm34.678 66.434a1.43 1.43 0 01-1.01.415H4.6c-.79 0-1.43-.633-1.43-1.414V71.143c0-.376.15-.732.42-1l12.989-12.849a1.435 1.435 0 012.02 0c.56.554.56 1.444 0 1.998L6.449 71.311a1.4 1.4 0 00-.42.999v28.311c0 .781.64 1.414 1.43 1.414h28.619c.38 0 .74-.148 1.01-.415l37.338-36.937a1.435 1.435 0 012.02 0c.56.554.56 1.445 0 1.998L38.277 104.45h-.01zm67.576-.999c0 .781-.64 1.414-1.43 1.414H71.756c-.38 0-.74-.148-1.01-.415l-12.99-12.85a1.398 1.398 0 010-1.998 1.435 1.435 0 012.02 0l12.15 12.019c.27.267.63.415 1.01.415h28.618c.79 0 1.43-.633 1.43-1.414V72.31a1.4 1.4 0 00-.42-1L65.226 34.375a1.398 1.398 0 010-1.998 1.435 1.435 0 012.02 0l38.178 37.768c.27.267.42.623.42.999v32.307z" fill="#fff"/></g><defs><clipPath id="clip0_2_56"><path fill="#fff" d="M0 0h340v108H0z"/></clipPath></defs></svg>