<svg width="425" height="85" fill="none" xmlns="http://www.w3.org/2000/svg"><g clip-path="url(#clip0_2_467)"><path d="M179.13 34.63v-5.88c0-1.16-.28-2.05-.85-2.67-.56-.62-1.4-.93-2.5-.93-.2 0-.4.01-.58.04-.18.03-.36.06-.52.1V23.1h-2.25v14.29h2.25v-8.8c0-.52.1-.88.29-1.08.19-.2.46-.31.82-.31.36 0 .63.1.82.31.19.2.29.57.29 1.08v6.02h2.25l-.02.02zm-8.15-5.19h-2.25v4.72c0 .52-.1.88-.29 1.08-.19.2-.46.31-.82.31-.36 0-.63-.1-.82-.31-.19-.2-.29-.56-.29-1.09V23.11h-3.08v2.06h.84v8.82c0 1.16.28 2.05.85 2.67.56.62 1.4.93 2.5.93s1.94-.31 2.5-.92c.57-.61.85-1.5.85-2.65v-4.57l.01-.01zm2.19 23.59c0-.26.04-.59.11-1 .07-.41.23-.81.47-1.19.24-.39.58-.72 1.01-1.01.44-.29 1.02-.43 1.76-.43h.16v-2.88h-2.25v1.12c-.69.23-1.27.56-1.73.99-.46.43-.82.9-1.08 1.42-.27.52-.45 1.05-.55 1.6-.1.55-.15 1.06-.15 1.52v7.62h3.51v.51h2.27v-2.55h-3.53v-5.72zm-11.5-15.16l1.55-1.51-.92-.94c.12-.42.18-.9.18-1.43V23.11h-2.25v11.04c0 .52-.1.88-.29 1.09-.19.2-.46.31-.82.31-.36 0-.63-.1-.82-.31-.19-.2-.29-.56-.29-1.09V23.11h-2.25v10.88c0 1.16.28 2.05.85 2.67.57.62 1.4.93 2.5.93.72 0 1.33-.14 1.84-.41l.69.69h.03zm1.29 8.46c-1.1 0-1.94.31-2.5.93-.56.62-.85 1.51-.85 2.66V60.8h2.25V49.77c0-.52.1-.88.29-1.08.19-.2.46-.31.82-.31.36 0 .63.1.82.31.19.2.29.56.29 1.08v4.86h2.25v-4.72c0-1.16-.28-2.05-.85-2.66-.57-.62-1.4-.93-2.5-.93l-.02.01zm22.05 11.05V46.5h-2.25v11.04c0 .52-.1.88-.29 1.09-.19.2-.46.31-.82.31-.36 0-.63-.1-.82-.31-.19-.2-.29-.56-.29-1.09V46.5h-2.25v10.88c0 1.16.28 2.05.85 2.67.56.62 1.4.93 2.5.93.72 0 1.33-.14 1.84-.41l.69.69 1.55-1.51-.92-.94c.12-.42.18-.9.18-1.43h.03zm-30.2-11.05c-1.1 0-1.94.31-2.5.93-.56.62-.85 1.51-.85 2.66v10.86h2.25V49.77c0-.52.1-.88.29-1.08.19-.2.46-.31.82-.31.36 0 .63.1.82.31.19.2.29.56.29 1.08v11.01h2.25V49.92c0-1.16-.28-2.05-.85-2.66-.57-.62-1.4-.93-2.5-.93h-.02zm57.4-19.93v4.86h2.25v-4.72c0-1.16-.28-2.05-.85-2.66-.56-.62-1.4-.93-2.5-.93s-1.94.31-2.5.93c-.57.62-.85 1.51-.85 2.66v10.88h2.25V26.39c0-.52.1-.88.29-1.08.19-.2.46-.31.82-.31.36 0 .63.1.82.31.19.2.29.56.29 1.08l-.02.01zM197 37.87l1.55-1.51-.92-.94c.12-.42.18-.9.18-1.43V23.11h-2.25v11.04c0 .52-.1.88-.29 1.09-.19.2-.46.31-.82.31-.36 0-.63-.1-.82-.31-.19-.2-.29-.56-.29-1.09V23.11h-2.25v10.88c0 1.16.28 2.05.85 2.67.57.62 1.4.93 2.5.93.72 0 1.33-.14 1.84-.41l.69.69h.03zm-5.74 19.67c0 .52-.1.88-.29 1.08-.19.2-.46.31-.82.31-.36 0-.63-.1-.82-.31-.19-.2-.29-.56-.29-1.09V46.49h-3.08v2.06h.84v8.82c0 1.16.28 2.05.85 2.67.57.62 1.4.93 2.5.93s1.94-.31 2.5-.92c.56-.61.85-1.5.85-2.65v-4.57h-2.25v4.72l.01-.01zm30.53-19.67l1.55-1.51-.92-.94c.12-.42.18-.9.18-1.43V23.11h-2.25v11.04c0 .52-.1.88-.29 1.09-.19.2-.46.31-.82.31-.36 0-.63-.1-.82-.31-.19-.2-.29-.56-.29-1.09V23.11h-2.25v10.88c0 1.16.28 2.05.85 2.67.56.62 1.4.93 2.5.93.72 0 1.33-.14 1.84-.41l.69.69h.03zm8.13-3.3v-9.39h.18c.35 0 .63.1.82.31.19.2.29.57.29 1.08v10.84h2.25v-10.7c0-1.16-.28-2.05-.85-2.67-.57-.62-1.4-.93-2.5-.93h-2.7c-1.1 0-1.94.31-2.5.93-.57.62-.85 1.51-.85 2.67v4.57h2.25v-4.72c0-.52.1-.88.29-1.08.19-.2.46-.31.82-.31h.27v9.39h2.25l-.02.01zm-30.31-.58c0 1.16.28 2.05.85 2.67.56.62 1.4.93 2.5.93s1.94-.31 2.5-.92c.57-.61.85-1.5.85-2.65v-4.57h-2.25v4.72c0 .52-.1.88-.29 1.08-.19.2-.46.31-.82.31-.36 0-.63-.1-.82-.31-.19-.2-.29-.56-.29-1.09V23.12h-3.08v2.06h.84V34l.01-.01zm-12.37 3.93h2.27v-2.55h-3.53v-5.72c0-.26.04-.59.11-1 .07-.41.23-.81.47-1.19.24-.39.58-.72 1.01-1.01.44-.29 1.02-.43 1.76-.43h.16v-2.88h-2.25v1.12c-.69.23-1.27.56-1.73.99-.46.43-.82.9-1.08 1.42-.27.52-.45 1.05-.55 1.6-.1.55-.15 1.06-.15 1.52v7.62h3.51v.51zm-43.89-.33c1.1 0 1.94-.31 2.5-.93.56-.62.85-1.51.85-2.67V23.11h-2.25v11.04c0 .52-.1.88-.29 1.09-.19.2-.46.31-.82.31-.36 0-.63-.1-.82-.31-.19-.2-.29-.56-.29-1.09V23.11h-2.25v10.88c0 1.16.28 2.05.85 2.67.57.62 1.4.93 2.5.93h.02zm-8.14 0c.72 0 1.33-.14 1.84-.41l.69.69 1.55-1.51-.92-.94c.12-.42.18-.9.18-1.43V23.11h-2.25v11.04c0 .52-.1.88-.29 1.09-.19.2-.46.31-.82.31-.36 0-.63-.1-.82-.31-.19-.2-.29-.56-.29-1.09V23.11h-2.25v10.88c0 1.16.28 2.05.85 2.67.57.62 1.4.93 2.5.93h.03zm169.59 0c1.1 0 1.94-.31 2.5-.93.56-.62.85-1.51.85-2.67V23.11h-2.25v11.04c0 .52-.1.88-.29 1.09-.19.2-.46.31-.82.31-.36 0-.63-.1-.82-.31-.19-.2-.29-.56-.29-1.09V23.11h-2.25v10.88c0 1.16.28 2.05.85 2.67.56.62 1.4.93 2.5.93h.02zm8.15-2.06h.27v1.88h2.25v-1.88h.18c1.1 0 1.94-.31 2.5-.93.56-.62.85-1.5.85-2.66v-4.4c0-1.15-.28-2.04-.85-2.66-.57-.62-1.4-.93-2.5-.93h-.18v-.84h-2.25v.84h-.27c-1.1 0-1.94.31-2.5.93-.57.62-.85 1.5-.85 2.66v4.4c0 1.15.28 2.04.85 2.66.56.62 1.4.93 2.5.93zm2.51-9.54h.18c.35 0 .63.1.82.31.19.2.29.57.29 1.09v4.71c0 .52-.1.88-.29 1.09-.19.2-.46.31-.82.31 0 .03-.06.04-.18.04v-7.55zm-3.61 1.39c0-.52.1-.88.29-1.09.19-.2.46-.31.82-.31h.27v7.51h-.18s-.07 0-.08-.02c-.35 0-.63-.1-.82-.31-.19-.2-.29-.57-.29-1.09v-4.71l-.01.02zm-58.92-.98c0-.52.1-.88.29-1.08.19-.2.46-.31.82-.31.36 0 .63.1.82.31.19.2.29.56.29 1.08v11.01h2.25V26.55c0-1.16-.28-2.05-.85-2.66-.57-.62-1.4-.93-2.5-.93s-1.94.31-2.5.93c-.56.62-.85 1.51-.85 2.66v10.86h2.25V26.4h-.02zM111.74 37.92h2.27v-2.55h-3.53v-5.72c0-.26.04-.59.11-1 .07-.41.23-.81.47-1.19.24-.39.58-.72 1.01-1.01.44-.29 1.02-.43 1.76-.43h.16v-2.88h-2.25v1.12c-.69.23-1.27.56-1.73.99-.46.43-.82.9-1.08 1.42-.27.52-.45 1.05-.55 1.6-.1.55-.15 1.06-.15 1.52v7.62h3.51v.51zm29.84 19.46V46.5h-2.25v11.04c0 .52-.1.88-.29 1.09-.19.2-.46.31-.82.31-.36 0-.63-.1-.82-.31-.19-.2-.29-.56-.29-1.09V46.5h-2.25v10.88c0 1.16.28 2.05.85 2.67.57.62 1.4.93 2.5.93.72 0 1.33-.14 1.84-.41l.69.69 1.55-1.51-.92-.94c.12-.42.18-.9.18-1.43h.03zm-10.99-.51c-.35 0-.63-.1-.84-.31-.2-.2-.31-.57-.31-1.08l-.02-6.37h-3.29V46.5h-2.25l.02 14.29h2.25l-.02-9.62h1.04l.02 4.17c0 1.16.29 2.05.87 2.66.58.62 1.42.93 2.52.93h2.25v-9.8h-2.25v7.74h.01zm24.02-22.9c0-.68-.11-1.27-.33-1.78-.22-.5-.49-.95-.82-1.35-.33-.39-.68-.76-1.05-1.09-.37-.33-.72-.67-1.05-1-.33-.33-.6-.69-.82-1.06-.22-.37-.33-.81-.33-1.3 0-.52.1-.88.3-1.09.2-.21.47-.32.83-.32s.63.11.83.32c.2.21.3.58.3 1.09v.59h2.12v-.45c0-1.16-.28-2.05-.83-2.66-.55-.62-1.38-.93-2.48-.93s-1.93.31-2.48.93c-.55.62-.83 1.51-.83 2.67 0 .68.11 1.27.33 1.78.22.5.49.95.82 1.35.33.39.68.76 1.05 1.1.37.33.73.67 1.05 1 .33.33.6.69.82 1.07.22.37.33.81.33 1.3 0 .52-.11.88-.32 1.09-.21.2-.49.31-.85.31s-.64-.1-.85-.31c-.21-.2-.32-.57-.32-1.08v-1.02h-2.12v.88c0 1.16.28 2.04.85 2.65.57.61 1.4.92 2.5.92s1.94-.31 2.5-.93c.56-.62.85-1.51.85-2.66v-.02zm-39.68 15.95c0-1.16-.28-2.05-.85-2.66-.56-.62-1.4-.93-2.5-.93s-1.94.31-2.5.93c-.57.62-.85 1.51-.85 2.66v5.39c0 1.16.28 2.05.85 2.66.56.62 1.4.93 2.5.93h1.08l.02 1.88h2.25V58.9h.84v-2.06h-.84v-6.92zm-2.25 5.53c0 .52-.1.88-.29 1.08-.19.2-.46.31-.82.31-.36 0-.63-.1-.82-.31-.19-.2-.29-.57-.29-1.08v-5.68c0-.52.1-.88.29-1.08.19-.2.46-.31.82-.31.36 0 .63.1.82.31.19.2.29.56.29 1.08v5.68zm37.05-8.96h-2.25l-.02 9.17c-.03.45-.13.77-.32.95-.18.18-.45.28-.79.28s-.63-.1-.82-.31c-.19-.2-.29-.57-.29-1.08v-6.02h-2.25v5.88c0 1.16.28 2.05.85 2.66.56.62 1.4.93 2.5.93.41 0 .78-.04 1.1-.12v1.96h3.12v-2.06h-.88l.02-12.23.03-.01zm-22.63-8.92c1.1 0 1.94-.31 2.5-.93.56-.62.85-1.51.85-2.66v-1.12c0-.74-.12-1.36-.36-1.87s-.64-.89-1.21-1.13c1.05-.44 1.57-1.42 1.57-2.94v-.37c0-1.16-.28-2.05-.85-2.66-.57-.62-1.4-.93-2.5-.93s-1.94.31-2.5.93c-.56.62-.85 1.51-.85 2.66v.78h2.12v-.92c0-.52.11-.88.32-1.09.21-.21.49-.32.85-.32s.64.11.85.34c.21.22.32.66.32 1.3v.8c0 .57-.12.97-.36 1.18-.24.22-.57.33-.99.33h-3.1v2.04h2.98c.52 0 .89.14 1.12.41.23.27.35.74.35 1.41v1.12c0 .64-.11 1.07-.32 1.29-.21.22-.49.33-.85.33s-.64-.11-.85-.32c-.21-.21-.32-.58-.32-1.09v-1.33h-2.12v1.18c0 1.16.28 2.05.85 2.66.57.62 1.4.93 2.5.93v-.01zm-8.17 8.92h-2.25v14.3h5.66v-2.06h-3.41V46.49zm3.39-12.5V23.11h-2.25v11.04c0 .52-.1.88-.29 1.09-.19.2-.46.31-.82.31-.36 0-.63-.1-.82-.31-.19-.2-.29-.56-.29-1.09V23.11h-2.25v10.88c0 1.16.28 2.05.85 2.67.57.62 1.4.93 2.5.93.72 0 1.33-.14 1.84-.41l.69.69 1.55-1.51-.92-.94c.12-.42.18-.9.18-1.43h.03zm126.33 2.65c.56-.62.85-1.51.85-2.66 0-.68-.11-1.27-.33-1.78-.22-.5-.49-.95-.82-1.35-.33-.39-.68-.76-1.05-1.09-.37-.33-.72-.67-1.05-1-.33-.33-.6-.69-.82-1.06-.22-.37-.33-.81-.33-1.3 0-.52.1-.88.3-1.09.2-.21.47-.32.83-.32s.63.11.83.32c.2.21.3.58.3 1.09v.59h2.12v-.45c0-1.16-.28-2.05-.83-2.66-.55-.62-1.38-.93-2.48-.93s-1.93.31-2.48.93c-.55.62-.83 1.51-.83 2.67 0 .68.11 1.27.33 1.78.22.5.49.95.82 1.35.33.39.68.76 1.05 1.1.37.33.73.67 1.05 1 .33.33.6.69.82 1.07.22.37.33.81.33 1.3 0 .52-.11.88-.32 1.09-.21.2-.49.31-.85.31s-.64-.1-.85-.31c-.21-.2-.32-.57-.32-1.08v-1.02h-2.12v.88c0 1.16.28 2.04.85 2.65.57.61 1.4.92 2.5.92s1.94-.31 2.5-.93v-.02zm98.69-10.1c0-1.16-.28-2.05-.85-2.66-.57-.62-1.4-.93-2.5-.93s-1.94.31-2.5.93c-.56.62-.85 1.51-.85 2.66v10.88h2.25V26.39c0-.52.1-.88.29-1.08.19-.2.46-.31.82-.31.36 0 .63.1.82.31.19.2.29.56.29 1.08v11.03h2.25v-1.9h.84v-2.06h-.84v-6.92h-.02zm-67.1 6.31c0-.74-.12-1.36-.36-1.87s-.64-.89-1.21-1.13c1.05-.44 1.57-1.42 1.57-2.94v-.37c0-1.16-.28-2.05-.85-2.66-.56-.62-1.4-.93-2.5-.93s-1.94.31-2.5.93c-.57.62-.85 1.51-.85 2.66v.78h2.12v-.92c0-.52.11-.88.32-1.09.21-.21.49-.32.85-.32s.64.11.85.34c.21.22.32.66.32 1.3v.8c0 .57-.12.97-.36 1.18-.24.22-.57.33-.99.33h-3.1v2.04h2.98c.52 0 .89.14 1.12.41.23.27.35.74.35 1.41v1.12c0 .64-.11 1.07-.32 1.29-.21.22-.49.33-.85.33s-.64-.11-.85-.32c-.21-.21-.32-.58-.32-1.09V32.8h-2.12v1.18c0 1.16.28 2.05.85 2.66.56.62 1.4.93 2.5.93s1.94-.31 2.5-.93c.56-.62.85-1.51.85-2.66v-1.13zm72.2-9.9c-1.1 0-1.94.31-2.5.93-.56.62-.85 1.51-.85 2.66v6.92h-.53v2.06h.53v1.88h2.25v-1.88h4.45v-2.06h-4.43v-.63c.33.08.69.12 1.08.12 1.1 0 1.94-.31 2.5-.93.56-.62.85-1.51.85-2.66v-2.82c0-1.16-.28-2.05-.85-2.66-.56-.62-1.4-.93-2.5-.93zm1.1 6.56c0 .52-.1.88-.29 1.08-.19.2-.46.31-.82.31-.36 0-.63-.1-.82-.31-.19-.2-.29-.56-.29-1.08v-3.1c0-.52.1-.88.29-1.08.19-.2.46-.31.82-.31.36 0 .63.1.82.31.19.2.29.56.29 1.08v3.1zm-81.7-.17h.74V27.3h-.74v-.58c0-1.16-.25-2.06-.75-2.68-.5-.62-1.3-.93-2.4-.93h-2.41c-1.1 0-1.94.31-2.5.93-.57.62-.85 1.51-.85 2.67v10.7h2.25V26.55c0-.52.1-.88.29-1.09.19-.2.46-.31.82-.31h2.41c.35 0 .59.11.71.31.12.21.18.58.18 1.1v.73h-.1c-1.1 0-1.92.31-2.46.92-.54.61-.81 1.5-.81 2.65v4.19h2.35c1.1 0 1.92-.31 2.46-.93.54-.62.81-1.51.81-2.66v-2.12zm-2.25 2.27c0 .52-.1.88-.29 1.08-.19.2-.47.31-.84.31v-2.27c0-.52.09-.88.27-1.08.18-.2.44-.31.8-.31h.06v2.27zm54.04 5.96c1.1 0 1.94-.31 2.5-.93.57-.62.85-1.51.85-2.66v-1.12c0-.74-.12-1.36-.36-1.87s-.64-.89-1.21-1.13c1.05-.44 1.57-1.42 1.57-2.94v-.37c0-1.16-.28-2.05-.85-2.66-.56-.62-1.4-.93-2.5-.93s-1.94.31-2.5.93c-.57.62-.85 1.51-.85 2.66v.78h2.12v-.92c0-.52.11-.88.32-1.09.21-.21.49-.32.85-.32s.64.11.85.34c.21.22.32.66.32 1.3v.8c0 .57-.12.97-.36 1.18-.24.22-.57.33-.99.33h-3.1v2.04h2.98c.52 0 .89.14 1.12.41.23.27.35.74.35 1.41v1.12c0 .64-.11 1.07-.32 1.29-.21.22-.49.33-.85.33s-.64-.11-.85-.32c-.21-.21-.32-.58-.32-1.09v-1.33h-2.12v1.18c0 1.16.28 2.05.85 2.66.56.62 1.4.93 2.5.93v-.01zm7-11.17c0-.52.1-.88.29-1.08.19-.2.46-.31.82-.31.36 0 .63.1.82.31.19.2.29.56.29 1.08v11.01h2.25V26.55c0-1.16-.28-2.05-.85-2.66-.57-.62-1.4-.93-2.5-.93s-1.94.31-2.5.93c-.56.62-.85 1.51-.85 2.66v10.86h2.25V26.4h-.02zm30.27-1.25c-.2 0-.4.01-.58.04-.18.03-.36.06-.52.1V23.1h-2.25v14.29h2.25v-8.8c0-.52.1-.88.29-1.08.19-.2.46-.31.82-.31.36 0 .63.1.82.31.19.2.29.57.29 1.08v6.02h2.25v-5.88c0-1.16-.28-2.05-.85-2.67-.56-.62-1.4-.93-2.5-.93l-.02.02zm-64.06 4.29h-2.25v4.72c0 .52-.1.88-.29 1.08-.19.2-.46.31-.82.31-.36 0-.63-.1-.82-.31-.19-.2-.29-.56-.29-1.09V23.11h-3.08v2.06h.84v8.82c0 1.16.28 2.05.85 2.67.56.62 1.4.93 2.5.93s1.94-.31 2.5-.92c.57-.61.85-1.5.85-2.65v-4.57l.01-.01zm-8.68 5.98c.12-.42.18-.9.18-1.43V23.11h-2.25v11.04c0 .52-.1.88-.29 1.09-.19.2-.46.31-.82.31-.36 0-.63-.1-.82-.31-.19-.2-.29-.56-.29-1.09V23.11h-2.25v10.88c0 1.16.28 2.05.85 2.67.56.62 1.4.93 2.5.93.72 0 1.33-.14 1.84-.41l.69.69 1.55-1.51-.92-.94h.03zm50.62-4.12h.84v-2.06h-.84v-6.13h-2.24V37.4h2.24v-6.1zm74.44-8.35c-1.1 0-1.94.31-2.5.93-.57.62-.85 1.51-.85 2.66v10.88h2.25V26.39c0-.52.1-.88.29-1.08.19-.2.46-.31.82-.31.36 0 .63.1.82.31.19.2.29.56.29 1.08v4.86h2.25v-4.72c0-1.16-.28-2.05-.85-2.66-.56-.62-1.4-.93-2.5-.93l-.02.01zm-9.23.16h-2.25v10.88c0 1.16.28 2.05.85 2.67.56.62 1.4.93 2.5.93s1.94-.31 2.5-.92c.57-.61.85-1.5.85-2.65V29.4h-2.25v4.76c0 .52-.1.88-.29 1.08-.19.2-.46.31-.82.31-.36 0-.63-.1-.82-.31-.19-.2-.29-.56-.29-1.09v-6.63h4.45v-2.07h-4.45V23.1l.02.01zM240.77 36.67c.56-.61.85-1.5.85-2.65V29.4h-2.25v4.76c0 .52-.1.88-.29 1.08-.19.2-.46.31-.82.31-.36 0-.63-.1-.82-.31-.19-.2-.29-.56-.29-1.09v-6.63h4.45v-2.07h-4.45V23.1h-2.25v10.88c0 1.16.28 2.05.85 2.67.57.62 1.4.93 2.5.93s1.94-.31 2.5-.92l.02.01zm183.1-10.59c-.56-.62-1.4-.93-2.5-.93-.2 0-.4.01-.58.04-.18.03-.36.06-.52.1V23.1h-2.25v14.29h2.25v-8.8c0-.52.1-.88.29-1.08.19-.2.46-.31.82-.31.36 0 .63.1.82.31.19.2.29.57.29 1.08v6.02h2.25v-5.88c0-1.16-.28-2.05-.85-2.67l-.02.02zm-30.3-.91h3.21c-1.06.03-1.86.35-2.39.98s-.8 1.5-.8 2.61v5.21c0 1.16.28 2.05.85 2.66.56.62 1.4.93 2.5.93s1.94-.31 2.5-.93c.57-.62.85-1.51.85-2.66v-5.21c0-1.12-.27-1.99-.8-2.61-.53-.63-1.33-.95-2.39-.98h3.19v-2.06h-6.72v2.06zm4.19 2.39c.19.2.29.57.29 1.08v5.49c0 .52-.1.88-.29 1.08-.19.2-.46.31-.82.31-.36 0-.63-.1-.82-.31-.19-.2-.29-.57-.29-1.08v-5.49c0-.52.1-.88.29-1.08.19-.2.46-.31.82-.31.36 0 .63.1.82.31zm-22.22-1.02c0-1.16-.28-2.05-.85-2.66-.57-.62-1.4-.93-2.5-.93s-1.94.31-2.5.93c-.56.62-.85 1.51-.85 2.66v5.39c0 1.16.28 2.05.85 2.66.57.62 1.4.93 2.5.93h1.08l.02 1.88h2.25v-1.88h.84v-2.06h-.84v-6.92zm-2.25 5.53c0 .52-.1.88-.29 1.08-.19.2-.46.31-.82.31-.36 0-.63-.1-.82-.31-.19-.2-.29-.56-.29-1.08v-5.68c0-.52.1-.88.29-1.08.19-.2.46-.31.82-.31.36 0 .63.1.82.31.19.2.29.56.29 1.08v5.68zm7.35-9.12c-1.1 0-1.94.31-2.5.93-.57.62-.85 1.51-.85 2.66V37.4h2.25V26.39c0-.52.1-.88.29-1.08.19-.2.46-.31.82-.31.36 0 .63.1.82.31.19.2.29.56.29 1.08V37.4h2.25V26.54c0-1.16-.28-2.05-.85-2.66-.56-.62-1.4-.93-2.5-.93h-.02zM261.08 31.3h.84v-2.06h-.84v-6.13h-2.25V37.4h2.25v-6.1zm127.71-8.35c-1.1 0-1.94.31-2.5.93-.57.62-.85 1.51-.85 2.66v10.88h2.25V26.39c0-.52.1-.88.29-1.08.19-.2.46-.31.82-.31.36 0 .63.1.82.31.19.2.29.56.29 1.08v4.86h2.25v-4.72c0-1.16-.28-2.05-.85-2.66-.56-.62-1.4-.93-2.5-.93l-.02.01zm-47.35 32.39v.16c0 .52-.1.88-.29 1.08-.19.2-.46.31-.82.31-.36 0-.63-.1-.82-.31-.19-.2-.29-.57-.29-1.08v-9.01h-2.25v8.86c0 1.16.28 2.05.85 2.66.57.62 1.4.93 2.5.93.41 0 .78-.04 1.1-.12v1.96h2.23V49.47h-2.21l-.02 5.86.02.01zm-17.34-9.01c-1.1 0-1.94.31-2.5.93-.56.62-.85 1.51-.85 2.66v.78h2.12v-.92c0-.52.11-.88.32-1.09.21-.21.49-.32.85-.32s.64.11.85.34c.21.22.32.66.32 1.3v.8c0 .57-.12.97-.36 1.18-.24.22-.57.33-.99.33h-3.1v2.04h2.98c.52 0 .89.14 1.12.41.23.27.35.74.35 1.41v1.12c0 .64-.11 1.07-.32 1.29-.21.22-.49.33-.85.33s-.64-.11-.85-.32c-.21-.21-.32-.58-.32-1.09v-1.33h-2.12v1.18c0 1.16.28 2.05.85 2.66.56.62 1.4.93 2.5.93s1.94-.31 2.5-.93c.56-.62.85-1.51.85-2.66v-1.12c0-.74-.12-1.36-.36-1.87s-.64-.89-1.21-1.13c1.05-.44 1.57-1.42 1.57-2.94v-.37c0-1.16-.28-2.05-.85-2.66-.57-.62-1.4-.93-2.5-.93v-.01zm11.46 11.05V46.5h-2.25v11.04c0 .52-.1.88-.29 1.09-.19.2-.46.31-.82.31-.36 0-.63-.1-.82-.31-.19-.2-.29-.56-.29-1.09V46.5h-2.25v10.88c0 1.16.28 2.05.85 2.67.57.62 1.4.93 2.5.93.72 0 1.33-.14 1.84-.41l.69.69 1.55-1.51-.92-.94c.12-.42.18-.9.18-1.43h.03zm-72.25-8.84c-.2 0-.4.01-.58.04-.18.03-.36.06-.52.1v-2.19h-2.25v14.29h2.25v-8.8c0-.52.1-.88.29-1.08.19-.2.46-.31.82-.31.36 0 .63.1.82.31.19.2.29.57.29 1.08V58h2.25v-5.88c0-1.16-.28-2.05-.85-2.67-.56-.62-1.4-.93-2.5-.93l-.02.02zm-65-2.19c-1.1 0-1.94.31-2.5.93-.56.62-.85 1.51-.85 2.66v2.53c0 1.16.28 2.05.85 2.67.57.62 1.4.93 2.5.93.39 0 .76-.04 1.08-.12l.02 1c0 .07 0 .12-.02.14-.34-.19-.69-.34-1.06-.45-.37-.11-.74-.16-1.12-.16-.27 0-.55.04-.85.11-.29.07-.56.2-.81.39-.25.18-.45.43-.6.75-.16.31-.23.71-.23 1.18 0 .31.07.6.21.85.14.25.33.47.56.64.23.18.5.32.8.42.3.1.61.15.92.15.38 0 .76-.05 1.12-.15.37-.1.72-.24 1.06-.43 0 .03 0 .05.01.06 0 .01.01.03.01.06l.02.45h2.23v-.31c0-.68-.18-1.32-.55-1.92.37-.6.55-1.24.55-1.92v-6.86c0-1.16-.28-2.05-.85-2.66-.57-.62-1.4-.93-2.5-.93v-.01zm-1.1 12.58c-.05 0-.1 0-.14-.02-.08-.03-.12-.08-.1-.16 0-.08.04-.14.12-.16.04-.01.08-.02.12-.02.19 0 .42.06.69.18-.27.12-.5.18-.69.18zm2.21-6.31c0 .52-.1.88-.29 1.08-.19.2-.46.31-.82.31-.36 0-.63-.1-.82-.31-.19-.2-.29-.56-.29-1.08V49.8c0-.52.1-.88.29-1.08.19-.2.46-.31.82-.31.36 0 .63.1.82.31.19.2.29.56.29 1.08v2.82zm117.65 4.92c0 .52-.1.88-.29 1.08-.19.2-.46.31-.82.31-.36 0-.63-.1-.82-.31-.19-.2-.29-.56-.29-1.09V46.49h-3.08v2.06h.84v8.82c0 1.16.28 2.05.85 2.67.57.62 1.4.93 2.5.93s1.94-.31 2.5-.92c.56-.61.85-1.5.85-2.65v-4.57h-2.25v4.72l.01-.01zm-66.71-.16V46.5h-2.25v11.04c0 .52-.1.88-.29 1.09-.19.2-.46.31-.82.31-.36 0-.63-.1-.82-.31-.19-.2-.29-.56-.29-1.09V46.5h-2.25v10.88c0 1.16.28 2.05.85 2.67.56.62 1.4.93 2.5.93.72 0 1.33-.14 1.84-.41l.69.69 1.55-1.51-.92-.94c.12-.42.18-.9.18-1.43h.03zm-32.06 0V46.5h-2.25v11.04c0 .52-.1.88-.29 1.09-.19.2-.46.31-.82.31-.36 0-.63-.1-.82-.31-.19-.2-.29-.56-.29-1.09V46.5h-2.25v10.88c0 1.16.28 2.05.85 2.67.56.62 1.4.93 2.5.93.72 0 1.33-.14 1.84-.41l.69.69 1.55-1.51-.92-.94c.12-.42.18-.9.18-1.43h.03zm5.88-2.04v.16c0 .52-.1.88-.29 1.08-.19.2-.46.31-.82.31-.36 0-.63-.1-.82-.31-.19-.2-.29-.57-.29-1.08v-9.01h-2.25v8.86c0 1.16.28 2.05.85 2.66.56.62 1.4.93 2.5.93.41 0 .78-.04 1.1-.12v1.96h2.23V49.47h-2.21l-.02 5.86.02.01zm30.98-9.01c-1.1 0-1.94.31-2.5.93-.57.62-.85 1.51-.85 2.66V60.8h2.25V49.77c0-.52.1-.88.29-1.08.19-.2.46-.31.82-.31.36 0 .63.1.82.31.19.2.29.56.29 1.08v4.86h2.25v-4.72c0-1.16-.28-2.05-.85-2.66-.56-.62-1.4-.93-2.5-.93l-.02.01zm-13.83 7.9c-.33-.39-.68-.76-1.05-1.09-.37-.33-.72-.67-1.05-1-.33-.33-.6-.69-.82-1.06-.22-.37-.33-.81-.33-1.3 0-.52.1-.88.3-1.09.2-.21.47-.32.83-.32s.63.11.83.32c.2.21.3.58.3 1.09v.59h2.12v-.45c0-1.16-.28-2.05-.83-2.66-.55-.62-1.38-.93-2.48-.93s-1.93.31-2.48.93c-.55.62-.83 1.51-.83 2.67 0 .68.11 1.27.33 1.78.22.5.49.95.82 1.35.33.39.68.76 1.05 1.1.37.33.73.67 1.05 1 .33.33.6.69.82 1.07.22.37.33.81.33 1.3 0 .52-.11.88-.32 1.09-.21.2-.49.31-.85.31s-.64-.1-.85-.31c-.21-.2-.32-.57-.32-1.08v-1.02h-2.12v.88c0 1.16.28 2.04.85 2.65.56.61 1.4.92 2.5.92s1.94-.31 2.5-.93c.57-.62.85-1.51.85-2.66 0-.68-.11-1.27-.33-1.78-.22-.5-.49-.95-.82-1.35v-.02zm-33.43 3.31c0 .52-.1.88-.29 1.08-.19.2-.46.31-.82.31-.36 0-.63-.1-.82-.31-.19-.2-.29-.56-.29-1.09V46.49h-3.08v2.06h.84v8.82c0 1.16.28 2.05.85 2.67.56.62 1.4.93 2.5.93s1.94-.31 2.5-.92c.57-.61.85-1.5.85-2.65v-4.57h-2.25v4.72l.01-.01zm92.55 0c0 .52-.1.88-.29 1.09-.19.2-.46.31-.82.31-.36 0-.63-.1-.82-.31-.19-.2-.29-.56-.29-1.09V46.5h-2.25v10.88c0 1.16.28 2.05.85 2.67.56.62 1.4.93 2.5.93s1.94-.31 2.5-.93c.57-.62.85-1.51.85-2.67V46.5h-2.25v11.04h.02zm-5.9-.16V46.5h-2.25v11.04c0 .52-.1.88-.29 1.09-.19.2-.46.31-.82.31-.36 0-.63-.1-.82-.31-.19-.2-.29-.56-.29-1.09V46.5h-2.25v10.88c0 1.16.28 2.05.85 2.67.56.62 1.4.93 2.5.93.72 0 1.33-.14 1.84-.41l.69.69 1.55-1.51-.92-.94c.12-.42.18-.9.18-1.43h.03zm11.84-10.89h-2.25v10.88c0 1.16.28 2.05.85 2.67.57.62 1.4.93 2.5.93s1.94-.31 2.5-.92c.56-.61.85-1.5.85-2.65v-4.62h-2.25v4.76c0 .52-.1.88-.29 1.08-.19.2-.46.31-.82.31-.36 0-.63-.1-.82-.31-.19-.2-.29-.56-.29-1.09V50.9h4.45v-2.07h-4.45v-2.35l.02.01zm-23.34-.16c-1.1 0-1.94.31-2.5.93-.56.62-.85 1.51-.85 2.66V60.8h2.25V49.77c0-.52.1-.88.29-1.08.19-.2.46-.31.82-.31.36 0 .63.1.82.31.19.2.29.56.29 1.08v4.86h2.25v-4.72c0-1.16-.28-2.05-.85-2.66-.56-.62-1.4-.93-2.5-.93l-.02.01zm-5.1 3.59c0-1.16-.28-2.05-.85-2.66-.56-.62-1.4-.93-2.5-.93s-1.94.31-2.5.93c-.57.62-.85 1.51-.85 2.66v5.39c0 1.16.28 2.05.85 2.66.56.62 1.4.93 2.5.93h1.08l.02 1.88h2.25V58.9h.84v-2.06h-.84v-6.92zm-2.25 5.53c0 .52-.1.88-.29 1.08-.19.2-.46.31-.82.31-.36 0-.63-.1-.82-.31-.19-.2-.29-.57-.29-1.08v-5.68c0-.52.1-.88.29-1.08.19-.2.46-.31.82-.31.36 0 .63.1.82.31.19.2.29.56.29 1.08v5.68zm-41.13 1.93V46.5h-2.25v11.04c0 .52-.1.88-.29 1.09-.19.2-.46.31-.82.31-.36 0-.63-.1-.82-.31-.19-.2-.29-.56-.29-1.09V46.5h-2.25v10.88c0 1.16.28 2.05.85 2.67.56.62 1.4.93 2.5.93.72 0 1.33-.14 1.84-.41l.69.69 1.55-1.51-.92-.94c.12-.42.18-.9.18-1.43h.03z" fill="#0B5D7A"/><path fill-rule="evenodd" clip-rule="evenodd" d="M76.89 53.78c-2.37-.55-4.11-2.14-4.79-4.27.17 0 1.12.74 1.46.91 1.68.59 2.74.2 4.51 1.28.53.23 2.49.56 2.78.81-.45.93-3.12 1.26-3.96 1.26v.01zM68.3 11.49c.84.36 1.77.22 1.57.74-.2.52-.73-.26-1.69.01-.22.06-.36.09-.59.16-.28.09-.5.13-.68.08-.21-.05-.39-.22-.33-.53.05-.27.32-.61.85-.67.09-.01.26-.03.42 0 .19.04.34.15.46.2l-.01.01zm6.81 25.09c-.17-.31-.33-.62-.49-.94-.15-.32-.3-.65-.4-.99.37-.69.72-1.38 1.05-2.1.14-.31.27-.62.39-.93.09-.25.18-.5.27-.76.06-.19.11-.38.17-.58.07-.26.12-.52.17-.79.03-.2.06-.4.08-.61l.03-.29c-.13-.19-.26-.37-.39-.56-.11-.18-.24-.37-.3-.57.13-.1.24-.2.35-.32.06-.07.12-.14.17-.22.1-.15.18-.3.24-.46.03-.07.05-.14.08-.21.13.58.25 1.15.42 1.72.1.32.2.64.32.96.07.18.15.35.23.52.66 1.29 1.33 2.57 1.99 3.87.28.56.55 1.12.82 1.68l.52 1.13.25.57.24.57.23.58.21.58.2.58.19.58.17.59.16.59.14.59.12.6.1.6.08.6.06.61.04.61v1.23l-.03.62-.06.63-.09.63c-.05.26-.09.51-.15.76-.07.3-.15.6-.25.9-.18-.24-.36-.48-.53-.72-.19-.27-.37-.55-.55-.82-.24-.38-.48-.77-.71-1.16-.4-.7-.79-1.4-1.17-2.11-.7-1.32-1.38-2.66-2.12-3.96-.19-.34-.4-.68-.6-1.02-.56-.93-1.13-1.85-1.66-2.8l.01.02zM12.56 62.7c.07-.34.17-.69.26-1.02.35-.95.71-1.9 1.08-2.85 1.26-3.22 2.6-6.42 3.9-9.63.23-.56.45-1.13.68-1.69.5-1.27 1-2.55 1.47-3.84a.721.721 0 00-.25-.21c-.16.15-.33.29-.51.42-.16.11-.32.22-.46.36l-.09.12c-.17.28-.23.61-.29.92-.04.12-.08.23-.12.34-.07.16-.15.31-.24.46-.09.13-.18.25-.28.36-.2.21-.42.4-.63.58-.2.18-.39.35-.57.55-.09.25-.2.49-.33.73-.11.2-.23.38-.36.56-.06.07-.12.14-.18.22-.29.32-.62.61-.97.87a10.482 10.482 0 01-.51 1.92c-.13.34-.28.67-.45.99-.22.42-.45.83-.68 1.23v1.71c-.01.39-.04.79-.08 1.18-.03.23-.06.45-.1.68-.05.23-.1.46-.16.68l-.1.34c-.07.21-.15.42-.24.62 0 .65.07 1.3.13 1.96.04.48.08.96.11 1.43l-.03.01zm-.08 2.55c.04.27.11.53.19.79l.18.53.45-.15c.2-.08.39-.16.57-.26.3-.17.58-.36.86-.57-.09.56-.14 1.12-.16 1.69 0 .32 0 .64.03.96l.06.48c.03.16.06.31.1.47.04.15.09.3.14.45l.21.49c.19-.08.39-.15.57-.24a3.886 3.886 0 00.83-.52c.15-.12.3-.25.43-.39.28-.29.52-.6.74-.93l.02.34c.04.71.05 1.43.12 2.14.03.24.06.47.11.7.04.19.08.37.13.55a9.844 9.844 0 00.44 1.2l.36.75.34-.36c.38-.39.74-.79 1.09-1.21.18-.22.35-.45.52-.68.24-.34.45-.7.64-1.07.02.23.04.45.05.68.03.33.06.67.1 1 .03.17.06.34.09.5.04.17.09.34.14.5l.13.34.16.34.2.33.24.33.28.33.31.32.46-.39c.13-.12.26-.25.39-.38.12-.13.23-.26.34-.4.1-.13.2-.27.3-.41.09-.14.17-.28.26-.42.1-.2.2-.39.29-.59.08-.21.16-.41.23-.62.09-.27.16-.53.23-.8.03.14.07.28.11.42.05.15.09.3.15.45.06.15.11.29.18.43.07.14.14.28.21.41.08.14.17.27.26.4.1.13.2.26.3.38.11.13.23.25.35.37.13.13.27.25.41.37.19.16.38.3.57.45l.26-.11.14-.08.13-.1.12-.11.11-.12.1-.13.1-.14.09-.15.16-.33c.08-.18.15-.36.21-.54l.12-.38c.16-.56.29-1.12.41-1.69.04-.17.07-.35.11-.52.41.78.86 1.54 1.36 2.26.11.15.22.3.34.45.11.13.22.26.33.38l.22.2.11.08.11.07.12.06.32.09.23-.72.14-.51.12-.51.1-.51.09-.51.07-.51.05-.5.04-.5.02-.5v-1.5l-.04-.5-.08-1-.12-.99c-.07-.49-.14-.99-.22-1.48-.22-1.31-.46-2.61-.68-3.91-.08-.47-.15-.95-.21-1.42.16.14.32.29.48.42l-.3-.03c.05.25.11.51.17.76.07.26.15.52.23.78.13.38.28.75.45 1.12.1.21.2.42.31.63.14.25.28.5.43.74-.26-.16-.53-.32-.8-.47l.02.49.03.08.28.49c.44.71.89 1.41 1.35 2.11-.21-.1-.43-.19-.64-.29l-.11.34v.23l.03.11.04.1c.05.11.11.21.17.31l.15.21c.35.44.75.82 1.15 1.22l.09.09c-.27-.1-.53-.21-.82-.25l-.66-.02c.2.22.4.43.61.64.43.42.88.84 1.24 1.32l.18.27c-.27.29-.55.56-.78.88-.06.09-.12.18-.17.28-.05.1-.09.2-.13.31-.08.25-.12.51-.12.77-.85.81-1.69 1.63-2.53 2.46-.17 0-.34-.04-.5-.07-.49.08-.98.15-1.47.21-.53.06-1.06.1-1.59.13-1.14.06-2.28.07-3.41.09l-.35.13c-.12.05-.24.11-.36.17l-.19.12-.15.13-.06.07-.05.08-.04.08-.03.08c-.02.08-.03.15-.04.24v.61a2.254 2.254 0 01-.16.67c-.14-.01-.28-.07-.4-.11-.17-.07-.34-.15-.51-.23-.2-.1-.39-.21-.59-.32-.44-.26-.86-.53-1.28-.81-.73-.5-1.45-1.02-2.13-1.6-.18-.16-.36-.34-.53-.51l-.14.42v.18c.01.09.03.16.06.25.14.37.35.71.54 1.06.17.3.35.61.48.93-.31-.1-.6-.23-.89-.36-.74-.34-1.46-.72-2.17-1.1-.56-.3-1.11-.62-1.67-.94l1.05 1.27.24.28.52.56.57.57.61.56.65.55.34.27.35.26.36.25.36.24.37.24.38.23.38.21.39.2.39.19.4.17.4.16.4.14.4.12.41.1.41.08.41.06.41.04h.82l.41-.04.4-.07.43-.11.1-.07c.07-.06.13-.11.19-.18.07-.09.12-.17.17-.27.03-.07.06-.14.08-.22l.11-.73c.02-.19.04-.38.09-.56.08 0 .16-.01.25 0 .08 0 .14.02.21.05.08.04.14.09.22.14h.12l.05-.02c.14-.05.27-.13.42-.14h.16c-.19.21-.36.42-.54.63.14.14.29.27.42.41.1.11.2.23.32.33l.06.04.08.03h.19l.07-.04.06-.04 1.6-1.35h2.79c-.17.14-.34.28-.52.42-.69.55-1.39 1.07-2.1 1.58l.04.31.06.33.08.3.1.28c.06.13.12.25.19.38l.15.23c.08.11.17.21.26.31.13.13.26.25.4.37.11.09.22.17.33.25.44.32.91.61 1.36.91l.15-.03c.22-.09.41-.24.6-.38.55-.41 1.09-.85 1.63-1.28.44-.36.88-.73 1.33-1.09.15-.04.27-.1.4-.18l.14-.1c.08-.07.15-.14.21-.22.14-.18.25-.37.41-.53.04-.04.08-.07.13-.1.08-.04.15-.07.24-.1.12-.03.23-.04.34-.06l.11-.11c.28-.29.52-.61.8-.89.13-.13.26-.25.41-.37.11-.08.22-.14.34-.21v3.25l-.86.81.16.24c.1.14.2.28.32.41.11.12.23.23.36.34.13.1.25.18.39.26.09.05.18.09.28.12.12.04.24.07.37.09.38.04.76 0 1.13-.11l.17-.06c.17-.07.32-.14.48-.23a1.768 1.768 0 00.41-.35c.06-.07.11-.14.16-.22.05-.08.09-.16.12-.25l.1-.32c-.28-.25-.57-.49-.85-.73v-2.06c.45.17.89.34 1.35.49.4.13.81.26 1.22.37.41.11.81.21 1.23.3.42.09.85.17 1.27.23.51.08 1.03.14 1.54.19.57.35 1.14.71 1.7 1.08.63.42 1.25.85 1.87 1.3l.16-.02c.28-.09.54-.25.78-.42.1-.07.19-.14.28-.21l.15-.15.06-.08.11-.25c-.58-.36-1.17-.71-1.75-1.06-.64-.39-1.27-.79-1.89-1.21-.22-.16-.45-.31-.67-.48-.2-.15-.39-.3-.58-.46l-.32-.29-.25-.27-.09-.12-.07-.11h3.85s.1.07.14.11a21.829 21.829 0 011.48 1.33l.14.23c.21-.16.42-.31.61-.48.12-.11.24-.21.35-.33l.06-.13-.04-.14c-.11-.21-.27-.39-.43-.57h2.18c.03.09.04.18.05.27.06.47.06.96.21 1.42l.06.15.08.14.08.09.39.17.37.11.38.08.38.04h.39l.4-.02.4-.05.4-.08.41-.1.41-.13.41-.15.41-.17.41-.19.41-.2.41-.22.41-.23.4-.24.4-.25.39-.26.76-.54.72-.55c.34-.27.67-.54 1-.82.3-.25.59-.51.88-.77.28-.26.55-.51.82-.77l-.04-.17-.06-.12-.08-.05-.07-.02h-.11l-.19.15c-.17.13-.34.25-.52.37a10.043 10.043 0 01-1.47.77c-.69.29-1.4.53-2.12.73.12-.21.24-.43.36-.64.23-.43.44-.9.52-1.39a.7.7 0 01.1-.08c.14-.13.27-.26.43-.37.02-.02.05-.04.08-.06.09 0 .19-.01.28-.02.26-.03.51-.06.77-.14.16-.05.3-.11.45-.19.16-.09.31-.2.45-.32.24-.03.48-.06.71-.11l.35-.09.32-.11.29-.13.27-.15.25-.18.22-.2.2-.22.18-.24c.09-.13.16-.27.24-.41l.14-.3c.15-.35.28-.71.38-1.08.17-.01.32-.05.48-.09l.19-.07.17-.08.16-.1.14-.11.13-.12.11-.14.1-.15.08-.15.07-.16.06-.17.05-.17.04-.18c.03-.19.05-.37.07-.55v-.38c0-.51-.03-1.02-.06-1.53-.01-.2-.02-.4-.02-.59l.16-.14c.37-.33.71-.66 1.01-1.05l.12-.17c.07-.11.14-.23.2-.35.04-.09.07-.18.1-.27.02-.1.04-.19.05-.29v-.34h-.3a2.972 2.972 0 00.64-.84l.09-.21c.05-.15.08-.29.11-.45.02-.22.02-.44.02-.66-.18.1-.36.22-.54.31.08-.11.17-.23.26-.34l.11-.28.08-.23.06-.22.04-.21.02-.19v-.18l-.03-.17-.04-.15-.06-.14-.08-.12-.09-.11-.1-.09-.11-.07-.12-.06-.12-.04-.13-.02h-.38l-.12.04-.12.04-.11.05-.1.07-.1.08-.09.09-.07.1-.06.12-.04.13v.24a.333.333 0 01-.19-.11c-.07-.1-.09-.21-.12-.32-.02-.1-.05-.2-.08-.3l-.09-.14-.16-.2-.17-.16-.18-.12-.19-.08-.19-.04c-.1 0-.19-.01-.28 0l-.18.02c-.28.05-.55.14-.83.21-.13.03-.25.06-.38.06l-.19-.08-.22-.11-.21-.11-.2-.12-.18-.13-.17-.13-.16-.13-.15-.14-.14-.14-.13-.15-.12-.15-.11-.16-.1-.16-.09-.17-.08-.17-.13-.36-.1-.37-.07-.38c-.03-.2-.05-.4-.06-.6v-.41c0-.32 0-.64.03-.97.28.26.58.5.87.74l.38.29.38.28.39.26.39.24.39.22.4.21.4.19.4.17.4.15.41.13.41.11.41.08.41.06.41.04h.83l.42-.03.42-.06.42-.09.42-.11.42-.14.42-.17.42-.19.42-.22.41-.25.41-.28.41-.31.41-.34.35-.31c.17-.01.34.02.51.05.18.03.35.07.53.11.34.07.67.14 1.01.17.14 0 .28.01.43.01.17 0 .34-.03.51-.06v-.34c-.08-.17-.19-.32-.3-.47-.41-.54-.86-1.05-1.3-1.57v-.3l.02-.11.03-.1.04-.1.05-.1c.07-.1.14-.19.22-.29l.19-.19c.31-.28.64-.53.95-.8.12-.11.24-.23.36-.35l.22-.26.1-.14.09-.15.08-.16.07-.17.06-.17.04-.18.08-.55-.37.11c.08-.12.15-.26.22-.39.17-.36.31-.74.37-1.13.02-.18.02-.36.02-.54l-.45.18c.19-.35.36-.7.5-1.08.05-.13.09-.26.13-.39.05-.19.09-.37.11-.56.03-.27.02-.54.03-.81-.24.18-.47.37-.72.54.09-.25.19-.5.28-.75.06-.18.11-.37.15-.55.04-.2.06-.39.07-.59v-.32c-.01-.16-.04-.32-.06-.48l-.21-.06h-.09l-.13.02c.08-.14.16-.27.23-.41l.02-.39v-.32l-.03-.29-.05-.26-.07-.24-.09-.21-.11-.19-.12-.16-.14-.14-.15-.11-.16-.09-.16-.06-.16-.04-.16-.02h-.16l-.16.02-.15.04-.14.06-.13.07-.12.09-.11.1-.09.12-.02.05c-1.32-2.78-2.64-5.56-4.03-8.31-.17-.42-.34-.85-.5-1.28-.14-.38-.27-.75-.39-1.14-.09-.31-.18-.61-.26-.92l-.14-.61-.05-.3-.04-.28-.02-.27v-.49l.02-.21.04-.19.06-.16.07-.13.09-.1.11-.08.13-.06.17-.03h.21l.25.03.08.02-.05.19-.04.23v.26l.05.13.07.13.1.12.13.1.16.08.18.07.21.05.28.05.34-.07.28-.09.25-.12.22-.14.19-.16.16-.17c.07-.09.13-.18.19-.28l.1-.2c.04-.1.07-.2.1-.31.02-.1.04-.2.05-.31 0-.1.01-.2.01-.3 0-.1-.02-.19-.03-.29-.05-.23-.12-.45-.19-.67-.04-.11-.08-.21-.13-.32-.06-.12-.12-.23-.19-.34a5.7 5.7 0 00-.31-.38c-.01-.36-.02-.71-.11-1.06l-.05-.14c-.05-.12-.11-.22-.18-.33-.05-.06-.1-.13-.15-.19-.18-.19-.37-.35-.58-.5l.03-.78c0-.14.01-.27-.03-.4l-.03-.05-.09-.1c-.15-.04-.3-.07-.45-.1-.07-.01-.15-.03-.22-.04-.09-.35-.21-.69-.37-1.02l-.12-.2c-.06-.09-.12-.17-.19-.25-.07-.07-.13-.13-.2-.19-.07-.05-.14-.09-.21-.14-.15-.08-.31-.13-.47-.19-.1-.03-.21-.06-.3-.1a.797.797 0 01-.16-.35c-.04-.15-.07-.31-.11-.46-.04-.17-.09-.34-.15-.5l-.17-.24-.17-.2-.18-.18-.18-.16-.19-.14-.19-.12-.2-.1-.2-.08-.2-.06-.2-.04-.2-.03h-.57l-.18.04-.17.05-.16.06-.15.07-.14.09-.13.1-.11.11-.09.13-.07.14-.05.15-.03.16v.16l.03.17.06.17.08.17.11.16.14.16.19.18.16.06.12.04.12.03h.11l.11.02h.1l.1-.02c.08-.02.15-.04.22-.07-.04.87-.1 1.74-.15 2.62-.05.76-.09 1.52-.11 2.28-.02.58-.02 1.16-.02 1.74 0 .39.02.79.04 1.18l-.06-.05-.1-.06-.1-.05-.1-.04-.11-.02-.4-.03c-.06-.35-.11-.7-.24-1.02l-.07-.15c-.05-.07-.09-.13-.15-.19l-.12-.11c-.07-.05-.14-.08-.22-.12l-.17-.05c-.09-.02-.18-.04-.28-.05-.2-.02-.4-.03-.61-.03l-.17.06-.12.05-.11.06-.1.06-.08.07-.07.07c-.06.08-.1.15-.15.24-.04.09-.08.19-.12.28-.19-.15-.36-.31-.54-.48-.54-.54-1.04-1.11-1.56-1.66-.79-.84-1.63-1.67-2.68-2.19-.42-.2-.86-.35-1.28-.54-.07-.03-.14-.06-.2-.1l-.25-.39-.11-.2-.1-.2-.08-.19-.07-.19-.06-.18-.05-.17-.03-.16-.02-.16v-.41l.04-.12.04-.11.05-.09.05-.08.06-.07.07-.07.09-.06.1-.05.11-.04.12-.03.14-.02h.33l.19.03.2.04.22.06.23.07.24.09.27.11.16.06.15.04.14.03h.27l.13-.02.12-.04.11-.05.1-.07.09-.08.08-.09.07-.09.06-.1c.05-.1.1-.21.14-.32.11-.33.18-.67.27-1.01.05-.2.11-.39.22-.57.14-.13.27-.27.39-.41.12-.15.22-.3.32-.46.12-.21.22-.42.31-.64.12-.32.21-.65.29-.98l.16-.19.17-.24.13-.24.1-.23.06-.23.03-.23v-.22l-.04-.22-.06-.21-.09-.2-.11-.19-.13-.18-.14-.18-.16-.17-.17-.17-.18-.16c-.19-.16-.38-.31-.58-.46-.45-.34-.92-.67-1.36-1.02l-.32-.28-.14-.14-.12-.14-.11-.14-.12-.19-.25-.17c-.34-.21-.7-.39-1.07-.56-.46-.22-.92-.43-1.35-.7-.11-.08-.22-.15-.32-.24-.06-.06-.11-.12-.17-.18l-.09-.16-.13-.14-.23-.22-.24-.19-.25-.16-.25-.13c-.13-.05-.26-.1-.39-.14l-.26-.06c-.13-.03-.26-.04-.4-.06-.18-.02-.35-.02-.53-.02-.41 0-.82.03-1.22.05l-.02-.1-.05-.16-.07-.14-.09-.13-.1-.12-.12-.1-.13-.08-.14-.06-.15-.04h-.32l-.16.03-.16.06-.16.08-.06.04c-.11-.03-.22-.06-.34-.08L58.7.21h-.11l-.11.02-.11.03-.11.05-.1.06-.1.08-.09.09-.09.1-.08.11c-.22-.03-.43-.03-.64 0l-.14.03c-.07.02-.13.05-.2.08-.06.04-.11.07-.17.12-.07.07-.12.13-.18.21-.12.18-.2.37-.28.57-.09-.01-.18-.03-.27-.05l-.3-.09-.26.04v.25c0 .06.03.12.04.18.02.1.04.2.05.31-.57.18-1.1.43-1.63.7l-.44.24c-.22.13-.43.26-.64.4-.28.19-.55.38-.83.58-.27.2-.53.41-.79.62-.38.31-.74.64-1.1.97-.29.27-.57.54-.84.82l-.09.14c-.38.61-.67 1.26-1.05 1.87l-.15.23c-.08.11-.16.21-.24.31-.09.09-.17.18-.27.26l-.19.15-.21.12-.22.09-.23.06-.38.02-.38.05-.35.08-.32.12-.29.15-.26.18-.23.2-.21.23-.18.25-.16.26-.14.28-.12.29-.1.31-.09.32-.07.33-.06.33-.1.68c-.08.69-.14 1.39-.21 2.08l-.08.66c-.07.43-.15.87-.29 1.28-.62-1.59-1.33-3.14-2.01-4.71l.11-.05.22-.14-.1-.28c-.19-.47-.43-.91-.67-1.35-.2-.37-.41-.73-.62-1.1-.28-.5-.56-1-.79-1.53-.06-.15-.14-.32-.1-.48.03-.08.09-.16.13-.23l-.29-.4c-.43-.6-.84-1.2-1.23-1.83-.28-.46-.55-.93-.8-1.41-.04-.08-.02-.19 0-.28.01-.11.01-.22.01-.33-.32-.14-.64-.29-.96-.44-.73-.35-1.47-.71-2.21-1.04-.43-.19-.86-.38-1.3-.56l-.91-.35-.46-.16-.46-.15-.46-.14-.46-.13-.46-.11-.46-.09-.45-.07-.45-.05-.44-.02h-.43l-.42.04-.4.07-.39.1-.37.14-.35.17-.33.22-.3.26-.22.24c-.32.08-.63.16-.94.24-.43.12-.84.25-1.25.41-.22.09-.43.19-.64.29l-.15.15-.11.13-.2.27-.08.14-.07.14-.06.15-.05.15-.05.15-.04.15-.03.15-.02.15V5l.06.3.09.3.13.29.16.28.2.27.23.25.26.24.3.22.43.27.07-.29.04-.06c.03-.24.06-.48.14-.71.16 0 .32 0 .48.01l.29.04.45.09c.15.04.31.09.46.14l.45.18c.15.07.29.14.43.22.14.08.26.17.39.26l.24.19.21.21.18.22.15.23.11.23.07.33.07.36.06.37.05.38.04.38.03.39.02.39v.8l-.02.4-.03.4-.05.4-.06.39-.07.39-.09.38-.1.38-.12.37-.13.36-.15.35-.17.34-.18.32-.2.31-.22.29-.24.27-.25.26-.27.24-.29.22-.31.19-.33.17-.36.15-.33.11c.31-.53.62-1.06.9-1.6.16-.33.32-.66.46-.99.07-.17.13-.34.19-.51.06-.17.11-.35.15-.52.04-.18.08-.36.11-.54.03-.18.05-.37.06-.55v-.39l-.07-.51-.11-.46-.14-.43-.17-.39-.19-.36-.22-.33-.24-.29-.27-.26-.29-.23-.31-.2-.32-.17-.34-.14-.35-.12-.36-.09-.37-.07-.38-.05-.39-.02h-.79l-.4.04-.4.05-.4.06-.4.08-.4.09-.4.1-.39.11-.38.12-.38.13-.73.28-.69.31-.75.43-.73.46-.71.48-.69.51-.67.53-.65.56-.63.58-.61.6-.59.62-.57.64-.54.66-.52.68-.5.69-.48.71-.46.73-.44.74-.42.75-.4.76-.38.78-.36.79-.34.8-.32.8-.3.81-.28.82-.26.82-.24.83-.21.83-.19.83-.17.84-.15.84-.13.84-.11.84-.08 1.05-.04 1.04v1.03l.05 1.02.08 1.01.11 1.01.15 1 .18.99.21.99.23.98.26.98.28.98.3.98.32.97.34.97.35.97.37.97.38.98.78 1.96c.67 1.66 1.35 3.32 2.01 4.99l.78 2.05.38 1.04.37 1.05.36 1.06.34 1.07.33 1.08c.08.33.16.67.23 1 .06.28.13.56.21.84.1.36.21.71.35 1.06.07.18.16.35.24.52l.53-.27.29-.19.26-.2.24-.22.21-.24.19-.25.17-.27.15-.28.13-.29.11-.3.09-.31c.05-.21.1-.43.13-.65l.01-.14zm22.31-5.29l.16.1c.39.23.78.45 1.19.64 0 .09.02.18.04.26l.24 1.01a31.61 31.61 0 00-1.62-2.01h-.01zm2.42 1.24c.76.33 1.53.6 2.32.85.66.2 1.32.38 2 .54v2.98c-.12-.12-.24-.25-.37-.36-.16-.13-.33-.23-.51-.34v.15c-.38-.59-.75-1.17-1.22-1.68-.15-.16-.31-.32-.47-.47l-.11.49c-.01.06-.02.13-.02.19-.19-.36-.39-.71-.6-1.05-.09-.14-.18-.27-.27-.41-.22-.31-.46-.61-.72-.88l-.03-.01zM63.6 77.24c-.41-.36-.27-1.47-.35-1.79-.57-.87-2.77-.03-3.21-.43 1.65-1.76 3.21-3.32 4.36-5.44.65-.47 2.34-.81 2.6-1.77-.13-.01-.24-.05-.37-.05v-.12c.68-.32 1.24-.66 1.68-1.35-.22-.02-.39-.05-.59-.07.79-.75 1.7-1.11 1.17-2.48-.8-.61-1.24-.28-1.24.64-.02 0-.05.01-.05.06-.98-.66.31-1.77-1.68-2.3-.9-.6-1.11-1.51-1.42-2.29 1.19 0 4.76 1.7 5.31 3 .34 3.06 1 5.76-2.65 6.63-2.22 0-2.38-.3-2.99 1.74-.59.43-.67.59-.3 1.28.03.38-.06 1.1.59 1.32.15-.22.27-.42.42-.6.61 0 .45.86.81 1.48h.41c.15-.28.31-.56.47-.8.51 0 .43.56.62 1.15h.39c-.28.4-3.38 2.2-4 2.2l.02-.01zM51.05 60.49l-.05.17c-.2.58-.49 1.12-.7 1.7-.1 0-.21.01-.31.01-.03.1-.07.21-.1.32-.03.13-.05.26-.09.38l-.26-.11c-.07.15-.13.29-.19.45-.04.14-.07.27-.08.41l-.24-.05-.15.31c-.04.11-.08.22-.11.34-.02.05-.04.12-.09.15-.06.03-.15.04-.22.05l-.12.27c-.04.11-.07.22-.09.34l-.1.72c-.03.18-.07.36-.19.49-.06.05-.12.07-.19.1l-.23.02-.15.17-.15.21c-.27 0-.54 0-.81.08a1.01 1.01 0 00-.41.28c-.1-1.58-.02-3.17 0-4.75.54-.15 1.07-.32 1.6-.5.34-.12.67-.25 1.01-.38.33-.13.65-.27.97-.41l.63-.3c.29-.14.57-.29.85-.45l-.03-.02zm.22-.13c.35-.2.69-.42 1.02-.64l.57-.4.56-.42.55-.45.55-.48c.24-.22.48-.44.71-.67l.03.2.08.34.11.32.13.31.16.29.17.28.19.27.29.36c-.12 0-.25.02-.37.03-.27.04-.54.1-.8.14l-.72.12-.14.11c-.06.06-.11.13-.16.2-.17.3-.25.64-.33.98-.05.19-.09.39-.16.58h-.09c-.02-.38-.05-.77-.06-1.15v-.51h-.45c-.62.02-1.24.08-1.85.18l.01.01zm5.85.09c.2.19.39.39.59.58.24.24.47.47.7.72l.22.25.21.26.19.26.18.28.16.29.14.3.12.31.1.33.08.35.05.37.02.39v.42l-.05.44-.08.46-.07.24-.08.23-.09.22-.09.21-.1.2-.11.19-.12.18-.12.16-.13.15-.14.14-.14.13-.15.12-.15.11-.16.1-.17.09-.17.08-.18.07-.18.06-.19.05-.19.04-.2.04-.2.03-.41.03h-.43l-.44-.06-.45-.08-.49-.12h-.5c.11-.09.19-.21.28-.32l-.04-.07c.16-.08.32-.16.46-.26l.12-.1.05-.06.14-.21-.09-.09c.06-.03.12-.05.18-.08.09-.04.17-.09.25-.15l.06-.06.05-.07.09-.2-.08-.1c.16-.08.33-.13.49-.19l.08-.03.18-.1v-.11l.07-.1-.13-.17c.15-.08.3-.17.47-.23.11-.04.22-.06.33-.09v-.3c.17-.17.35-.33.54-.48.09-.06.19-.12.28-.18l-.06-.67c-.02-.24-.03-.47-.06-.7-.03-.24-.06-.49-.17-.71l-.09-.15h-.76c.21-.15.43-.29.64-.44l.16-.12-.15-1.11c-.04-.32-.07-.63-.12-.95l.05-.02zm-4.24 8.99c-.18.22-.28.5-.39.76-.06.05-.13.09-.19.12l-.32.22-.06.07-.05.08-.04.09-.03.1v.15c-.12-.17-.26-.32-.4-.46.13-.16.25-.33.37-.5.15-.21.3-.43.48-.62.21 0 .42.01.62 0l.01-.01zm.05 3.71c.06-.14.13-.27.2-.4.01.09.02.18.04.27.02.14.04.28.07.42-.1-.1-.2-.2-.31-.29zm1.01.97l.07-.02.11-.05c.09-.06.17-.11.25-.19.14.26.3.51.44.76-.09.02-.19.03-.28.04-.2-.18-.39-.37-.58-.56l-.01.02z" fill="#0B5D7A"/><path fill-rule="evenodd" clip-rule="evenodd" d="M35.47 41.89V31.52h16.31v10.55c0 4.63-3.78 7.26-8 8.52-4.17-1.2-8.31-4.94-8.31-8.7z" fill="#fff"/><path fill-rule="evenodd" clip-rule="evenodd" d="M43.14 61.87c-4.04-.26-7.1-1.77-10.12-4.25-5.46-5.02-6.74-10.33-6.86-17.31h8.79V41h-7.97c-.13 6.53 2.84 13.1 6.35 15.89 3.95 3.21 7.76 4.12 9.61 4.06V50.88l.55.17v10.82h-.35zm.82 0V51.09l.38-.12c.08-.03.17-.06.25-.08v10.06c2.71-.21 5.63-1.78 7.94-3.29 2.43-1.83 4.01-3.84 5.57-6.45 1.56-3.41 2.37-6.72 2.24-10.31-2.63-.01-5.28-.01-7.92-.01-.05-.21-.05-.43-.05-.64h8.75c.06 4.87-.57 9.79-3.74 13.73-3.1 3.85-8.12 7.83-13.09 7.88h-.35l.02.01z" fill="#fff"/><path fill-rule="evenodd" clip-rule="evenodd" d="M43.78 49.82c-4.32-1.46-7.72-4.47-7.72-8.91 1.11 0 1.87-.01 2.84-.6.05 0-.08-.01-.03-.01.96.89 2.2.76 3.34.01 1.47.87 1.63.81 3.26 0 1.17.81 1.87.81 3.24 0 .68.31 1.41.42 2.34.57 0 4.84-2.94 7.75-7.27 8.95v-.01zm-3.37-3.93l1.79-.47c.69.36.95.47 1.57.49.54.03 1.05-.23 1.69-.49 0 0 .79.47 1.74.49.45 0 .98-.35 1.48-.49.06 0 0-.39.02-.57-.39.27-.86.6-1.5.57-.47 0-1.01-.28-1.74-.56-.6.43-1.11.56-1.69.56-.37 0-1.57-.13-1.57-.56 0 .23-.93.56-1.79.56s-1.55-.5-1.52-.56v.56c.64.49 1.52.4 1.52.47zm-1.52-2.43c.59-.06.95-.15 1.52-.54.71.21 1.3.5 1.79.54.86.01 1.37-.34 1.57-.54.65 0 .97.54 1.69.54.54 0 1.01-.07 1.74-.54.5.47 1.5.54 1.5.54-.02 0 .91-.22 1.43-.54v-.5s-.85.5-1.46.5c-.73.06-.98-.16-1.48-.5-.64.32-1.16.49-1.74.5-.6.06-1.19-.1-1.69-.5-.07 0-1.09.5-1.57.5-.59.05-1.15-.2-1.79-.5-.59.23-1.05.46-1.52.5-.43.06-.87-.06-1.4-.5-.12 0-.12.5-.12.5.41.28 1.32.49 1.52.54h.01zm-.91-3.19c.19-.45.65-.59 1.13-.83v-.03c-.49-.31-.88-.87-1.18-.93-.56.43-1.31.9-1.87 1.2v-7.43h14.99v6.71c-1.71.28-4.72-.62-5.76-1.96-.91-.16-1.45-.59-2.15-.42-1.59 1.71-3.07 2.59-5.15 3.68l-.01.01zm3.98-1.63c.39-.09 1.1-.75 1.71-.94-.05.17-.29.41-.29.66.3 0 .6-.38 1.22-.38 0-.08 0-.16.02-.27-.67-.1-1.06-.27-1.22-.84-.58.57-1.24 1.02-1.45 1.77h.01zm.13-2.11c.42-.01.72-.1 1.19-.23.5.01 3.14.61 3.14-.62h-5.68c.16.68.54.8 1.35.86v-.01zm.17-5.53l.02-7.39h-6.09c.25.11.47.27.7.45l.38.32-.1.31v.69l-.43-.09a.58.58 0 01-.11.24c.29.21.55.53.65.88h.24c.07.17.14.33.21.5.13.28.24.56.33.86l.08.3c.19.03.38.05.57.06.27-.3.55-.57.93-.69l.21-.03c.14 0 .23.02.36.06l.22.13c.09.09.16.17.23.28l.23.45-.51.44-.43.31-.44.24c-.22.1-.44.18-.68.25-.41.11-.81.18-1.23.21l-.11.22c-.24.41-.59.75-.99.99h5.76V31zm-7.47-7.39h-7.48v2.56l.14-.06.28-.06h.28c.14.04.25.08.37.14.11.07.2.14.3.22.2.2.37.43.49.69l.45-.32-.49-.51 1.4-1.22.35.53.35-.43 1.33 1.41-.48.41.47.35-.22.21c.21.07.42.22.52.42-.03-.6-.09-1.19-.03-1.79.04-.3.1-.58.21-.86.09-.22.2-.41.33-.61.14-.19.28-.35.43-.52.23-.14.46-.29.7-.42.1-.05.19-.1.28-.14h.02zm-7.48 4.22c.09.06.19.1.3.15l.39.15c.16.26.09.58.03.85-.15.59-.38 1.15-.57 1.73-.06.21-.11.41-.16.62v-3.51l.01.01zm0 4.56v5.99h7.64v-5.66c-.05.11-.1.21-.18.32-.46.6-1.09 1.02-1.74 1.38-.36.19-.72.37-1.09.51l-.84.29-.03 1.27-.1.38c-.08.18-.16.33-.27.49-.1.12-.2.21-.32.31-.13.09-.26.17-.41.24-.16.07-.32.12-.49.17l-.84.2c.01-.36 0-.71.06-1.07.04-.2.1-.36.19-.55.12-.21.25-.39.4-.58.12-.15.25-.3.24-.51-.18-.18-.31-.37-.42-.6l-.06-.16-.03-.16v-.16l.03-.3c.06-.17.12-.31.22-.47.1-.15.2-.28.31-.42-.29.15-.56.22-.89.24h-.29l-.32-.17-.21-.15-.18-.17-.15-.19-.12-.21-.08-.22v-.05l-.03.01zm7.64-.62v-.76h.12a.61.61 0 01-.15-.39c-.3.19-.61.37-.94.53-.01.22-.04.42-.11.63l.06-.14c.25 0 .49-.02.73.05l.28.09.01-.01zm-3.5-2.69c-.42.35-.82.71-1.2 1.1-.13.14-.25.28-.37.42-.35.44-.65.89-.89 1.41-.02.02-.05.04-.07.06-.03 0-.19.02-.22-.01-.05-.1-.05-.24-.04-.35.05-.63.27-1.25.48-1.84.16-.42.34-.85.44-1.29v-.16c-.05-.32-.12-.62-.23-.92l.97 1.04.36-.38.33.58.15-.14c.03.17.15.37.29.47v.01z" fill="#0B5D7A"/><path fill-rule="evenodd" clip-rule="evenodd" d="M26.16 39.67v-17.3h17.23V31h-.6l.02-7.92H26.78V38.9h8.17v.77h-8.79z" fill="#fff"/><path fill-rule="evenodd" clip-rule="evenodd" d="M52.31 38.37h7.55v-1.7h-.59l-.17.04c-.29-.14-.55-.27-.78-.49h-.17l-.23.16c-.2-.17-.4-.33-.58-.51-.08-.09-.16-.19-.23-.29-.21-.33-.33-.66-.4-1.04-.07-.43-.07-.84-.06-1.27h-.11l-.2-.28c.04.37-.12.64-.39.87l-.57.42c-.16-.35-.32-.69-.46-1.04-.07-.17-.14-.4-.3-.49-.15-.07-.32-.11-.48-.16v-.42l-.66.39c-.21-.31-.5-.65-.54-1.04l-.14.04c-.18-.02-.32-.04-.48-.11v6.92h-.01zm7.55-1.85l-.09-.65c-.04-.37-.06-.73-.06-1.11.01-.61.08-1.21.15-1.81v3.57zm0-7.44V23.6h-5.37l.04.02.23.13c.33.23.59.51.78.86.18-.11.34-.21.54-.26.17-.04.33-.03.5-.03l.12.11.13-.02h.13l.24.08c.1.06.18.11.27.19.28.3.42.68.49 1.08.36 0 .66.11.94.35.16.16.26.33.35.54.06.16.09.31.12.47l-.02.14c.1.26.09.53.1.81l-.34.11-.12.08.19.11c.3.2.5.42.68.71zM46.99 23.6h-1.86v7.39h6.83c0-.2.02-.39.06-.59-.26-.08-.48-.17-.67-.38l-.73-.77.42-.05-.3-.33c-.15-.18-.28-.39-.49-.51-.18-.1-.38-.17-.57-.24 0-.14 0-.28-.01-.41-.01-.12-.01-.23-.01-.35l.26-.22.12-.06c.11-.03.19-.05.31-.05.18.01.35.05.53.11-.12-.1-.22-.22-.31-.35-.31 0-.62-.04-.93-.09-.45-.07-.86-.19-1.26-.41-.18-.11-.33-.22-.48-.37-.07-.08-.14-.16-.2-.25l-.68-1.06.32.05c-.06-.13-.11-.27-.15-.41-.06-.22-.11-.43-.17-.65h-.03z" fill="#0B5D7A"/><path fill-rule="evenodd" clip-rule="evenodd" d="M52.36 39.67v-.77h8.02V23.09H44.59v7.9h-.63v-8.62h17.17l.01 17.3h-8.78zM35.19 83.53s-.06-.06-.07-.06c-.02-.06-.02-.12-.02-.14.46-.39 3.15-2.89 3.56-2.89.03.09.05.19.09.3.09.19-3.08 2.71-3.56 2.79zm8.66 0c-.73-.06-1.09-.5-1.26-.63l1.26-1.16c.12-.02 1.03.61 1.45 1.03-.37.74-.86.69-1.45.75v.01zm-9.59-.54c.35-.13 3.78-3.09 4.11-3.22-.05-.31-.08-.24-.18-.35-1.35 1.09-2.73 2.18-4.06 3.31 0 0-.06.08.14.25l-.01.01zm21.11 0c-3.6-2.25-6.41-4.73-9.3-7.38 0-.07 0-.13.01-.15.65.06 2.23 1.71 2.86 2.3 2.04 1.78 4.64 3.3 7.01 4.98-.17.21-.43.25-.58.25zm-21.9-.8c.47.12 4.04-3.17 4.21-3.27-1.09-.03-3.01 2.23-4.28 2.92.05.07 0 .2.07.36v-.01zm9.65-.37l.73-.53.75.53v-6.28h-1.48v6.28zm-10.05-.72c.53-.28 3-2.24 3.45-2.66-.43-.42-4.1 2.49-3.45 2.66zm6.02-.24s.15 0 .24-.12c0-.86-1.23-3.48-1.65-4.07-.82 0 1.12 3.69 1.41 4.19zm10.81-.32h.36v-.09c-1.78-.6-3.65-1.28-5.18-1.98-.08.12-.05.27-.05.51 1.15.75 3.26 1.4 4.87 1.56zm11.84-.12c-1.11-.12-1.16-.22-1.22-1.09-.09-.42-.29-1.02-.21-1.3 2.22 0 3.14-.12 5.36-1.31.37-.14 1.46-.93 1.66-1.03 0 .46-1.2 1.83-1.54 2.22.75 0 2.28-.51 3.16-.69 0 .1-.47.44-.58.53-2.01 1.21-4.28 2.66-6.63 2.66v.01zm-13.53-1.5c.51.13 2.87 1.62 3.22 1.6-1.27-1.18-1.85-1.48-3.23-1.7 0 .01.01.05.01.1zM26.16 80.2c-3.33-.36-5.74-1.74-8.08-3.85-.01-.03-.01-.07-.05-.1.53 0 2.92 1.56 3.39 1.34-.35-.57-1.11-1.63-.98-2.06 2.05 1.28 4.18 2.81 6.95 2.58.293-.08.47-.12.53-.12-.37 1.62.09 2.21-1.77 2.21h.01zm14.18-.52c-.46-.14-1.52-.42-1.44-.94.47.15 1.04.44 1.68.71-.01.08-.05.15-.05.23h-.2.01zm16.64-.12c.09 0 .31-.32.31-.32-.16-.3-1.19-1.13-2.48-2.35-.05-.08-.22-.2-.29-.3-.21-.31-.31-.71-.53-.71-.35 1.11 2.11 2.81 2.99 3.68zm-26.66-.1c-.06-.06-.16-.24-.2-.34.87-.82 1.82-1.65 2.73-2.5.34-.44.17-.75.72-.94.31 1.04-3.16 3.68-3.25 3.77v.01zm10.16-.28c.59-.14 1.63-1.23 2.28-1.67-.49-.35-2.05 1.18-2.37 1.46v.15s.03.03.09.06zm-1.11-.44c-.09-.05-.13-.08-.19-.12v-.08c.44-.39 2.11-1.88 2.53-1.77-.39.36-1.96 1.97-2.35 1.97h.01zm-1.69-.08c-.53-.12-1.1-.41-1.5-.56v-.21c.21-.2 1.52.14 1.77.76h-.27v.01zm10.76 0h.28s.03-.03-3.65-1.97c-.03 0-.05.03-.05.05.1.93 2.38 1.7 3.41 1.92h.01zm2.22-.05s.03-.03.05-.03c-.39-1.11-.8-2.15-1.27-3.1h-.34c.25.83.96 2.16 1.56 3.14v-.01zm7.61-.42c.1-.14.24-.24.25-.3-.88-.72-2.77-3.33-3.89-2.66.21.24.16.3.64.31.97.69 1.92 1.78 3 2.65zm-29.13-.05l-.23-.23c.43-.44 2.97-3.6 4.05-2.81-.1.1-.23.19-.29.29-1.34.15-2.79 2.75-3.53 2.75zm9.49-.05c-.16 0-.1-.15-.12-.35.45-.41 2.55-2.56 3.18-2.23-.64.59-2.43 1.99-3.07 2.58h.01zm-6.05-.15c.15-.49 1.41-1.1 1.35-2.34 1.64-.01 3.3-.01 4.98-.01-.21.24-.47.5-.88.82-.36.08-.67.08-.8.24 0 .43.21.28-.3.68-.2.17-.51.17-.87.25-.15.15-.2.31-.32.35-1.05-.01-2.12 0-3.16 0v.01zm18.16.07c1.37-.03 2.72-.03 4.06-.03.17-.37-1.63-1-.97-2.34-1.3-.03-2.61-.03-3.89-.03-.1.19.61 1.85.8 2.41v-.01zm5.49 0h1.47s-2.34-2.11-2.34-2.14c.09.46-.32.67-.64.65.007.04.507.537 1.5 1.49h.01zm-27.98-.07c.38-.03 2.12-2 2.58-2.34-.9 0-5.01-.29-5.25.23.12.89 1.37.54 2.36.65.91.39.31.59.31 1.46zm30.83.03c.27-.03.54-.03.8-.03-.3-2.97.89-1.07 2.81-1.99.1-.28-.25-.49-.88-.51-1.61-.03-5.21.02-5.29.07.71.72 1.63 1.78 2.56 2.46zm-29.02-.03c0-.34 1.64-1.68 2.07-2.07.13.3.13.36.56.5-.43.67-1.17 1.15-1.82 1.64-.2.13-.45-.07-.81-.07zm19.45 0h.2c-.17-.49-.62-1.01-.83-1.26-.06.3.12 1.07.64 1.26h-.01zm-23.74-.17c.72 0 1.41.1 2.2-.3.28-1.09-1.18-.56-1.7-.53-.41-.09-.76-.31-.93-.31-.07.36-.13.67-.17 1.01.17.02.4.08.6.14v-.01zm35.37-.02c.67-.07 1.22-.14 1.94-.41-.08-.34-.14-.66-.21-.96-.01 0-1.09.24-1.25.24-1.75-.29-2.22.98-.49 1.12l.01.01zm-13.51-.35s.03-.06.03-.09c-.93-.81-1.6-1.13-2.59-1.55-.03 0-.05 0-.05.01v.14c.88.47 1.74.97 2.6 1.49h.01zm.81-.6l.25.28h.09c-.16-.69-.39-1.61-.94-1.61.05.14.43 1.19.59 1.33h.01zm-10.24.24c-.42-.43 1.26-1.57 1.87-1.57v.06c-.3.24-1.55 1.52-1.87 1.52v-.01zm16.66-.71c.1 0 .21-.19.27-.19-.17-.13-3.45-3.41-4.5-4.36-.13-.15-.21-.09-.25-.09-.07.07-.06.15.13.38.97 1.09 4.32 4.19 4.36 4.26h-.01zm-22.31-.24s.16-.07.36-.18c.96-.71 3.36-2.81 4.17-3.82.23-.27.21-.27.14-.32-.07-.12-.28-.13-.47.02-.9.76-3.49 3.33-4.19 3.97 0 .03-.14.2 0 .34l-.01-.01zm18.01-1c-.14 0-.1-1.99-.1-2 .21 0 .43-.05.58.07.59.49 1.45 1.31 2.07 1.93 0 0-2.48.02-2.55 0zm5.31 0c-.59-1.12 1.15-.91 1.78-.4.3.12.63.23.95.35-.93 0-1.84.03-2.73.06v-.01zm-21.5-.08c.1-.15 2.06-1.74 2.28-2.03 1.13.34.72.66.8 2.05-1.06 0-2-.02-3.08-.02zm3.58.06v-1.74l1.33.58h9.4l1.27-.59v1.75h-12zm29.46-.38c-.17-.3-.13-.45-.1-.66.15 0 .46-.02.69.22-.07.16-.45.47-.59.44zm-12.13-.13c-.36-.5-.48-.89-.3-1.31.42.17.65.34.72.53.05.19 0 .39-.3.78h-.12zm4.12 0c-1.28-.12-2.06-.89-3.04-.65-.4-.32-1.22-.87-1.32-1.16.52-.27.36-.9 1.23-1.17.54 0 2.34.31 1.68 1.5.28 0 .49-.47.6-.71 1.71-.43 2.99-.81 4.17-2.27.86-1.39 2.75-4.61 2.31-6.2.25 0 .5.01.76.05.02-.03.03-.05.06-.09-1.85-.28-2.97-3.1-3.62-4.44.22-2.15.52-4.09-.05-5.99 0-1.25 3.88-2.86 4.57-3.39 1.24-.88 3.46-3.18 1.5-4.4.32-1.18.32-1.66-.42-2.52.03-.73-.02-1.24-.1-1.79.34-.38.47-.72.91-.87 1.45 3.02 1.88 6.67 3.43 9.95 2.13 3.55 5.47 5.18 9.15 2.25.22 0 1.31.57 1.47.95-3.03 3.02-7.08 2.94-10.31.44-1.2-1.12-1.91-2.12-2.67-3.39-5.72.95-7.24 5.95-4.98 10.95.22.3.47.61.73.91.96.08 1.68.53 1.31 1.77-.45.84-3.81 7.57-4.63 7.85 0-.08-.02-.21-.02-.28-.01-.01-.08-.03-.08-.06-.65 1.03-1.33 2.51-2.64 2.77v-.01zm6.48-.15h.1c.17-.23.34-.5.34-.76-.28-.22-.5-.31-.65-.37-.02 0-.06 0-.06.05.03.27.1.67.27 1.09v-.01zm-42.76-.23c-1.69-2.97-.54-8.01-.19-11.04.727-4.92 1.1-7.413 1.12-7.48.13.37.3.74.45 1.06-.07 1.93-1.91 8.4-.56 10.14 1.04 0 1.57-8.68 1.62-9.23.16-.31.32-.64.56-.8-.1 4.81-.2 9.94-1.37 14.76 0-.07-.98 2.62-1.64 2.59h.01zm5.13-.15s.09-.02.13-.02c2.58-4.43 1.03-12.74.65-17.17h-.07c-.17.21-.32.38-.46.6-.85 2.47 1.43 7.21-.32 9.81-1.62 0-1.1-9.55-1.1-9.78-.26-.607-.417-.94-.47-1-.18.96-.16 2.35-.19 3.55-.29 4.48-1.61 10.28 1.84 14l-.01.01zm40.05-.12c1.1.2 1.41-.19 2.39-.79 2.27.09 2.65-1.76 3.23-3.48.07.06.16.15.23.25.54.13 1.02-.52 1.13-.97.26-1.17-.03-2.23-.03-2.89 0-2.08-.03-4.25-.03-6.36-.35-1.18-1.18-.66-1.72-.3-3.82-1.03-3.78-4.71-3.48-7.67-.51-.75-.93-.27-1.31.02-.77 3.88 1.34 6.36 4.29 8.69.78.03 1.04.15 1.27 1.1.58 3.83-.07 8.73-4.44 10.35-.02.05-.05.16-.05.22-1.41-.96-2.97-.72-2.97 1.25.227.093.723.29 1.49.59v-.01zm-21.54-.23c.09 0 .23-.03.38-.03-.25-.88-1.08-2.08-1.52-2.79h-.12c.06.72.47 2.49 1.25 2.82h.01zm7.08-.04c-.34-.37-.28-.77-.27-1.04.36-.16.67.07.81.34.06.27-.17.42-.54.71v-.01zm-13.99-.06c.32-.03.61-.03.95-.03 0-.05.01-.05.01-.06-.72-.45-1.35-.95-1.91-1.38-.37.03-.93.49-.93.89.54.2 1.17.5 1.87.58h.01zm1.39-.1c.21-.03.62 0 .62-.08-.62-.42-2.3-1.58-2.72-1.65-.12.32 1.75 1.48 2.09 1.74l.01-.01zm6.49-.09l.81-.07c0-.62-1.35-2.44-1.55-2.83-.12-.08-.18-.13-.34 0-.05.14.56 2.59 1.08 2.9zm-5.46.15l1.27-.05v-4.28l-1.27.02v4.31zm1.75-.06l1.25.06.02-4.33-1.27.02v4.25zm20.3-.07h.09c.14-.19.3-.5.3-.67-.3-.19-.47-.25-.6-.25-.01.28 0 .54.21.93v-.01zm-15.38-.1c1.19 0 .76-.69.04-.99-.5.31-.38.5-.04.99zM66.43 73s.06-.02.1-.02c.88-2.44 1.15-1.46 3.73-1.68 3.65-1.19 4.39-7.02 3.73-10.14-1.09-1.39-1.82.09-1.94 1.23.42 1.56 1.99 6.42-.82 6.81-.87.37-2.67 2.11-3.55 1.59-.38-.12-.8-.16-1.12-.16-1.31.31-.78.62-.78 1.61-.15.06-.27.1-.42.21.1.34.5.38 1.08.57l-.01-.02zm-29.06-.16a5.01 5.01 0 01-.52-.07c-.02-.08-.02-.15-.02-.17.03-.06.12-.12.2-.15 1.34 0 2.9-2.75 4-3.19.16-.06.3-.01.47.06-.82.76-3.32 3.38-4.13 3.53v-.01zm-4.55-.02c-1.86-1.99-2.22-3.03-2.66-5.6-.19-3.6-.46-7.14-.81-10.58 0-.09.03-.13.03-.17.21.31.38.59.69 1 .47 1.44.22 8.02 1.77 9.03.65-1.68.12-4.17 0-5.73-.13-1.1-.66-3.16-.5-4.04.15.1.28.15.37.27.68 5.08 2.43 10.6 1.2 15.81-.03 0-.06 0-.1.02l.01-.01zm17.19-.05c-.82-.54-3.68-3.21-3.77-3.68 1.12.1 2.68 2.26 3.99 3.26.16.02.2-.02.47.14v.2c-.24.08-.49.08-.69.08zm4.64-.1c-.5-.38-1.06-.65-1.06-1.09.24-.22.49-.01.82-.23-.01-.24-.08-.45-.08-.65.78-.81 1.3-.16 2.05.32.06-.09.07-.17.12-.27 1.9 0 4.58.23 5.62-1.93.16-.81.2-1.18.29-2.33.08-1.1.31-2.88 2.07-2.86 1.43.74-1.54 5.46-2.14 6.47-2.07 1.7-3.25 1.74-5.52 1.17-1.13 0-1.25.18-1.74 1.17-.15.05-.3.22-.43.22v.01zm-35.69-.1c.06 0 .09 0 .15.03 3.39-4.58 3.78-11.28 4.51-16.63-.02-.12-.02-.24-.02-.38-1.59 2.33-.66 7.78-3.08 9.35-.9-2.77 1.22-6.61 1.49-9.26-.16-.44-.253-.743-.28-.91 0 0-.08.01-.13.06-.9 3.14-1.83 6.43-2.56 9.81-.41 2.6-1.08 5.25-.09 7.93h.01zm22.86.05c-1.54-.89-1.48-.84-1.97-1.16-.01-.09.1-.26.1-.33.32-.35 1.52.78 2.06 1.17 0 .2.04.28-.19.32zm10.84-.07c-.32-.31-.29-.84-.22-1.15.43 0 .66.21.66.45 0 .24-.17.69-.44.69v.01zm12.23-.21c.79-.29-.08-1.78 1.81-2.01 1.45 0 2.52-.36 3.98-1.01.35-.34-.17-.52-.17-.82.44.49 1.11.51 1.65-.21 1.5-2.59-1.84-5.79.49-7.81-.44-.39-.98-.75-1.46-1.17-2.65-2.72-3.12-3.77-2.86-7.44-.83-.22-2.34.97-2.81 1.56-.61 1-1.92 4.48-1.04 5.62 1.83.79 4 1.61 5.58 3.19.54 1.68.29 3.82.15 5.66-1.02 1.34-2.38 1.88-3.99 1.94-1.93-.53-1.08 1.54-2.14 1.91v.14c.16.17.45.29.82.44l-.01.01zM37.7 70.56c.31.31.5.61.96.54.07-.04.1-.16.12-.24-.24-.17-.51-.35-.72-.49-.13.02-.15.02-.37.18l.01.01zm-.29.26c.53.54 1.11.58.06 1.37-.08-.01-.13-.01-.2-.01.36-.57.23-.79-.37-.72 0-.18.19-.39.51-.64zm-1.24 1.23c.09-1.75 2.53-3.06 3.6-4.19.13-.05 1.55-.22 1.41.35h-.47c-.61-.61-3.95 2.66-4.34 3.81-.1.01-.17.01-.2.03zm13.84-.08c-.53-.36-.38-.94.16-1.06.1.12.28.22.39.32v.09h-.36c-.19.29-.19.17-.13.63-.06 0-.06 0-.07.02h.01zm1.25.08c-.3-.29-.23-.35-.28-.59-.98-.97-3.58-3.97-4.41-3.45-.08.06-.13.15-.18.21h-.32c0-.69.62-.74 1.17-.74.47.22 4.58 3.21 4.15 4.49-.03.05-.1.06-.13.08zm1.99-.47h.15c.49-.9.71-1.49 1.78-1.61 1.74.42 3.19 1.02 4.93.19-.13-.13-.78-.56-.46-.93.24.57.17.63 1.04.63 2.71-.87-.15-5.87 3.53-6.5 0-.05-.03-.09-.03-.15-1.24-1.22-1.83-2.41-2.3-3.73.19-2.1.76-5.12-.5-6.83 0-.03.06-.08.07-.13.17.05.24.27.65.27 1.88-2.26 5.82-2.49 6.64-5.6 0-.61-.1-1.18-.67-1.18-.31.36-.62.73-.94 1.1h-.07c.53-1.63 1.94-2.14.69-3.7-.1.05-.22.06-.31.12 0-.06 0-.07-.02-.07.24-.87.19-1.21.07-1.91-.32-.16-.91 1.14-.98 1.43-.09 1.62 1.09 2.19-.64 3.66 0 1.24-1.82 1.9-2.66 1.24.02-.07.02-.17.05-.25-.58.08-1.23.25-1.69.25-.01-.17-.01-.34-.01-.47-.32-.05-.43-.02-.59-.02-.87 3.17-1.72 4.94-3.99 7.64-1.42 1.3-1.26 1.52-.72 3.18 2.49 3.55 5.98 4.86 3.44 9.91-1.03 1.42-1.41 1.67-3.11 1.72-1.78-.08-3.17-1.09-3.73.89-.14.15-.57.1-.53.28.3.2.64.38.93.59l-.02-.02zm-3.91-.27c-.41-.15-.83-1.09-.91-1.33.64-.09.66.47 1.11 1.15-.05.16-.11.13-.2.18zm-7.73-.08c.09-.01.17-.01.27-.01.1-.25-1.06-.9-1.28-.81 0 .09 0 .15.05.23.24.14.6.23.97.59h-.01zm-2.65-.63c.09-.02.15-.02.25-.02.05-.07.05-.14.1-.23-.32-.33-.76-.67-1-.43v.22c.21.15.42.32.64.46h.01zm6.99.09c-.71-.71 1.71-1.38.14 0h-.14zm-6.26-.6c.1-.14.24-.23.36-.3l-.21-.19c-.11-.03-.44-.45-.87-.15.12.14.43.42.72.64zm2.07.4h.17c.21-.31-.24-.82-.32-.91-.22 0-.16 0-.24.16 0 .05 0 .09.02.15.05 0 .3.42.37.6zm6.91-.74s.05-.02.12-.02c-.45-.69-1.21-.94-1.81-1.03-.23.41 1.41.97 1.69 1.05zm2.27-.03c.25 0 1.2-.83.89-1.31-.49.21-.79.76-1.13 1.12 0 .01 0 .06.02.13.08 0 .14.05.22.06zm-.71-.13h.14c.58-.69 1.13-1.5 1.72-2.2h.37c.01-.16.06-.38.07-.54-.02-.02-.07-.02-.12-.02-.81.83-1.63 1.7-2.38 2.62 0 .01 0 .06.01.09.06 0 .13.01.18.06l.01-.01zm-12.76-.18s.14-.02.25-.16c-.23-.37-1.21-.83-1.46-.85.04.11.07.08 1.2 1.01h.01zm2.93-.02c.12 0 .15-.02.23-.12-.23-.27-.49-.69-.66-.69-.05.03-.14.16-.22.16.06.18.3.44.65.65zm9.23-.23c.28-.09 1.87-1.93 1.87-2.16-.52 0-2.08 1.53-2.08 2.01.06.05.12.09.21.15zm-33.93.01c-.35-.34-.32-1.75-.32-2 .53-5.11 2.58-9.79 4.46-14.47 0 0 .02.02.06.03.19 1.86-1.26 5.12-1.89 7-.17.72-.64 2.09-.24 2.94h.13c1.71-2.26 2.09-5.09 2.92-7.73.307-.313.48-.47.52-.47 0 .37-.28.89-.41 1.37-1.28 4.8-2.08 9.21-5.07 13.24-.08.05-.13.1-.15.09h-.01zm49.09-.23c.32.1 1.38-.59 1.62-.96 0 0-.05 0-.05-.04-.35-.07-.71-.14-1.03-.25-.07.13-.1.13-.1.29.16.06.58 0 .54.2-.58.23-.73.29-.98.76zM40.74 69l5.98-.06.02-.42h-6.02v.47l.02.01zm11.91-.06c-.1-.01-.16-.05-.22-.05v-.15c.16-.17.76-.45 1.08-.13-.27.27-.59.31-.86.32v.01zm-14.45-.19c.07-.03.14-.03.21-.03.02-.06.01-.05.07-.1-.51-.52-2.6-2.32-2.87-2.32.28.59 1.82 2.09 2.59 2.45zm10.79-.17c.45-.17 1.65-1.49 1.98-2-.06-.1-.06-.16-.06-.24-.42.47-2.55 1.85-1.92 2.24zm-10.12-.46s.2-.22.25-.22c-.29-.54-3.54-3.51-3.88-3.81.73 1.41 2.22 2.98 3.62 4.03h.01zm6.42.08c-.37-.02-.91 0-1.27 0-.02-1.9-.02-3.81-.02-5.67.44-.02.85-.08 1.3-.13v5.8h-.01zm-3.01 0c-.01-1.97-.01-3.87-.01-5.8.747.067 1.167.11 1.26.13v5.67h-1.25zm-.52-.26s.01-.02.06-.02c.01-.52-.46-1.81-.72-1.74 0 .54.28 1.12.66 1.76zm6.74.15c.47-.27 2.45-2.49 2.85-3.03.08-.01.16-.05.28-.05.09-.23.17-.43.17-.63-.17.01-.29.07-.44.12 0 .42-.28.54-.65.69.09.39-.29.5-.65.69 0 .03.01.14.06.21-.6.54-1.17 1.11-1.75 1.68.02.1.08.21.13.31v.01zm4.56-.21c-.36-.37-.27-.98.16-1.05.13.23.17.61 0 1.01-.06 0-.12.03-.16.05v-.01zm-42.71-.18c.27.29.65-5 .65-5.23-.35-2.53-.74-3.5-1.42-5.61-1.4-4.35-3.33-9.28-3.43-9.51-.23.3-.59.53-.59 1.02.72 1.77 1.41 3.54 2.13 5.3.95 3.04 3.15 7.68 2.78 11.06-.02-.04-.133-.51-.34-1.41-1.68-6.67-4.99-12.76-6.85-19.2-1.04-4.34-.97-8.08-.53-12.36 1.35-8.17 4.06-13.41 10.49-18.79.73-.02 1.47-.02 2.16-.03.53-.1 1.13-.51 1.65-.51.5 1.24 1.6 1.15 2.87 1.11.37.84.6.99 1.69 1.4-.17 2.15-.9 2.77-1.83 4.7 1.13.59 3.34-4.12 3.61-4.96.9-4.55-2.51-5.18-6.04-4.69-8.36 2.42-12.7 9.78-15.3 17.59-3.06 11.43.78 20.38 5.6 30.89.27.87.57 1.78.87 2.65.86 3.06 1.69 6.38 1.82 6.57l.01.01zm28.89-.14c-.66-1.16-1.92-4.23-2.36-5.78.58.04 2.65 4.95 2.71 5.69-.02 0-.3.09-.35.09zm1.38-.4c.06-.05.07-.05.13-.09-.31-.69-1.01-2.59-1.29-2.75-.18.61.53 2.14.95 2.81.07 0 .15 0 .21.03zm13.46.39c.19 0 .71-.05.8-.28-.34-.27-.88-.1-1.08.16.067.047.16.087.28.12zm11.49 0c.8 0 1.62-.31 2.22-.93-.6-.1-1.35-.1-1.84-.1-.01.07-.06.17-.06.31 1.79.19.07.02-.34.67v.05h.02zm-17.35-.1c-.3-.47.42-1.09.85-.75-.17.26-.54.75-.85.75zm-37.26-.22c0-.1-.13-.06-.13-.15 1.03-3.08.52-5.89-.51-9.37-1.19-4.06-3.07-7.95-3.96-11.11.07-.52.14-1.08.23-1.56.14-.12 3.94 10.74 4.62 12.93.36 1.75 1.65 7.73-.25 9.27v-.01zm43.19-.69h.18c.14-.38.08-.78-.06-1.02h-.2c-.16.25-.23.64.07 1.02h.01zm-5.04-.05c-.08-.02-.13-.07-.17-.07-.01-.06-.01-.1-.01-.15.27-.27.49-.32.93-.22 0 .06 0 .1.01.15-.22.22-.54.23-.75.29h-.01zm2.35.06c-.27-.39-.25-1.19.29-1.19.21.28.09 1.06-.29 1.19zm-2.4-.84c-.16-.54-.02-.73.08-1.05h.12c.12.16.29 1.18-.2 1.05zm6.18.39c.34 0 .56 0 1.04-.17v-.13c-.34-.23-.96-.05-1.13.13 0 .05-.09-.01.09.17zm11.3-.06c.89 0 1.54-.15 2.14-.91.83-1.85-1.45-1.69-.59-.74.07-.02.14-.02.23-.02-.09.51-1.28.42-1.48.42-.01.01-.01.03-.02.06 0 .08 0 .13.01.22.15.07.81.07 1.16.07-.36.73-1.64.16-1.64.9.03 0 .12.01.2.01l-.01-.01zm-13.89-.05c-.09-.02-.19-.06-.25-.07 0-.36.76-.47 1.09-.36 0 .02 0 .04.03.09-.25.25-.65.34-.87.34zm-14.92-.03c.07-.01.24-.15.27-.15-.39-1.22-3.51-5.82-4.24-5.82.6 1.05 2.94 5.03 3.97 5.97zm-24.48-.46c-.35-3.8 2.05-7.65 3.33-10.82.74-2.047 1.127-3.087 1.16-3.12l.06.03c.13 1.31-2.95 7.92-2.22 8.66 1.63-1.97 2.47-5.02 3.25-7.35.22-.25.51-.53.75-.76 0 1.05-4.55 12.92-6.33 13.37v-.01zm62.38-.07c.18-.07 1.68-1.19 1.46-1.61-.53.12-1.03.24-1.49.35 0 .05-.08.19.05.29.093 0 .347-.07.76-.21l.05.05c-.39.36-.86.53-.82 1.13h-.01zm-19.5-.32c.66-.29 1.1-.71.88-1.35-.51.17-.75.76-.88 1.35zm-6.22 0c-.08-.01-.13-.05-.16-.06-.01-.05-.01-.08-.01-.16.29-.15.62-.37 1.01-.06-.25.27-.62.27-.83.28h-.01zm2.75-.07c-.37 0-.1-1.1-.03-1.22.06-.02.09-.02.16-.02.09.27.16.83-.03 1.24h-.1zm2.46-.21c.25-.08.91-1.01.8-1.19-.64 0-.8.5-.86 1.15.01 0 .03.02.06.05v-.01zm-4.77-.62c-.39 0-.15-1.08-.07-1.16.13.08.54 1.16.07 1.16zm3.61.33c.18 0 .47-.02.72-.21 0-.47-.81-.03-.96.02 0 .03 0 .05.05.1.06.03.12.06.2.08l-.01.01zm-2.25-.79c-.29-.12-.32-.14-.32-.27.36-.16.69-.32 1.17 0-.15.27-.68.27-.84.27h-.01zm23.89-.03c.74-.23 1.85-.97 2.11-1.77-.57.14-1.78.1-2.11.28 0 0-.08.29.08.45.38-.05.81-.1 1.19-.16-.22.75-1.27.12-1.27 1.2zm-21.73-.06h.1c.28-.34 0-1.08-.1-1.26-.34 0-.43 1 0 1.26zM51 63.32c.43-.15.23-1.13-.16-1.13-.17.49-.14.58.16 1.13zm.82-.23c.18-.61.45-.88 1.1-.84.22.42-.77.83-1.1.84zm3.48-.12c.44-.1 1.16-.98 1.5-1.34 0-.34-.02-.54-.09-.76-.66.22-1.37 1.35-1.41 2.11v-.01zm-3.09-1.04c-.14-.42.29-1.3.72-1.11.24.59.02 1.04-.72 1.11zm2.15.31c.35.07 1.31-1.44 1.47-1.82-.3-.02-.41-.08-.6.04-.19.36-1.02 1.31-.88 1.79l.01-.01zm-3.08.12l-.02-.01c-.13-.56.09-.97.3-1.38.12-.07.32-.19.6-.1-.07.47-.49 1.08-.75 1.49h-.13zm24.37-.62c1.33 0 2.13-.73 2.13-2.12-.65-.82-1.5.06-.65.46-.45.28-.97.35-1.38.38-.06.12-.09.21-.09.38.42-.03.81-.06 1.23-.06-.37.34-.91.45-1.27.55 0 .08-.08.39.03.39v.02zm-63.97-3.73c.37-1.04.31-1.86.27-3.11-.38-3.68-1.91-7.51-3.09-11.06 0-.3.27-.79.38-1.02h.09c1.76 5.03 3.84 9.71 2.88 15.24-.07.15-.19.31-.24.53-.02 0-.29-.58-.29-.58zm-.32-.56c-.05-.29-.31-.54-.3-.82.09-1.47-.29-2.65-.79-4.57-.72-2.68-1.42-4.51-2.22-6.57.13-.54.49-.74.59-1.16.17.19 2.18 6.96 2.62 8.69.58 2.27.34 4.84.1 4.43zm16.41 0c-1.12-2.43-.86-5.35-.86-7.8.61 0 .48 3.21 1.03 3.85.16-.23.31-.65.52-.76 1.05.53.06 4.34-.69 4.71zm2.92-.17c-.98-.38-1.36-2.33-1.28-3.08.24.16 2.65 2.65 1.28 3.08zm-5.45-.14c1.61-.61 1.38-7 1.22-7.31-.82.29-.21 2.18-1.02 3.18-.54-.28-.27-2.31-.27-2.56-.13 0-.25 0-.31.02-.61 1.7-.36 4.8.38 6.67zm-2.49-1.03h.12c1.16-1.57 1.27-3.69 1.27-5.51-.12-.02-.2-.02-.25-.02-.1.39-.19 1.56-.56 1.94-.23-.67.08-2.3-.38-2.3-.39 1.63-1.12 4.2-.2 5.89zm-2.05-1.53h.14c.65-.96 2.27-4.47 1.69-5.35-.07 0-.12 0-.15.01-.06.2-.47 2.11-.93 2.11-.1-2.27.56-4.1 1.24-6.01 0-.24-.07-.31-.14-.38h-.09c-1.12 2.68-2.41 6.6-1.76 9.62zm64.58-.6s.17 0 .17-.03c-1.99-2.33-3.51-4.79-5.07-7.2-2.35-3.89-4.35-7.96-6.65-11.57-.27.07-.35.27-.49.45 3.01 5.36 6.33 11.4 10.2 16.51-.02.03-.02.06-.02.07-4.13-1.09-7.64-8.22-9.43-11.16-.31-.14-.65-.25-.97-.43 0 .28 1.32 2.23 1.56 2.6 2.5 3.87 5.46 9.83 10.7 10.75v.01zm-72.4-.79c-.07-.34-.1-.69-.13-1.05 1.68-3.33-.06-7.51-1.15-10.53.07-.38.18-.56.3-.81.9.91 1.77 5.14 2.01 6.56.1 1.02.28 5.16-1.04 5.83h.01zm5.55-.72c0-3.24 1.34-5.84 2.56-8.82h.09c.06.06.1.16.2.23-.71 1.78-1.53 3.52-1.87 5.5l.06.02c1.27-1.3 1.85-3.21 2.5-4.83.05-.05.1-.05.16-.05.23 1.02-2.29 6.72-3.69 7.94l-.01.01zm61.88-.46h.21s.03-.06.05-.07c-.37-.42-.79-.82-1.16-1.25-3.53-.5-6.15-5.83-7.64-8.31-.53 0-.89-.23-1.21-.3 1.78 3.47 5.07 9.43 9.76 9.93h-.01zm2.49-.12s.06-.05.1-.06c-.31-.46-.64-.98-1-1.19-2.96-2.81-5.06-6.17-7.05-9.42-.22-.03-.4-.05-.54-.09-.12.36 2.74 4.37 3.47 5.46 1.41 1.87 2.86 3.98 5.01 5.3h.01zm-70.33-.37c-.08-.44-.2-.95-.29-1.4 1.1-1.48-1.32-6.79-1.23-7.37.14-.07.25-.43.4-.86.17.19.38.86.51 1.25.64 2.11 2.08 6.25.64 8.43 0-.01-.03-.01-.03-.05zm71.42 0h.08c.59-1.33 1.94-1.54 2.55-2.81 0-.02-.02-.03-.02-.07-.35.03-.8.1-1.04.07.42-.66 1.48-1.19 1.48-2.01-.18-.06-1.11.39-1.41.39.87-.88 1.48-1.64 1.76-2.88-.52.17-.89.49-1.27.71-.02 0-.02-.01-.02-.06.69-.91 1.15-2.05 1.15-3.11-.44-.07-.97.64-1.37.64 0 0 .94-1.59 1.03-1.91.21-2.99-2.46-1.62-1.25-.94 1.31.74-.19 1.31-.56.97-1.57-3.88-3.5-7.49-5.32-11.05-.23 0-.76.37-1.03.47.69 1.84 1.89 3.89 2.86 5.81 2.27 5.16 3.07 9.03 1.47 14.57.3.4.61.81.93 1.21h-.02zm-8.46-1.08c.12 0 .53.03.73-.02-.15-.39-.73-.8-.87-.95-1.83-.24-2.38-1.05-3.78-1.96-.54 1.63 2.64 2.78 3.92 2.93zm3.53-.17s.1-.02.16-.02c-.38-.47-.54-.54-.9-.75-2.67-2.05-3.9-4.48-5.69-7.12h-.39c-.14.37 2.5 4.04 3.16 4.84.97 1.2 2 2.45 3.67 3.06l-.01-.01zm-55.51-.06c-.42-.22-.35-.41-.35-.64.19-.01.44-.01.66-.01 0 .18.02.38.08.59-.14 0-.25.03-.39.06zm1.47-.14c-.97-.14-.82-.69-.03-.51.45.34.71.43.03.51zm1.17-.58c-.13-.02-.25-.03-.39-.06v-.1c.19-.09.44-.32.66-.32.06.06.22.22.22.46-.16 0-.32.02-.49.02zm-11.65-.16c0-.27-.02-.56-.08-.81 1.53-1.5.79-4.02.54-6.17.21-.2.3-.36.56-.44.43 2.34 1.4 5.6-.89 7.41-.05 0-.08.01-.13.01zm8.54-.01c0-.41.21-.41.24-.65-1.55-1.01.23-1.82.23-2.67-.64-2.88-5.37-3.15-4.34-6.25.18 0 .54.23.95.23.96-.3.65-.75.79-1.45.95.79 1.64 1.49 3.15 1.33 0 0 0-.02.02-.05-2.52-1.86 1.57-4.27 1.74-1.86 0 0-.01.01-.05.01-.3-.24-.5-.53-.74-.28 1 .67-.05 1.1.6 1.75.68 1.04.59 1.5-.59 2.11 0 .53.93 1.5 1.02 2.63-.03.64-.25 1.48.01 2.24.53.67.3.6.13 1.46.06.06.17.07.28.13.08.58-.78 1.43-1.37 1.24-.05-.25-.07-.5-.08-.72.08-.02.19-.02.28-.02 0-.01 0-.01.03-.03-.45-.93-1.28-.69-.78-1.97.16-.14.32-.29.47-.44-.31-.82-.78-2.02-1.22-2.65-.96-.93-1.3-1.3-1.38-1.16.9.75 2.22 2.38 2.22 3.77-1.42 1.78.22 1.6.06 3.22-.12.14-.58.05-.64.05 0-.44.07-.47.17-.75-.61-.76-1.2-.87-.44-1.96.63-.46-.8-2.8-1.27-3.18-.34-.23-.66-.43-1-.65v.06c1.46 1.02 1.76 1.67 2.21 3.55-1.53 1.52.54 1.83-.08 2.88-.22.09-.44.08-.65.08h.03zm51.6-.28h.13c.16-.24-.83-.79-2.01-1.6-.66-.64-1.25-1.31-1.81-1.9h-.07c.5 1.64 1.84 2.99 3.76 3.5zM5.1 48.35c-.76-1.76-.13-1.98.21-3.65.08-2.88-.34-10.59-.39-12.45.22-.1.39-.07 1.06-.22 0 3.96.54 8.05.46 12.14-.15 1.49-.46 2.77-1.2 4.18H5.1zm9.17-.16c-.02-.25 0-.65-.02-.8.32-.43.22-1.13.24-1.79-.14-1.02-.28-2.03-.39-3.03.153-.053.33-.1.53-.14.32.8 1.04 5.12-.36 5.76zm49.8-.42c.42-.08.96-.15.74-.68.21-.19.39-.19.78-.23 0-.14-.01-.28-.01-.44.86-.6 1.27-1.99.44-2.71 0-1.62 3.43-4.37 4.42-5.24 2.78-2.85 4.77-5.38 5.47-9.28.14-1.74-2.29-1.74-2.29-1.31.06.01 1.82 1.02 1.19 1.52-.09-.65-.58-.87-.96-.51-.35.73-4.1 10.07-5.24 10.07-1.57-.53-2.55.31-2.86 1.69-1.25 1.2-2.67 1.18-3.03 2.97-.22.09-.42.21-.6.31-1.38 1.13-.41 1.03-.15 2.43-.19.19-.39.28-.56.38v.16c.107.04.287.06.54.06 1.5-.46 2.19-1.3 1.64-2.71.26-.86 1.12-1.7 1.62-2.36.09.21-1.31 1.79-1.31 2.36.71 1.3-.65 2.21-1.56 3.1l.03.03c.24 0 .56.06.85-.17 0-.24-.03-.31.07-.36.22.01.44.05.67.1.52-.5 1.57-2.15.86-2.83 0-.74 1.08-2.12 1.49-2.64.02.02-1.11 2-1.19 2.45 1.31 2.01-.95 2.2-1.13 3.82.01 0 .07 0 .08.01v.01zm-47.78-.81c0-.27 0-.42.09-.59 1.71-1.35 1.05-3.99.64-5.62 0-.38.1-.66.16-.94.02 0 .08 0 .12.01.68 1.72 1.49 6.32-1.01 7.14zm-11.87-.71c-.65-1.65-.27-1.46-.27-3.03-.28-3.55-.56-7.07-.56-10.53.28-.16.69-.27 1.02-.51.07 3.51.16 7.19.39 10.73 0 1.19-.32 3.89-.59 3.34h.01zm11.87-.2c.01-.29.05-.55.09-.82.74-1.3.07-3.23 0-3.9-.05-.22.22-.39.38-.59.67 1.93.67 4.8-.47 5.31zm-8.91-.24c-.28-.73-.45-1.12-.36-1.18 1.12-1.15 1.24-2.15 1.33-3.61.25-3.11-.09-6.47-.16-9.5.25-.17.79-.5.95-.8h.09c0 3.8.23 7.63-.09 11.42-.14 1.15-1.01 2.61-1.68 3.67h-.08zm-.5-1.49c-.03-.6-.12-1.13-.12-1.18.15-.24.3-.58.34-.73.23-.59.12-1.23.19-1.85-.12-2.9-.4-5.95-.36-8.74.29-.06.59-.12.9-.15.23 3.01.23 6.24.27 9.45-.09.72-.5 2.68-1.22 3.19v.01zm54.69-.6c.07-.01.14-.07.19-.07 1.18-1.27 2.15-2.09 3.6-3.08.23-.27.32-.84.51-1.15h-.12c-.93.56-1.56.24-2.29.07-2.05.98-1.89 2.2-1.89 4.22v.01zm-43.3-.38c-.1-.72.34-.75.72-1.32.03 0 .13 0 .21.01.36.59-.4 1.19-.93 1.31zm-8.37.15c-.42-1.24-.51-.93.3-1.82.65-1.27.83-2.48.83-3.76.14 0 .53.37.8.56.09 1.2-.57 4.58-1.93 5.02zm-.45-1.41c.01-.41.01-.96.1-1.37.35-.74.46-1.71.46-2.75 0-2.41-.24-5.78.49-7.96.21-.17.53-.22.91-.28-.34 1.37-.53 2.75-.66 4.27-.02 1.62.47 6.63-1.31 8.09h.01zm4.36-.13c-2.89-.42-.14-3.17.31-.93.86-.61.86-2.8 1.3-3.72.98-1.05 1.64-2.63 1.78-4.15.46-.08.59-.24 1.16-.59 1.12-.89 1.24-2.04 1.31-3.23.23-.2.46-.39.69-.57 0 2.22-.37 5.1-2.21 6.68.09 1.46-.3 1.61-1.12 3.17-.65 1.97-.95 3.27-3.22 3.33v.01zm58.3-.06c.42 0 .84-.06 1.31-.07.03-.22-.56-.91-.56-.93-1.82.1-2.06-.1-3.19-1.4-.28 0-.38.19-.53.32.45 1.39 1.46 1.92 2.97 2.07v.01zm-53.64-.78c-.09-.22-1.84-3.39-.38-3.02.29.74.91 2.08.4 3.08-.02-.05-.02-.06-.02-.06zm57.31-.12h.08s.03-.05.03-.06c-.21-.32-.38-.64-.59-.95-1.74-.13-2.85-.89-3.67-2.23-.01 0-.08-.03-.09-.06-.65.54-.72.39-.23 1.13 1.17 1.32 2.49 2.06 4.47 2.16v.01zm-4.24-.21c.25-.05.73-.07 1.08-.17v-.09c-.8-.66-1.41-1.23-2.01-1.86-.34 0-.6.41-.81.57 0 .44 1.1 1.39 1.75 1.56l-.01-.01zm-57.12-.64c-.17-.9-.75-2.13.35-2.25 0 .82-.03 1.35-.3 2.25h-.05zm-.38-.16c-.31-.15-.47-.23-.61-.24-.07-.36-.28-1.02-.23-1.23.17-.06.31-.17.61-.1.193.867.297 1.39.31 1.57h-.08zm60.94-.32c-1.24-.12-1.85-.42-2.59-1.2-.76-1.03-.83-.81-.03-1.68.73.27.9 1.68 2.23 1.87.14.29.32.57.49 1.01h-.1zm-55.01-.14c-1.1-.3-1.39-.96-1.55-1.83.75.12.96-.25 1.26-.98h.07c.1.28 1.54 2.81.22 2.81zm44.47-.02c-1.08-.19-2.05-.94-1.3-1.94.25.13.45.66 1.03.66.04-.013.083-.203.13-.57.61-1.02 1.57-.42 2.34-.96 1.09-1.92 1.03-4.27 2.06-6.17 1.53-1.19 1.94-1.68 2.06-3.63 1.23.23 2.15.75 3.3 1.6-.76.61-1.11 2.14-1.71 3.03-.13 0-.65-.94-.8-1.04-1.15-.6-1.44-.19-2.22.58-.94 1.91-2.4 8.49-4.88 8.45l-.01-.01zm-42.11-.56c-1.08-.29-2.77-2.05-2.57-2.97.46.17.82.32 1.53.43.23.81.5 1.68 1.13 2.38v.15s-.06 0-.09.01zm43.92-.05c1.46-2.43 2.48-4.87 3.22-7.52.39-.62.78-.97 1.54-.97 2.81 1.09-1.42 7.07-2.35 8.3-1.04-.09-1.41-.29-2.27.24-.06-.01-.12-.05-.14-.05zm-53.85-.66c-2.63-.68-.67-3.1 0-1.78.23.5-.12.81-.49.97 2.05 1.35 4.07-1.89 4.32-3.28.09-.6.21-1.15.32-1.72 1.71-.76 2.43-1.42 2.43-3.36 1.5-1.5 3.03-1.8 2.2-4.35 0-.05-.04-.05-.06-.05-.15.18-.15.05-.15.32.82 1.83-1 2.99-2.3 3.88-.03 2.26-.21 2.3-2.35 3.37-.17.76-.34 1.49-.49 2.28-.69 2.03-1.92 3.1-3.44 2.9.07-.25.16-.31.3-.49 2.41-4.59 1.64-17.17 8.97-17.17 4.66 1.08 2.58 7.6 1.87 10.81-.29 1.52-1.39 4.26.66 5.02 0 .86-1.74.08-1.99-.12-1.52-2.05-.56-3.14.21-5.08-.93-.54-1.18-.96-1.02-1.87.59-1.52.91-2.49.67-3.99-.08 0-.15 0-.19.02.19 2.34-.17 2.78-2.18 4.33-.17.13-.42.28-.42.51.05.74-.06 1.42-.52 2.12-.74.98-1.28.78-1.77 1.45-.42 2.58-1.71 5.46-4.61 5.28h.03zm5.97-.94l-.02-.03c.29-.58.29-1.05.14-1.61.22-.09.27-.17.59-.17.27.68.39 1.82-.71 1.82v-.01zm4.74-.73c-2.77-.8-2.57-3.68-1.79-5.8-.03-.06-.03-.09-.03-.13-1.13-.45-.71-1.89-.14-2.47 0 1.31-.66 1.26.85 2.28 0 .22-.65 1.78-.81 2.31 0 1.63.71 3.99 3.02 3.34.24-.16.24-.37.25-.51-.31-.52-.69-.09-.69-1.09.85-1.23 2.62 1.17.02 2.05h-.67l-.01.02zm-10.53-.12c-.16-.31-.43-.6-.51-.71.98-2.64 1.28-4.93 1.77-7.61.39-.38.73-.8 1.02-1.34 0 .71-.43 2.06-.6 2.89-.37 2.07-.73 4.77-1.63 6.77h-.05zm48.98-.24c0-2.19.15-1.83.86-3.44.067-.287.133-.753.2-1.4.16 0 .64 0 .9.14-.05 1.55-.36 2.89-1.34 4.21-.36.34-.563.503-.61.49h-.01zm2.66 0c-2.78-.61.65-3.78.65-1.02.66-.67-.71-3.15-.82-3.83.12-.09.9-.49 1.15-.49.37.88.74 1.7.86 2.74.79-.73.9-1.96.9-2.9.25 0 .45.12.88.16.01.03.05.08.07.1-.44 1.92-1.02 5.23-3.68 5.23l-.01.01zm-53.2-.23c-.15-1.32.13-2.97.23-4.21l.43-2.11s.59-.34 1.08-.49c-.41 2.15-.73 4.2-.9 6.43-.13.12-.71.43-.83.37l-.01.01zm9.83 0c-2.96-.3-1.28-1.74-.73-3.32.08-.31.16-.64.23-.96 0-.01.02-.01.03-.01.15 1.38-.23 3.08 1.02 4.17-.05 0-.05.01-.05.06-.16.01-.34.06-.51.07l.01-.01zm4.69-1.03c.13.05.35-.1.46-.18-.03-.42-.03-.86-.03-1.33-.32.12-.52.36-.86.59.05.16.34.52.43.93v-.01zm-2.2-.71c0-.95.14-1.64.27-2.43h.1c.31.87 1.04 1.89-.37 2.43zM3.18 32.4c.13-.49.17-1.09.27-1.28.39-.17.86-.49 1.43-1.22 1.17-2.16 1.9-4.52 3.02-6.69.39-.81.86-1.59 1.3-2.38h1.08c-.93 1.7-1.78 3.33-2.59 5.08-.78 2.23-1.9 5.62-4.5 6.49h-.01zm21.8-.06c-1.72-.39-.88-2.92-.52-3.96 0-.05.05-.05.05-.05.32.81-.3 3.24 1.25 2.48h.08c0 .46 0 .93.01 1.4-.31.13-.64.13-.87.13zm-20.01-.56c.36-.38.67-.79 1.04-1.16 3.55-.51 3.68-3.48 4.95-6.57.4-.79.83-1.53 1.24-2.33.2 0 .76.07 1.22.07-.6 1.02-1.23 2-1.72 3.08-1.61 4.4-1.96 6.2-6.63 6.92-.03 0-.07-.01-.09-.01h-.01zm58.21-.89c-3.71-.74-.12-4.19-.12-1.74-.46.49.59.8.98-.17 0-2.31-2.49-3.09-2.53-5.42 1.1 0 2.96 3.47 3.45 4.51 1.22-1.15-.19-3.21 0-3.82.47.44.93.95 1.42 1.41.49 1.91-.87 5.22-3.21 5.22l.01.01zm-59.76-.2c-.01-.31.01-.58.08-.85.31-.35.53-.81.83-1.31 1.12-3.01 2.11-5.67 3.84-8.3.16 0 .46.18.72.39-.19.93-1.31 2.6-1.83 3.54-.29.65-2.19 6.52-3.65 6.52l.01.01zm64.1-.29c-2.71-1.03-.22-3.54.22-1.47-.01.06-.07.12-.03.22 1.17-2.34-2.26-5.05-2.13-5.25 2.36 1.31 3.24 1.52 3.45 4.56.99-.99.25-3.04-.57-3.76v-.13c.25-.19.47-.38.73-.56.31.16.96 1.67 1.22 2.27.36 1.83-.73 4.12-2.88 4.12h-.01zm-61.34-.13c.22-.49.53-1.03.57-1.05.28-.18.89-.45 1.24-1.09 1.16-2.45 2.2-4.88 3.58-7.23.05-.01.12-.01.16-.01l.19.83c0 .07-.66 1.32-1.17 2.25-1.27 2.64-1.4 5.61-4.56 6.31l-.01-.01zm3.7-.5c.28-.38.46-.91.71-1.23 3.32-.94 3.21-3.19 4.88-5.96.36.02.8-.02 1.15.02-1.63 2.63-2 5.46-5.06 6.7-.54.14-1.08.3-1.68.46v.01zm15.91-1.01h.16c0-.44 0-.87.03-1.25-.59-.71-.36-2.26-.89-2.26-.42.95-.68 2.95.69 3.51h.01zm-14.96-.66c.1-.45.15-.8.42-1.01.21-.17.87-.28 1.22-.95.74-1.52 1.21-3.14 2.19-4.43.21 0 .45.38.54.8-1.18 2.12-1.7 5.15-4.36 5.59h-.01zm66.8-.17c-1.26-4.14-1.11-7.01-.78-11.2 0-.75 0-1.48.05-2.21.98.32.89 2.56.59 3.54 0 .49.97.76.54 2.05-.12.27-.22.49-.32.71 2.72 2 .1 2.81.29 5.31-.02.39.14.96.29 1.39-.16.12-.5.45-.66.42v-.01zm1.05-.37h.45a96.375 96.375 0 01-.39-2.27c.35-1.4 1.24-2.28 2.71-1.39 0-.06.02-.12.05-.19-.74-1.19-2.06-.68-2.7.22-.52.61-.76 3.3-.12 3.62v.01zm-4.91-.22c3.78 0 2.74-5.47.76-3.49-.12 1.34.46 1.02 1.01.97-.59.86-1.54.53-2.11.05-.31.08-.65.15-.97.23.35.43.46.62 1.16.91.3 0 .58.03.9.06-1.6.96-3.07-.83-4.12-.83.43 1.62 1.55 1.9 3.37 2.11v-.01zm7.88-2.33c1.46-.15 1.4-.91 1.42-2.04-.56-1.85-3.1-2.65-3.1-.21.88.09 1.74.21 1.74 1.43-.1-.14-.27-.18-.5-.1-.38.4-.2.82.44.91v.01zm-56.02-.07c-.15-.12-.32-.24-.49-.31 0-2.05-1.12-2.86 1.08-3.56-.16 1.3-.3 2.34-.3 3.8-.09.01-.19.06-.29.08v-.01zm46.06-.57c.96-.01 2.19 0 2.8-1.06.56-2.5-2.5-1.86-1.42-.28-.46.5-4.87-5.22-6.44-5.22.01.03.24.24.24.47-.05 0-.13.06-.18.09-.05 0-.06.05-.06.08 1.82 1.03 2.93 3.03 4.7 4.45.07.02.44.15.51.32-.51.24-1.77-.77-2.11-.77.24.61-.24.79-.24 1.25.58.35 1.34.54 2.2.66v.01zm-4.14-.28h.72c2.59-.75-.1-3.29-.32-1.22-1.62-.37.05-4.12-2.86-4.42.63 1.26 1.75 2.95 1.46 4.65-.66 0-1.1-2.23-2.11-2.58 0 0-.02 0-.06.03-.09.32-.21.64-.27.98.17.06.36.13.59.23 1.15.82.49 2.11 2.85 2.31v.02zm-4.41-.21c2.73 0 1.75-2.58.56-1.79-.13-1.28 1.26-2.87.72-3.99a6.7 6.7 0 00-.78-.05c-.07.97-.38 2.04-.71 3.01-.01.41-.01.78-.03 1.16-1.21-1.25-1.08-3.02-.69-4.46-.25-.24-.68-.28-.86-.28-.55 1.47-1.04 2.8-.27 4.41.12 0 .23.02.37.05.06 1.17 0 1.54 1.69 1.94zm16.19-1.01c.1-.02.23-.02.39-.02.37-1.19-.39-1.79-1.08-2.27v-.08c.72-1.01.68-1.97-.21-2.7.09-1.47.2-2.65-.58-3.76-.69-.58-1.5-.81-2.19-.55-.84.36-.49 1.19 0 1.34.49.14 1.16-.32.61-.87v-.08s.03-.03.07-.03c1.92 1.12 1.69 2.12 1.53 4.36.75.74.79 1.41.12 2.41v.08c.67.36.94.65 1.27 1.56 0 .24.01.42.06.61h.01zm-63.53-.5c-1.77-.78.57-3.51 1.1-3.63-.28.93-1.52 1.67-1.24 2.86.73.75 1.94-.31 2.53-.93.03.02.03.02.07.06-.78.87-1.32 1.64-2.47 1.64h.01zm51.88-.06c-.16-.46-.16-.75-.21-1.18.25 0 .82.43 1.18.62v.07c-.52.06-.51.12-.82.52-.03-.03-.1-.03-.15-.03zm-40.09-.21c1.08 0 2.29-1.15 2.29-2.19-.44-.3-.59-.52-.8-.78-.1.52-.66 2.51-1.4 1.41-.38-1.07-.15-1.86-.22-2.8-.43.36-.81.69-1.21 1.05.13.86.22 2.85 1.34 3.3v.01zm3.22-.2c-.63-.02-1.26-.02-1.25-.24.07-.32.2-.61.43-1.31.15 0 .72.93.98-.09.37 0 .53.61.66 1.02-.17.31-.17.6-.82.63v-.01zm11.35 0c-.9-.31-.71-1.44-.71-1.93.08 0 .88.69 1.19.89.167.64.243.98.23 1.02-.24 0-.52 0-.72.02h.01zm1.15 0s.72.03.82-.06c.05-2.74.64-5.32.74-7.9.19-1.08.16-1.2 1.2-1.7.1-.24.81-1.48.81-1.67-4.8.65-1.78 5.51-4.12 8.47.02.23.37 2.71.54 2.86h.01zm-7.66-.02c-1.22-.5-.97-1.76-.89-2.65.08 0 1.57 2.48 1.83.84.13 0 .56.19.86.28 0 1.53-.3 1.53-1.79 1.53h-.01zm4.59-.08c1.52-.21.89-3.21-.1-3.53.06.47.39 1.88-.27 2.3-.79-.14-.98-.91-1.35-1.39a6.71 6.71 0 01-.34.75c.16.86 1.07 1.65 2.06 1.86v.01zm7.49-.03c-3.54-.54-3.26-4.29-1.99-6.72.15-.15.91 1.21.91 1.6-.32.98-.61 1.93-.2 3.02.74-.71.74-2.86 2.11-3.19-.1.69-.17 1.38-.17 2.16-.51.51-1.24 1.34-.91 2.16.8-1.44 2.35.97.25.97zm11.13-.01c-3.3-.42-2.04-5.98-.27-7.26.09.09.6.61.6.96-.75 1.1-1.5 2.63-1.08 4.12.02 0 .06.02.06.03.25-.25 2.12-4.34 2.79-2.33-.67.51-2.19 2.31-1.93 3.29.66-1.3 2.73 1.02-.17 1.18v.01zm-7.24-.06c1.97-.16.39-2.3-.35-.95-.39-.76.47-1.7.83-2.12-.09-.91-.09-1.55.01-2.36-1.31.44-1.32 2.22-1.86 3.31-.46-1.09-.07-2.18.2-3.15-.61-.41-.66-.63-.87-1.09-.03.06-.12.09-.12.14-1.13 2.23-.95 5.74 2.15 6.21l.01.01zm-18.59 0c1.31-.22 1.83-2.59 1.31-3.59-.45-.03-.81-.31-.98-.31.06.51.53 2.56-.38 2.66-.81-.58-1.02-1.45-1.26-2.19h-.08c-.13.43-.28.81-.74 1.03.21.82 1.13 1.98 2.14 2.4h-.01zm22.66 0c1.46 0 .89-2.25-.49-1.12-.07-1.33.31-1.49 1.34-2.13.04-.47.15-1.09.15-1.44-.3.08-.56.08-.76.1-1.01.43-1.59 1.56-1.92 2.5h-.02c-.46-1.11-.25-1.93.06-2.87.42-.6-.16-1.39-.16-2.07-1.23-.42-3.32 6.55 1.81 7.02l-.01.01zm-42.88-.14c-2.15-.6.44-3.95 1.15-4.33 0 .45-3.06 4.05-.28 3.76.66-.2 2.46-1.84 2.46-1.84-.8 1.17-1.91 2.41-3.33 2.41zm11.8-.34s-.12-.03-.17-.03c-.6-1.21-1.86-1.37-.06-1.98 0 .39-.44.82.22 1.1.5 0 .8-.16 1.19-.6h.08c.05.1.43.6.43.93-.6.46-1 .56-1.69.59v-.01zm55.17 0h.13c.66-.82 1.16-1.82 1.16-2.81-.36-.05-1.63-.21-1.79-.05.06.14.07.27.14.44.32 0 .68.06 1.03.06.14.53-.72 1.61-1.11 1.93.03.13.21.24.45.43h-.01zm2.27 0c-.1-.03-.22-.09-.34-.12.07-.83-.43-.89-.54-1.02-.06-.06.01-.21.12-.34.66 0 .91.76.86 1.47h-.09l-.01.01zm-72.63-.73c-2.71-.74.19-3.78 1.07-4.72 0 .98-2.9 3.7-.64 4.17 1.4-.28 2.42-1.41 3.36-2.49l.08.02c-.96 1.55-2.04 2.89-3.87 3.02zm27.77-.51c1.45-.23 1.5-2.59 1.03-3.66-.46-.07-.8-.37-1.02-.37.14.47.79 2.79-.18 2.79-.79-.42-1.13-1.38-1.39-2.04-.05-.01-.06-.01-.13-.01-.17.59-.32.69-.65 1.18.43.69 1.3 1.9 2.34 2.11zm-19.12-.05c-1.81-.58.27-2.88.99-3.39l.01.03c-.34.58-1.17 1.53-1.05 2.41.76.96 1.65-.3 2.19-.38-.07.13-.17.35-.29.44-.52.57-1 .89-1.85.89zm11.63-.66c-.91-.42-1.16-1.19-1.54-1.92 0-.2.81-1.21.81-1.21.07.42.34 2.19 1.2 2.19.54-.45.47-1.78.38-2.33.05 0 .06-.02.13-.02.27.23.46.1.81.35 0 1.5.09 2.95-1.79 2.95v-.01zm-7.44-.05c-.35-.02-.6-.13-.78-.18.89-.13 1.76-.47 2.75-.64.06.16.1.32.17.51-.72.32-1.47.31-2.15.31h.01zm2.59-.37c-.78-.49-.32-1.41.23-1.57.19 1.08 1.06-.17 1.4-.24.12.17.32.35.65.46v.12c-.67.65-1.4 1.24-2.28 1.24v-.01zm-9.55-.06c-2.37-.5-.5-2.48.6-3.4l.01.03c-.45.78-1.9 2.52-.2 2.89 1.1.08 3.08-2.2 3.36-2.23-1.05 1.35-1.98 2.68-3.77 2.71zm26.2-.28c-1.1-.2-2.18-1.41-2.43-2.2.3-.393.48-.657.54-.79h.12c.42.65.96 1.52 2.01 1.52.17.45.35.91.56 1.37-.27.19-.56.1-.8.1zm24.71-.56c-1.93-.74-2.65-2.71-1.84-4.39.43-.44.91.15.65.91-.23.81.16 1.83.27 2.05.27.44 1.03 1.4 1.03 1.42h-.1l-.01.01zm13.76-.01c.1-.01.19-.01.22-.01-.1-1.19-.47-1.55-1.52-1.68 0 .2.02.41.06.59.44.23.82.32.93 1.02.1.01.21.07.31.08zm-14.98-.21c-2.16-.69-2.82-3.16-1.53-4.8 1.41-1.01.47 1.24.36 1.81-.02 1.57.58 1.81 1.27 3h-.1v-.01zm-31-.03c-.72-.1-1.03-.43-1.4-.74-1.03-1.19-.65-.88-.05-1.9.24.09.75 2.15 1.65 1.55.32-.67-.05-1.81-.27-2.27.28 0 .53.31 1.03.44.38 1.16.66 2.74-.97 2.92h.01zm-14.04-.05c-1.39-.68.38-3.31.88-2.92 0 .29-1.83 2.15-.27 2.43.153-.06.283-.09.39-.09-.06.2-.13.31-.21.38-.15.24-.67.2-.8.2h.01zm43.54-.16c-2.15-1.38-2.46-4.2-.57-5.76.09-.09.21-.09.31-.09.53.06.47.49.27.86-.27.47-.59 1.03-.67 1.31-.24 1.26-.36 1.86.34 3.16.21.27.41.53.32.53v-.01zm-52.04-.06c-2.33-.65.52-3.25 1.3-3.97h.1c-.3 1.24-2.12 2.42-1.52 3.23.58.8 3.41-.94 3.6-.87-1.09 1.02-2.08 1.61-3.48 1.61zm15.65-.15c1.47-.31 1.59-1.34 1.91-2.67-.27-.13-.58-.27-.76-.27-.08.41-.14 1.37-.66 1.64-1.1.39-.69-1.16-.78-1.55-.75.23-.68 2.6.29 2.85zm35.16-.07s.07-.01.09-.01c-1.32-2.07-1.23-4.27.65-5.8.21-.42.02-.82-.3-.82-2.44.82-3.07 5.3-.44 6.63zm-6.49-.43c1.69 0 1.22-2.13.06-1.45 0-1.17 1.69-1 2.43-1 .09-.31-.08-.9-.12-1.09-1.1-.29-1.53-.32-2.37.37h-.15c.52-1.06.67-1.08 1.74-1.5-.07-.46-.07-.91-.21-1.21-1.81-.42-4.65 4.71-1.38 5.88zm5.1-.24l.1-.01c-1.34-2.71-.59-4.77 1.71-6.28.44-1.32-1.13-.72-1.78-.16-1.45 1.45-2.18 4.43-.03 6.46v-.01zm-13.1-.13c-3.72-.62.03-7.53.84-7.12.06.27.1.69.36 1.07 0 .51-1.61 2.15-1.39 2.57.91-.71 2.14-1.6 3.29-1.82-.31.61-.66 1.19-.96 1.82-.67.45-2.34 1.03-2.22 2.15 1.06-.73 1.63 1.33.08 1.33zm3.32-.22c1.69.12 1.18-1.82.05-1.13.15-1.59 2.1-.89 2.81-1.39.147-.42.23-.737.25-.95-1.01-.32-1.66.07-2.49.41-.19-.2 1.6-1.79 1.67-1.9-.07-.24-.13-.52-.17-.79-1.92 0-5.01 4.95-2.12 5.75zm-33.82-.02c-1.5-.29-.78-1.42-.22-2.23-.01.02.19-.14.1-.14.4-.32.28-.53.8-.34-.08.5-1.92 1.98 0 2.2 1.2 0 1.5-.83 2.38-1.28.07.09.03 0 .16.28-1.04 1.01-1.81 1.52-3.23 1.52l.01-.01zm20.9-.19c-.78-.2-1.81-.96-1.97-1.42.12-.44.28-.81.43-1.2.19.31 1.04 1.9 1.84 1.59.34-.83-.14-1.76-.43-2.34 1.55 0 2.4 3.01.13 3.38v-.01zm-7.14-.07c1.28 0 1.76-1.9 1.34-2.79-.43-.15-.82-.34-1.13-.46.03.27.76 2.12.15 2.31-.87 0-.9-.98-1.15-1.38-.14.22-.37.58-.6.78.14.56.67 1.24 1.39 1.54zm-17.08-.37c-1.45-.34-1.02-1.42-.71-2.46.1-.02.28-.02.43-.02.03.02.03.07.1.09-1.12 2.11.87 1.94 2.34 1.1.31-.29.58-.54.93-.82l.01.03c-1.13 1.52-1.26 1.86-3.1 2.08zm21.29-.97c1.15-.1 1.33-1.97.68-2.85-.25-.25-.6-.39-1.08-.39.34.67.72 1.27.61 2.23-.72.54-1.46-1.09-1.59-1.4-.06 0-.08 0-.09.03-.07.28-.34.65-.54.91.54.64.93 1.23 2 1.46l.01.01zm24.06-.01c.01-.49.03-.89.06-1.35.31-2.22.81-3.22 2.92-4.08.12-.96-1.57-.2-1.86.01-1.31.71-1.98 3.3-1.11 5.43l-.01-.01zm-32.84-.19c.1-.58.18-1.19.38-1.65.15-.07.29-.12.43-.12.35.52-.41 1.47-.81 1.77zm2.29-.13c-.65-.23-1.13-1.28-1.17-1.76.28-.19.5-.42.66-.67h.15c.03.9.74 2.56 1.25.71-.02-.45-.06-.95-.06-1.41.29.05.54.09.83.12.07 1.33.05 2.94-1.67 3.02l.01-.01zm39.58-.19c.44 0 .83-.53.86-.98.03-.43-.27-.79-1.17-.59-2.35.97-2.09-1.89-.03-1.5.99.51 1.59.58 2 .28.43-.3.65-.99.89-1.97.63-.61 1.04-1.39.43-1.66-.29-.13-.65-.07-.7.29-.03.2-.03.42-.02.69-.44 0-1.1-.3-1.48-.39-1.87 0-1.98 1.91.13 2.36-.05 0-.06.02-.06.02-2.28 0-2.22-2.55 0-2.55.38.1.75.32 1.24.32v-.44c-.68-.52-1.61-.84-2.3-.91-.24 0-.38.07-.58.09-.73-.06-1.01-.25-1.12-.45-.24-.34-.12-.72-.19-1.03-.01-.02.01.01 0 0l-.71-.1v-.2c.46 0 .89.06 1.35.08.67-.3 1.11-.02 1.15.8.13.07.24.14.41.23-.05.03-.14.16-.16.22l-.39-.23c-.4.23-1.11.27-1.16-.73h-.23c-.1.58.15 1.15 1.03 1.15.1-.01.32-.09.43-.18.12.03.44.2.44.2l.27-.35-.38-.38c-.12-1.52-1.25-1.18-2.38-1.11-.76.03-1.53-.09-1.93-.9.17 0 .35.03.58.07.73-.03 1.13-.06 1.89-.41-.2-.67-1.23-.68-1.61-1.08-.97-1.94-2.4-1.35-4.2-1.56-.01-.02-.07 0-.12-.02.34-.72-.39-.91-.75-.72-.39.23-.37 1.02.57 1.05.95.01 1.79.15 2.87.57h-.12c-1.38-.49-2.52-.42-3.83-.56.02-.05.42-.9-.44-.9-.45 0-1.17.97-.08 1.3 1.08 0 2.55-.02 3.66.52-.053.007-.387-.08-1-.26-.9-.14-1.85-.1-2.66-.1-.22 0-.43-.03-.57-.19-.09-.3-.23-1.08-1.1-.62-.24.5-.13.86.22 1.09 1.04.75 3.99.62 4.69.9.95.37 1.63.72 1.94 1.68.36.98-.23 2.37-2.19 2.45 0 .09-.07.26-.01.31.05.09.31.09.31.73.4.12.52.56.38.8.46.15.67.58.46 1.11.36.24.47.69.46 1.09.31.06.66.74.64.95.17.1.41.16.58.75.24.19.57.3.76.59 1.35-.21 1.63-.34 3.04.39l-.01-.01zm-35.96-1.13c-.69-.32-1.41-1.06-1.61-1.64.24-.2.35-.58.45-.8.21.29.78 1.4 1.26 1.54 1.08 0-.07-2.19-.23-2.43.24.07.45.19.89.23.5 1.01 1.12 3.1-.76 3.1zm26.06-.06c.02.06.02.06.07.01.09-.59.22-1.16.32-1.77.86-2.05 1.39-2.23 2.72-2.57.14-.02.27-.16.29-.32 0-.28-.29-.37-.59-.37-.38.01-.84.17-.96.21-1.86.59-2.45 3.03-1.85 4.81zm-19.18-.14c.25 0 .54.06.89-.01.08-.23-.43-.88-.43-.88-1.28-.08-1.99-1.64-2.21-1.64-.49 1.32.34 2.13 1.75 2.53zm-12.35-.61c1.57.21 1.48-2.04 1.19-2.85-.21 0-.43-.03-.58.06.06.69.09 1.33-.2 2.11h-.36c-.02.22-.06.45-.06.68h.01zm30.87-.39c.15.12.43-1.48.43-1.56.81-1.6.83-1.86 2.66-2.44.43.02.52-.07.57-.3-.18-.39-.65-.36-.89-.39-2.27.27-3.47 2.53-2.77 4.7v-.01zm-3.08-.29c-1.89-.45-.86-3.14-.1-4.08 1.62-1.44 2.48-2.13 4.54-1.07v.05c-1.5.53-2.59.53-3.55 1.69.56 0 1.78-.53 2.42.05-.17.31-.31.67-.47.99-.79.06-2.77-.03-2.77 1.23 1.02-.81 1.93 1-.06 1.15l-.01-.01zm-18.77-.1c-.6-.22-1.92-.96-1.92-1.57.3-.23.49-.46.69-.79.37.42.54 1.56 1.53 1.56.46-.47-.34-2.23-.52-2.31 0-.06 0-.1.02-.15.3-.01.62-.06.96-.06.54 1.12 1.34 3.32-.76 3.32zm-5.8-.56c1.68 0 .98-2.04.66-2.78-.3-.06-.44.06-.58.12.16.46.59 1.16.3 1.72-.73.65-1.4-.42-1.71-.79-.23 0-.25.16-.38.28 0 .56 1.04 1.27 1.71 1.45zm20.38 0c-3.44-.76.07-5.84 2.21-5.84.04.087.083.483.13 1.19-.64.25-1.71.81-1.89 1.6.31-.06 2.72-.79 2.99-.06-.16.28-.27.56-.38.83-1.35 0-2.55-.17-3.36 1.03.59 0 1.35-.5 1.24.79-.23.39-.59.39-.94.46zm-11.97-.98h.09s0-.03.01-.08c-.49-.85-.43-1.39-1.25-1.41-.06.2.71 1.26 1.15 1.49zm-5.14-.31c1.88-.35.97-2.01.47-3.19h-.64c.15.51 1.23 2.44-.16 2.44-.47-.23-.76-.53-1.06-.79-.27.06-.36.12-.61.28 0 .43 1.39 1.17 2 1.26zm-6.31-.43c1.2-.08 1.64-.32 2.49-1.23 1.75-.08 2.42-.08 3.38-1.7 1.42-.14 2.77-.37 2.93-2a.987.987 0 00-.27-.1c-.13.29-.24.57-.35.82-.68.91-1.72.87-2.65.94-.73 1.62-1.6 1.69-3.24 1.56-.9 1.04-1.23 1.2-2.58 1.37 0 .1 0 .2.03.32.07 0 .15 0 .25.02h.01zm-.31-.75c1.24-.08 1.76-.36 2.42-1.5.08.05.18.06.31.12 1.72.35 2.43-.21 2.86-1.75 1.02.37 2.95.23 2.95-1.26-1.98-.9-5.93-3.19-8.23-2.8v.05c.68.39 1.37.6 2.11.75-.81 1.4-1.87.86-2.86.44-.13-.07-.22-.07-.35-.07-.3 0-.51.16-.76.3-.38.27-.8.43-1.33-.18-2.97 0-4.29 1.65-2.3 4.05.1-.1.14-.45.14-.49.32-.89 2.94-.93 3.53-.3-.03.06-.03.1-.05.15-.34 0-2.53-.46-2.2-.09.81.2 2.28.69 3.19.24.75-1.02-1.72-1.33-2.03-1.37-.95 0-1.99.3-2.69.3.9-.58 5.76-1.27 5.17 1.12-.31.37-.73.44-1.15.53.29.49.93.89 1.25 1.76h.02zm10.4-.45c-1.52-.1-1.86-.62-2.68-1.6 1.17-.61 1.06.51 2.28.91.23 0 .45-.05.66-.05.17.17.29.37.44.59-.21.07-.52.12-.69.14l-.01.01zm33.1-.14c-.45-.24-.91-.45-1.34-.68-.09-.09-.64-1.9-.64-1.9.46.21 2.44 1.46 2.65 2.16-.21.13-.51.37-.67.42zm-8.43-.68c-1.32-.49.29-1.7.58-.69.03 0 .05 0 .08.02.65-2.15-1.49-2.28-2.42-.9-.32 0-.74-.14-.86-.5-.9-.02-1.04-1.03-1.41-1.42-.49-.47-1.25-.78-1.19-1.23.28.09.91.37 1.3.5.44.08.91.23 1.81.37.89.08 2.29.19 2.95.58 1.03.64 1.45 1.2.78 2.6-.5.62-.88.67-1.61.67h-.01zm-7.72-.12c-2.57-.84-.14-4.15 1.74-4.15.07.22.13.46.23.73-.64.36-1.25.36-1.67.94.83.05 1.98.25 2.84.83-1.33 1.35-2.58-.56-3.24.39.54 0 .75-.27 1 .64-.08.42-.45.63-.89.63l-.01-.01zm6.87-.32c-2.42-1.19 2.05-3.14 1.46-.64h-.12c-.84-.69-1.21-.38-1.3.59-.02.02-.03.05-.05.05h.01zm-1.15-.38c-1.77-.36-3.66-2.53-3.88-4.1.12 0 .22.02.32.05.32.88.34.96 1.2 1.61.42 1.3.84 1.15 1.99 1.94.22.07.63-.07.54.5h-.19.02zm5.8-1.56c-.32-.03-.74-.12-.85-.34.48.06 3.09-.75 2.75.3-.63 0-1.28.03-1.9.03v.01zm-39.65-.37c-.44-.04-.86-.27-.93-.48h-.49v-.18h.61c.14.22.43.4.8.42.38 0 .82-.24.82-.42h.72v.18H27c-.15.24-.58.5-1.02.48h.01zm.1-.49c-.34.03-.64-.17-.65-.41 0-.02-.82.01-.88 0v-.32s.88.05.88 0c.01-.13.27-.45.58-.43.31 0 .62.21.67.43l.86.05c0 .07-.02.2-.02.28h-.88c0 .2-.22.41-.56.41v-.01zm1.3-1.18c-1.27-.45-1.25-1-2.51-.05-.09.01-.03.07-.31.01-.28-.09-.4-.36-.28-.67 1.22-1.24 2.78-.44 4.25.09.03.03.23.03.27.05-.22.49-.59.67-1.41.57h-.01zM78.7 27.8c.44 0 .8.37.8.78 0 .43-.36.8-.8.8-.43 0-.79-.37-.79-.8 0-.41.36-.78.79-.78zM39.28 56.02l-.02-.06c.89-.38 2.43-2.43 1.39-3.07.01-.07.01-.14.07-.22 2.37.22.6 3.34-1.44 3.34v.01zm-1.34 1.83c-.34-.74-.94-1.56-.58-2.27.12 0 .34 0 .57.16-.21.72.11 1.31.11 2.12-.03-.01-.04-.01-.1-.01zm-.88-.11c.47-.22-.07-1.28-.11-1.57.11-1 .25-.68-.49-1.28-.36.22-.2.91-.13 1.4-.13.06-.27.15-.39.25v.15c.73-.09.9.38 1.13 1.06l-.01-.01zm3.73-.81c.92-.04 1.89-.8.77-1.5 0 1.32-.77 1.06-1.89 1.17.2.16.7.27 1.11.34l.01-.01zM30.37 42.72c-.19.4-.22.9-.16 1.15.57-.96.65-1.77 1.85-1.22-.17-1.31-1.26-.75-1.69.07zm10.41 13.47c.57 0 .65-.52.4-.93-.19.27-.66.59-.91.8.15.09.35.15.5.13h.01zM31.6 42.75c.16.02.35.11.47.22-.28.16-.8.39-1.03.63-.17-.45 0-.95.56-.85zm7.09 12.98c.19-.02.4-.07.62-.08 2.2-1.59-1.83-2.73-2.7-2.94.37.95.82.68 1.81 1.3v.1c-.63-.13-1.11-.47-1.51-.47.16.5.88.83 1.51 1.05v.1c-.7 0-1.53-.7-2.17-.7.12.76 1.64 1.31 2.45 1.63l-.01.01zm-2.74-.9c-1.04-.28-2.11-.56-3.16-.82 0-.24.11-.36.24-.55.3 0 2.81.64 3.02 1.32-.02 0-.07.02-.09.05h-.01zm.72-.81c-.35-.16-1-.51-1.1-.79.3 0 1.21.18 1.21.79h-.11zm-.94-.11s.07-.04.1-.04c-.82-.86-1.62-.86-2.5-1.2-.1.16-.1.11-.1.33.83.3 1.67.62 2.5.92v-.01zm.68-.73c-.71-.19-1.17-.61-1.46-1.03.35 0 .93.31 1.41.45.05.22.11.39.15.58h-.1zm-1.31-.16c-.82-.25-1.57-.39-1.72-1.03.37 0 1.57.47 1.85 1-.03.03-.03.03-.13.03zm-2.44-1.33c-.58-.28-.35-1.72-.3-2.07.52.52.36 1.21.37 2.05-.02 0-.07 0-.07.01v.01zm2.89-.02c.12-.22.3-.46.42-.63.26.08.57.18.73.34-.31.29-.68.47-1.14.29h-.01zm-3.99.01c.77-.11.28-2.35 0-2.79-.17.57 0 2.01 0 2.79zm-1.13-.26c-.033-.147.057-1.27.27-3.37.6.22.35 2.61.35 3.37h-.62zm3.49-.54c.06-.027.317-.063.77-.11.06.21.11.49.21.7-.26.15-.95-.09-.99-.58l.01-.01zm1.39.36h.11c1.17-1.46-1.04-1.78-.11 0zm1.53-.36c-1.87-.53.12-2.03.12 0h-.12zm.62.04c-.03-.22-.1-.48-.1-.73.2-.1.47-.16.7-.27 0 .45-.17.82-.59 1h-.01zm-3.39-.49c-.09-.5.8-1.12 1-.75.19.55-.52.84-1 .75zm-.49-.02c-.24-.26-.35-.76-.19-1.1.17.15.36.28.56.44 0 .1-.25.66-.37.66zm-.71-.43s.01-.03.06-.03c-.01-.49-.05-1-.05-1.53-.24-.18-.38-.26-.48-.26-.06.56.03 1.19.47 1.82zm3.89-.22c-.54-.12-.43-.57-.08-.66.39-.09.91.21.97.33-.34.26-.64.34-.89.34v-.01zm-2.38-.35c.86 0 .47-1.17-.72-.53.08.26.31.4.72.53zm3.74-.22c.31-.01.03-1.18-.31-1.01-.18.39-.28.54-.22.66.05.11.22.15.54.35h-.01zm-6.08-.2c-.29-.66-.31-.92-.37-1.39.52 0 .42.88.42 1.36l-.05.03zm4.48-.11c.49-.03.68-.4.75-.86-.67-.11-1.5.66-.75.86zm-3.01-.39c0-.55.15-.79.58-1.01.05.12.16.45.16.75-.32.14-.567.227-.74.26zm1.51.2c-.53-.15-.53-.68-.53-.99.65-.1 1.26.88.53.99zm.71-.21c-.47-.22-.17-1 .25-1.19.17.31.53 1.19-.25 1.19zm-2.95-.3c-.49-.7-.49-2.11-.62-2.15v1.58h-.03c-.64-.39-.48-1.31-.48-1.8-.03-.01-.09-.05-.09-.05-.04.77-.04 1.53-.07 2.31 0 0-.02.01-.03.02-1.07-.71-1.27-4.37.89-3.66.81.43.58 2.83.55 3.74h-.11l-.01.01zm4.01-.36c-.17-.47-.19-.68-.1-.71.25-.08.79.26.88.58-.26.15-.49.12-.77.12l-.01.01zm-2.12-.58c.24.12.44.3.66.3.12-.16.43-.49.43-.62-.2-.1-.74-.12-1.09.31v.01zm-4.22.47c.11-.02.2-.08.34-.08 0-.39-.18-.62-.25-.82-.98-.1-1.77-1.01-2.24-.77v.1c.54.25.92.62.64 1.35.18.06.31-.03.5-.19.2.06.62.31 1.01.42v-.01zm-.57-1.58h.37v-.57c-.75-.17-1.56-.79-2.02-.79.43.48.85 1.11 1.65 1.36zm.74-1.32c0-1.4 3.83-2.94 3.57-.3-.09 0-.15.05-.25.06-.21-1.43-2.75-.22-3.32.25v-.01zm5.12 4.14c.18 0 .42.16.42.39s-.24.38-.42.38c-.22 0-.44-.14-.44-.38s.21-.39.44-.39zm12.78 9.14c-.23-.03-.44-.03-.68-.03 0-.75.31-.6 1.01-.62.72-.94 1.07-2.5 1.3-3.55.09 0 .43.28.62.43.28-.16.39-.64.62-.82.33.07.38.07.59.18v1.36c-.21.19-.5.16-.65.19.01-.24.19-.8.15-.96-.47 1.53-1.32 2.3-2.12 3.68-.29.05-.58.09-.85.14h.01zm2.35-1.3c.83 0 1.59-.29 1.59-1.24-.28-.2-2 .95-2 1.22.12 0 .28.02.4.02h.01zm-1.9-.44h.05c.18-.21.32-.61.35-.77-.9-.38-.97-.71-1.02-1.06-.05-.04-.09-.06-.11-.08.05.81.18 1.11.73 1.9v.01zm.25-1.16c1.37 0-.09-.79-.18-1.11-.24.13-.36.19-.47.16-.02.32.17.74.64.95h.01zm2.92-.05v-6.38l.28.02v6.36h-.28zm-2.6-.67c.27 0 .5-.67.61-.87.65.36.62.91 1.09-.25h.52c.18-.72-.66-3.12-1.14-3.77-.52 0-1.01 0-1.49.01-1 .85-.67 2.33-1.29 3.51 0 .01.02.01.04.06.32.02.49.1.55.15.11.2 0 .45.3.73.12-.09.22-.21.33-.3.02 0 .04 0 .08.01.05.22.17.48.4.7v.02zm3.02-.12v-3.07c-.04-.32.08-.57.23-.75 1.22-.83.69-1.99 1.61-2.75 1-.42 2.07-.4 2.98-1.16 1.13-1.66-3.62-1.21-2.27-3.03.16-.06.26-.09.51.02-.71 1.57 1.73.73 2.31 2.42 0 2.34-3.89 1.13-3.59 3.04.06.11.17.2.24.32 1.35 0 1.69-2.62 3.28.08 0 .33-.18.66-.33 1.06h-.18c-.35-.55-.29-1.71-1-1.26-.31 1.44-1.96 2.41-3.17 2.94l.01.04c.29-.08.57-.13.85-.23-.17.62-.86 2.12-1.48 2.34v-.01zm2.06-.23c.13-.03.06.24.18.22 1.01-.52 1.52-1.67 1.73-2.67-1.17-.39-2.58.09-2.58 1.47.73-.08 1.01-1.13 1.61-.36 0 .7-.82.7-.94 1.34zm-4.84-1.92c-.64.02-.93-.86-1.03-1.2.2.11.39.28.48.34-.04.15.1.31.17.34.09.04.19-.01.42-.22.1.13.29.27.49.21.23-.09.14-.17.06-.33.11-.08.29-.16.42-.25 0 .02.02.04.05.11-.4.29-.42.99-1.06.99v.01zm.32-.99c-.1 0 .01-1.01.01-1.08.32 0 .35-.05.51.37-.42.21-.33.21-.46.7h-.06v.01zm-.66-.02c-.15-.62-.92-.9 0-1.09.04.35.07.72.12 1.04-.05 0-.08 0-.12.04v.01zm-.26-1.77a.791.791 0 01-.08-.55c.27.13.48.19.7-.2.14 0 .35.63.79.19 0 0 .03 0 .09.01-.06.2-.09.37-.09.55h-1.41zm2.75-1.55h.58v-.86c.23.05.49.08.71.13v-.63l-.75.05.09-.81h-.63l.05.81-.8-.05v.58l.8-.08-.05.86zm.32.15c-.18 0-.32.14-.32.28s.14.29.32.29c.17 0 .27-.14.27-.29 0-.13-.1-.28-.27-.28zM29.18 37.6c0-1.14 1.1-1.27.83-2.28-1.4-1.31.77-1.5.33-3.2-.02-.03-.02-.05-.06-.07-.5.5-1.01 1.02-1.75.97-2.11-.94 1.05-4.09-.2-5.34-.88-.37-.96-.22-.77-1.05.84-.42 1.47 1.13 1.5 1.9-.11.66-2.09 4.53.12 4.01.09-.1.18-.16.26-.26.79-1.81 2.44-2.83 3.96-4.12-.06-1.55-.32-2.49.75-3.6 1.09-.66 1.41-.96 2.52-.02-.01.02-.01.11-.01.18-.09 0-1.55-.9-1.19-.23 1.9.53-.24 1.76-.38.36-.32-.12-.37-.29-.46-.32-.11.14.44.97.85 1.13.89.02 1.72.73 1.26 1.94-.63 0-1.44-.95-1.63-.64.85 1.13 2.28 1.64 3.87 1.68.24-.26.96-1.2 1.29-.46-1.98 1.8-4.41.59-6.38 1.56.27.31.96-.07 1.47-.07-.6.42-1.68 1.15-2.25 1.15-.06-.07-.1-.16-.17-.21h-.05c0 2.08-1.14 2.39-2.34 3.99.03 1.35.38 2.6-1.36 2.97l-.01.03zm2.51-3.15c.69-.23 2.86-1.31 2.86-2.26-.1-.03-.2-.03-.26-.03-.19.7-.72.87-1.39.87 0-.55.54-1.18.57-1.87-.17-.06-.27.11-.43.2.16 1.33-1.11 1.82-1.35 3.09zm5.66-6.44c.06 0 .12-.05.23-.05-.11-.42-.28-.75-.4-1.02h-.12c.03.27-.11.94.29 1.06v.01zm-1.73 2.79c.58-.14 1.2-.58 1.47-1.15-.75.06-1.11.45-1.63.89 0 .06-.06.08.16.26zm-4.48-2.89l.59-.54-.5-.37.56-.47-.53-.57-.42.52-.42-.63-.53.46.53.55-.58.41.47.51.46-.49.35.62h.02zm.88.1c-.23 0-.36.17-.36.36 0 .23.14.37.36.37.25 0 .41-.15.41-.37 0-.19-.16-.36-.41-.36z" fill="#fff"/><path fill-rule="evenodd" clip-rule="evenodd" d="M51 25.17c-1.04-.06-2.57-.14-3-.36-.26-.39-.3-.54-.38-.85 1.45 0 2.91.23 4.65-.06 1.17 0 2.29-.22 2.92 1.2 0 .24 0 .98.11 1.19.95 0 1.79-.62.76-1.27v-.1c.1-.06.19-.07.31-.07.16.14.39.5.5.45-.06-.1-.13-.19-.17-.31.53-.3.86 1 .74 1.36.65-.14 1.22-.09 1.39.78-.03 0-.06.03-.09.03-.09-.05-.16-.11-.26-.21v.1c.1.07.42.25.42.63-.06.01-.1.07-.16.1-.16-.21-.39-.41-.54-.58-.44.06-1.01.77-.81 1.24.94.07 1.94.21 2.23 1.48 0 2.06-.7 4.09-.35 6.22-.06 0-.07 0-.11.01-1.42-.65-1.08-2.19-.99-3.42.07-.35 0-1.71-.23-1.85-1.52-.45-1.39-1.42-2.26-1.87-.32.5-1.07.46-1.51.31 0-.72-.14-1.05.47-1.41 0-.18-1.13-.96-1.13-.96-.4-.54-.55-.87-.61-1.33-.28-.14-1.39-.45-1.9-.46v.01zm6.94 10.55s.03-.02.07-.02c-.36-1.04-.11-2.1-.84-2.67-.01.89-.13 1.97.77 2.69zm-2.36-2.26c.42-.3.2-.6-.05-.98-.32-1.19-.07-1.89 0-2.95-1.41-.06-.88 1.64-.88 2.67.61.17.65.68.93 1.27v-.01zm2.26-.28s.1-.03.16-.03c-.06-.7-.11-1.43-.13-2.14-.26-.13-.57-.24-.76-.24-.07.73-.02 1.83.72 2.42l.01-.01zm-1.03-.46h.07c-.03-.69.12-2.59-.41-2.59-.03.77-.15 1.94.34 2.59zm-.68-.58l.1-.07c-.02-.79.21-2.46-.39-2.61-.1.9-.44 1.82.29 2.68zm-2.5-.3s.01-.03.06-.03c.16-.62.64-1.21.64-1.74-.44.42-1.23 1.05-.7 1.77zm-.88-.83c.53-.14 1.71-1.19 1.29-1.65-.93.37-1.56.51-1.56 1.57.06.03.15.07.26.08h.01zm-.63-1.14c.6-.13.84-.23 1.36-.72-.01-.03-.01-.05-.01-.08-.47-.07-1.21.53-1.75.57.05.05.1.15.4.23zm1.23-1c.5-.06.79-.23.79-.8-.74 0-1.51.01-2.24.05-.52-.15-1.51-.74-1.72-.53 0 .05.01.09.01.16.68.26.64.47 1.16 1.01.55-.15 1.28.06 2 .11zm-.76-.96c.52-.06 1.02-.07 1.58-.13 0-.01 0-.03.03-.03-.87-.71-1.73-.31-2.7-.53.13.31.56.56 1.09.69zm-.1-.71c.31-.05.68-.05 1.01-.05-.07-.69-2.58-.81-2.59-.77.39.56.76.68 1.58.81v.01zm.3-.81h.16c0-.3-.15-.57-.18-.72-.77-.11-1.6-.23-2.24-.23-.31.58 1.96.91 2.27.95h-.01zm-2.41-.13h.36v-.05c-.89-.69-1.51-.73-2.67-.9.45.73 1.42.87 2.31.95z" fill="#fff"/><path fill-rule="evenodd" clip-rule="evenodd" d="M55.28 48.44c-.15.05-.38.15-.41.32.15-.08.29-.21.41-.32zm-2.33 1.18c.17-.28.25-.61.33-.93.1-.34.21-.63.4-.92-.22-.05-.43-.1-.65-.14v.75c-.02.11-.05.21-.1.31v.93h.02zm-2.28-2.68l-.12.17-.53.6-.42.4.35.05c.16.06.25.12.36.24l.07-.07h.33l.66.1-.2.64c-.03.1-.05.2-.05.3.2.32.36.66.5 1.01v-1.57a.888.888 0 01-.2-.44h-.04l.05-.8-.76.08v-.72.01zm.75-1.15l-.11.18h.12v-.18h-.01zm6.93 3.46l-.2-.32c-.26-.39-.55-.82-.98-1.06.23-.1.42-.22.62-.37l.16-.15.15-.17.12-.2.1-.22.07-.24.04-.25.02-.35-.11-.28-.09-.18c-.11-.17-.21-.31-.35-.45l-.27-.23c-.14-.09-.27-.17-.42-.24-.31-.14-.63-.24-.96-.35-.08-.03-.17-.06-.24-.12v-.08l.28-.68-.53-.23c-.26-.1-.48-.13-.74-.05-.09.03-.18.07-.27.1l-.22.33-.11.22-.07.23-.03.24.02.23.07.22.11.19.13.16.15.13c.16.11.31.2.48.29.46.21.95.36 1.41.57.1.05.24.11.31.21 0 .04-.03.07-.05.11-.09.07-.19.14-.29.2-.64.35-1.38.45-2.07.67-.17.06-.33.12-.5.19-.13.12-.26.23-.37.37v-1.75l-.69.05.09-.77h-1.47l.08-.18.14-.39.12-.4.1-.41.08-.42.06-.43.03-.44v-1.11h7.53c.01 1.01-.06 2.01-.2 3.02l-.1.63c-.12.63-.26 1.25-.42 1.87-.17.63-.37 1.25-.59 1.86-.05.15-.11.29-.17.44l.04-.01zm-1.37 2.76c.21-.32.41-.65.61-.98h-.54c-.1-.16-.19-.31-.27-.48-.07-.16-.12-.32-.17-.49-.18.35-.41.66-.68.94.21.02.42.05.62.11l.58.18c-.05.24-.1.48-.16.72h.01zM45.11 50.7c.14-.05.28-.1.42-.16.39-.16.77-.33 1.15-.51.37-.19.73-.38 1.09-.59.27-.17.53-.34.78-.51 0 .15 0 .29.04.44-.76.78-.75 1.91-1.01 2.9-.03.1-.06.2-.1.3-.06.16-.14.31-.22.47l.08.3.06.08.11.24h.13l.06.9c.02.31.07.61.16.91.17.5.47.91.77 1.34l-.07.11h-.41c-.19.02-.32.07-.48.17-.27.22-.34.47-.37.8v.69h.91c.11 0 .21.02.32.03.39-.07.78-.13 1.16-.2.23-.39.46-.76.71-1.13h.19c.55.04 1.09-.02 1.58-.29l.16-.1c.17-.13.29-.26.4-.43.11-.2.17-.37.22-.59.03-.22.03-.44.03-.66l-.05-.02v-.46l.1-.06c.35-.27.62-.62.84-1.01.13-.02.26-.04.39-.08-.12.2-.15.39-.21.61l.29.46.15.12.2.07h.14c-.32.35-.65.68-.99 1.01-.52.48-1.05.93-1.62 1.36-.29.19-.58.37-.87.55-1.16.71-2.35 1.34-3.61 1.85l-.5.19c-.7.24-1.4.44-2.13.55v-9.66.01zm-11.5.77c-.11-.14-.16-.3-.2-.47h-.02l-.11-.13c0 .19-.01.38-.01.58l.34.02zm1.34-9.94h-2.89c.11.08.18.16.26.27.07.12.13.23.18.36.04.14.07.27.09.41.2-.03.39-.04.59-.03l.21.02.21.05.2.07.2.1.18.14.16.17.13.19.1.22.07.24.04.25v.27l-.03.75-.47.02c-.22.07-.46.08-.69.12l-.14-.61s-.02-.04-.04-.06c-.08-.06-.2-.07-.29-.07.33.55.39 1.21.41 1.84v1.02c.27-.23.62-.38.93-.54v.02c.4-.39 1.04-.53 1.55-.32l.39.18-.02.11c.13-.13.32-.16.5-.15l-.21-.26-.47-.68-.4-.71-.32-.73-.13-.37-.11-.38-.09-.38-.06-.38-.04-.39v-.76zm-4.15 0h-3.31c0 .9.08 1.79.19 2.68l.68.03c.35.06.66.22.97.37.18.09.37.18.56.26l-.21-.98c-.05-.35-.01-.72.08-1.06.13-.43.35-.76.68-1.06l.17-.13c.07-.04.13-.08.19-.12v.01zm-2.97 3.61l.08.46.23-.1c-.1-.12-.21-.24-.31-.36zm.31 1.52l.05.23.16.56.09-.26-.16-.45-.15-.07.01-.01zm.33 1.24l.03.11c.17.55.36 1.08.56 1.62.21.52.42 1.02.66 1.53l.19.37c-.02-.11-.03-.22-.03-.33 0-.41.06-.82.1-1.22l.18-1.81c-.23-.07-.46-.18-.67-.29l-.65.11-.35-.09h-.02zm1.64 4.04l.09.17c.25.45.51.89.79 1.33l.56.81.58.74.6.66.61.58c.45.38.92.74 1.39 1.08.46.32.93.63 1.41.92.45.26.9.5 1.36.74.42.2.85.39 1.29.57.3.11.6.22.9.32.61.19 1.22.35 1.85.46.29.04.58.09.87.1v-3.76l-.05.08c-.2.24-.41.38-.69.51-.25.1-.48.16-.74.19h-.16c-.18-.02-.36-.05-.54-.09-.29-.07-.59-.15-.84-.32l-1.02-.75c0 .2.04.39.07.58.05.3.1.6.11.91v.81l-.64-.21h-.32l-.13-.28-.07.06-.62.36c-.11-.31-.21-.62-.33-.93-.05-.12-.12-.34-.26-.37h-.14l-.63.06v-.98c.11-.09.23-.19.35-.27-.03-.24-.06-.47-.04-.7-.95-.25-1.9-.5-2.86-.74l-.61-.15c0-.24 0-.47.05-.7.08-.28.25-.49.41-.73 0-.18 0-.31.09-.47.02-.04.05-.07.07-.11l-.54-.31-.18-.16c-.1.1-.21.16-.34.22l-.76.18v-.4h-.92l-.02-.01zm12.3 3.57c-.07-.1-.14-.18-.22-.27-.09-.08-.18-.15-.28-.22.11-.18.2-.35.29-.54l.12-.39.05-.4v-.2l-.05-.2-.07-.2-.1-.19-.13-.18-.16-.16-.18-.13-.21-.11-.22-.08-.24-.06-.57-.08c-.1.16-.22.31-.28.49-.05.18-.07.36-.09.54l.32.23c.13.12.04.37 0 .5l-.09.21-.03-.05-.12-.17-.13-.15c-.15-.14-.3-.26-.47-.39-.83-.53-1.78-.85-2.73-1.1v-.05l-.26-.07c.26-.13.45-.32.67-.51.23-.1.47-.19.68-.33.37-.26.56-.62.63-1.06.03-.23.02-.45.02-.68.08-.09.12-.17.16-.28.06-.24.05-.49-.01-.73l.63.49c.36.25.73.49 1.1.72.38.22.77.42 1.16.62.27.12.54.24.81.35v4.83z" fill="#0B5D7A"/><path fill-rule="evenodd" clip-rule="evenodd" d="M26.01 2.93c.2 0 .42.16.42.37 0 .19-.17.37-.38.37s-.4-.17-.4-.36c0-.19.15-.38.37-.38h-.01zM67.3 5.65c.2 0 .42.16.42.37 0 .19-.17.37-.38.37-.22 0-.4-.17-.4-.36 0-.19.15-.38.37-.38h-.01zm.99 5.79c.62.26 1.32.29 1.55.5.08.07.09.17.04.3-.04.11-.07.21-.15.24-.17.07-.29.02-.38 0-.29-.05-.61-.27-1.21-.2-.21.03-.35.1-.58.17-.28.09-.62.11-.77.06-.2-.07-.35-.25-.29-.55.05-.26.31-.67.84-.73.09-.01.32-.02.48.01.19.04.34.14.46.18" fill="#fff"/><path fill-rule="evenodd" clip-rule="evenodd" d="M68.05 11.57c.22.09.54.15.75.21.45.12.82.23 1 .31.03.01.1 0 .1-.04 0-.1.05-.08.06-.05 0 .03-.09.38-.12.39-.03 0-.03-.1-.08-.11h-.04c-.32-.05-.98-.3-1.62-.2-.15.03-.35.05-.51.1-.21.06-.41.11-.6.1-.19-.01-.25-.15-.21-.34.04-.17.16-.48.55-.52.32-.03.47.05.72.16v-.01z" fill="#0B5D7A"/><path d="M50.59 49.4h-1.41v.21h1.41v-.21z" fill="#0B5D7A"/></g><defs><clipPath id="clip0_2_467"><path fill="#fff" d="M0 0h424.71v84.25H0z"/></clipPath></defs></svg>