<svg width="340" height="108" viewBox="0 0 340 108" fill="none" xmlns="http://www.w3.org/2000/svg">
<g clip-path="url(#clip0_2_56)">
<path d="M154.521 16.6087H161.601V30.0419C159.781 31.3971 157.681 32.4357 155.291 33.1677C152.901 33.8898 150.491 34.2558 148.071 34.2558C144.592 34.2558 141.472 33.5238 138.702 32.0598C135.932 30.5958 133.752 28.5581 132.172 25.9565C130.592 23.3549 129.802 20.417 129.802 17.1329C129.802 13.8488 130.592 10.9109 132.172 8.30933C133.752 5.70776 135.942 3.67002 138.752 2.20602C141.562 0.742012 144.711 0.0100098 148.221 0.0100098C151.151 0.0100098 153.821 0.504606 156.211 1.47401C158.601 2.45331 160.611 3.86786 162.24 5.72754L157.271 10.2679C154.881 7.77517 151.991 6.52879 148.611 6.52879C146.471 6.52879 144.581 6.97392 142.922 7.8543C141.262 8.73468 139.972 9.98107 139.052 11.5934C138.122 13.2058 137.662 15.0457 137.662 17.1329C137.662 19.2201 138.122 21.0106 139.052 22.6229C139.972 24.2353 141.262 25.4817 142.902 26.3819C144.542 27.282 146.411 27.7272 148.521 27.7272C150.751 27.7272 152.761 27.2524 154.551 26.3126V16.6185L154.521 16.6087Z" fill="white"/>
<path d="M169.68 0.563721H177.43V27.4401H194.219V33.6819H169.69V0.563721H169.68Z" fill="white"/>
<path d="M205.708 32.0302C202.918 30.5464 200.738 28.5086 199.158 25.9071C197.578 23.3055 196.788 20.3775 196.788 17.1329C196.788 13.8884 197.578 10.9604 199.158 8.35879C200.738 5.75722 202.918 3.71948 205.708 2.23569C208.498 0.751904 211.628 0.0100098 215.107 0.0100098C218.587 0.0100098 221.707 0.751904 224.477 2.23569C227.247 3.71948 229.437 5.75722 231.026 8.35879C232.616 10.9604 233.416 13.8884 233.416 17.1329C233.416 20.3775 232.616 23.3055 231.026 25.9071C229.437 28.5086 227.247 30.5563 224.477 32.0302C221.707 33.514 218.577 34.2558 215.107 34.2558C211.638 34.2558 208.498 33.514 205.708 32.0302ZM220.457 26.372C222.047 25.4718 223.307 24.2155 224.207 22.6131C225.117 21.0007 225.567 19.1806 225.567 17.123C225.567 15.0655 225.117 13.2454 224.207 11.633C223.297 10.0206 222.047 8.77425 220.457 7.87409C218.867 6.97392 217.077 6.52879 215.097 6.52879C213.117 6.52879 211.338 6.97392 209.738 7.87409C208.148 8.77425 206.888 10.0305 205.988 11.633C205.078 13.2454 204.628 15.0754 204.628 17.123C204.628 19.1707 205.078 21.0007 205.988 22.6131C206.898 24.2254 208.148 25.4718 209.738 26.372C211.328 27.2721 213.117 27.7173 215.097 27.7173C217.077 27.7173 218.857 27.2721 220.457 26.372Z" fill="white"/>
<path d="M269.244 19.4672C270.324 20.8718 270.874 22.593 270.874 24.6506C270.874 27.5489 269.734 29.7845 267.454 31.3474C265.174 32.9103 261.855 33.6918 257.485 33.6918H240.176V0.563721H256.535C260.615 0.563721 263.745 1.33529 265.934 2.87843C268.114 4.42157 269.214 6.51866 269.214 9.16969C269.214 10.7821 268.824 12.2164 268.044 13.4727C267.264 14.7388 266.174 15.728 264.764 16.4501C266.674 17.0536 268.174 18.0526 269.264 19.4573L269.244 19.4672ZM247.865 6.3406V14.1453H255.565C257.475 14.1453 258.925 13.8189 259.915 13.1561C260.905 12.4934 261.395 11.5141 261.395 10.2182C261.395 8.92239 260.895 7.95299 259.915 7.31001C258.925 6.66704 257.475 6.3406 255.565 6.3406H247.865ZM261.515 26.9158C262.555 26.253 263.065 25.2243 263.065 23.8394C263.065 21.0994 261.005 19.7244 256.895 19.7244H247.855V27.905H256.895C258.935 27.905 260.475 27.5786 261.515 26.9158Z" fill="white"/>
<path d="M299.702 26.5894H284.163L281.193 33.6819H273.254L288.183 0.563721H295.833L310.802 33.6819H302.672L299.712 26.5894H299.702ZM297.263 20.7729L291.953 8.09147L286.643 20.7729H297.263Z" fill="white"/>
<path d="M315.201 0.563721H322.951V27.4401H339.74V33.6819H315.211V0.563721H315.201Z" fill="white"/>
<path d="M147.981 62.6159H136.002L133.722 68.0861H127.602L139.102 42.5649H145.001L156.541 68.0861H150.271L147.991 62.6159H147.981ZM146.101 58.1348L142.012 48.3616L137.922 58.1348H146.101Z" fill="#FFD272"/>
<path d="M175.66 68.0861L170.68 60.9738H165.19V68.0861H159.221V42.5649H170.39C172.67 42.5649 174.66 42.9408 176.34 43.6926C178.02 44.4444 179.319 45.5127 180.229 46.8976C181.139 48.2825 181.589 49.9245 181.589 51.8238C181.589 53.723 181.129 55.3552 180.209 56.7302C179.289 58.1051 177.98 59.1537 176.28 59.8857L182.069 68.0861H175.66ZM174.15 48.5199C173.22 47.7582 171.85 47.3724 170.06 47.3724H165.19V56.2653H170.06C171.85 56.2653 173.22 55.8795 174.15 55.098C175.08 54.3165 175.55 53.2284 175.55 51.8139C175.55 50.3993 175.08 49.2816 174.15 48.51V48.5199Z" fill="#FFD272"/>
<path d="M209.788 68.0861L209.748 52.7734L202.158 65.3856H199.468L191.909 53.0998V68.0861H186.309V42.5649H191.249L200.908 58.4217L210.418 42.5649H215.317L215.387 68.0861H209.788Z" fill="#FFD272"/>
<path d="M241.486 63.3479V68.0861H221.507V42.5649H241.006V47.3032H227.447V52.8426H239.426V57.4325H227.447V63.338H241.486V63.3479Z" fill="#FFD272"/>
<path d="M269.904 42.5649V68.0861H265.004L252.145 52.5855V68.0861H246.246V42.5649H251.185L264.014 58.0656V42.5649H269.914H269.904Z" fill="#FFD272"/>
<path d="M276.024 42.5649H281.994V68.0861H276.024V42.5649Z" fill="#FFD272"/>
<path d="M305.102 62.6159H293.123L290.843 68.0861H284.723L296.223 42.5649H302.122L313.662 68.0861H307.392L305.112 62.6159H305.102ZM303.222 58.1348L299.132 48.3616L295.043 58.1348H303.222Z" fill="#FFD272"/>
<path d="M340 42.5649V68.0861H335.1L322.241 52.5855V68.0861H316.341V42.5649H321.281L334.11 58.0656V42.5649H340.01H340Z" fill="#FFD272"/>
<path d="M133.892 106.388C131.872 105.804 130.242 105.052 129.022 104.122L131.172 99.404C132.342 100.255 133.742 100.937 135.362 101.452C136.982 101.966 138.592 102.223 140.212 102.223C142.012 102.223 143.342 101.956 144.202 101.432C145.061 100.908 145.491 100.195 145.491 99.3249C145.491 98.6819 145.241 98.1477 144.731 97.7224C144.222 97.297 143.572 96.9508 142.772 96.6936C141.972 96.4364 140.902 96.1496 139.542 95.8429C137.452 95.3483 135.742 94.8636 134.412 94.369C133.082 93.8744 131.942 93.093 130.992 92.0048C130.042 90.9167 129.562 89.4725 129.562 87.6722C129.562 86.0994 129.992 84.6749 130.852 83.3989C131.712 82.1228 133.012 81.1039 134.742 80.3621C136.472 79.6103 138.592 79.2344 141.102 79.2344C142.852 79.2344 144.561 79.4421 146.231 79.8576C147.901 80.273 149.361 80.8665 150.611 81.6381L148.651 86.3961C146.121 84.9816 143.592 84.2694 141.062 84.2694C139.292 84.2694 137.982 84.5562 137.132 85.1201C136.282 85.6839 135.862 86.4357 135.862 87.3655C135.862 88.2954 136.352 88.9878 137.332 89.433C138.312 89.888 139.802 90.3331 141.812 90.7684C143.902 91.263 145.601 91.7477 146.941 92.2423C148.271 92.7368 149.411 93.5084 150.361 94.5669C151.311 95.6253 151.791 97.0596 151.791 98.86C151.791 100.413 151.351 101.818 150.481 103.094C149.611 104.37 148.301 105.389 146.551 106.131C144.801 106.882 142.682 107.248 140.172 107.248C138.002 107.248 135.912 106.961 133.892 106.378V106.388Z" fill="white"/>
<path d="M160.021 104.043C157.841 101.897 156.751 98.8401 156.751 94.8734V79.6992H163.09V94.636C163.09 99.4831 165.13 101.916 169.19 101.916C171.17 101.916 172.69 101.333 173.73 100.156C174.77 98.9786 175.29 97.1387 175.29 94.636V79.6992H181.549V94.8734C181.549 98.85 180.459 101.907 178.28 104.043C176.1 106.19 173.06 107.258 169.14 107.258C165.22 107.258 162.18 106.19 160.001 104.043H160.021Z" fill="white"/>
<path d="M213.587 106.793L213.547 90.5408L205.488 103.934H202.628L194.609 90.887V106.793H188.659V79.6992H193.899L204.148 96.5353L214.247 79.6992H219.447L219.527 106.793H213.577H213.587Z" fill="white"/>
<path d="M251.795 106.793L251.755 90.5408L243.696 103.934H240.836L232.816 90.887V106.793H226.867V79.6992H232.106L242.356 96.5353L252.455 79.6992H257.655L257.735 106.793H251.785H251.795Z" fill="white"/>
<path d="M265.084 79.6992H271.424V106.793H265.084V79.6992Z" fill="white"/>
<path d="M284.433 84.8132H275.674V79.709H299.542V84.8132H290.773V106.803H284.433V84.8132Z" fill="white"/>
<path d="M309.342 78.7891C310.052 79.4717 310.402 80.3718 310.402 81.4797C310.402 81.9941 310.332 82.5085 310.202 83.0328C310.072 83.5471 309.802 84.3187 309.382 85.3574L307.112 90.9265H303.242L304.922 84.8133C304.272 84.5264 303.762 84.1011 303.392 83.5372C303.022 82.9734 302.842 82.281 302.842 81.4896C302.842 80.3817 303.202 79.4816 303.922 78.799C304.642 78.1165 305.542 77.7703 306.642 77.7703C307.742 77.7703 308.632 78.1165 309.342 78.799V78.7891Z" fill="white"/>
<path d="M325.392 90.9265V93.904H313.322V91.5398L319.482 85.7827C320.132 85.1694 320.582 84.6352 320.802 84.1901C321.032 83.745 321.142 83.3097 321.142 82.8745C321.142 82.2414 320.922 81.7567 320.492 81.4203C320.062 81.084 319.422 80.9159 318.592 80.9159C317.892 80.9159 317.262 81.0445 316.702 81.3115C316.142 81.5786 315.672 81.9743 315.292 82.4986L312.602 80.7873C313.222 79.8673 314.082 79.1551 315.182 78.6308C316.272 78.1164 317.532 77.8494 318.942 77.8494C320.132 77.8494 321.162 78.0373 322.052 78.4231C322.942 78.8089 323.632 79.3529 324.132 80.0454C324.622 80.7477 324.872 81.5687 324.872 82.5184C324.872 83.379 324.692 84.1802 324.322 84.932C323.962 85.6838 323.252 86.5444 322.202 87.5039L318.532 90.9364H325.402L325.392 90.9265Z" fill="white"/>
<path d="M339.691 90.9265V93.904H327.621V91.5398L333.781 85.7827C334.431 85.1694 334.881 84.6352 335.101 84.1901C335.331 83.745 335.441 83.3097 335.441 82.8745C335.441 82.2414 335.221 81.7567 334.791 81.4203C334.361 81.084 333.721 80.9159 332.891 80.9159C332.191 80.9159 331.561 81.0445 331.001 81.3115C330.441 81.5786 329.971 81.9743 329.591 82.4986L326.901 80.7873C327.521 79.8673 328.381 79.1551 329.481 78.6308C330.571 78.1164 331.831 77.8494 333.241 77.8494C334.431 77.8494 335.461 78.0373 336.351 78.4231C337.241 78.8089 337.931 79.3529 338.431 80.0454C338.921 80.7477 339.171 81.5687 339.171 82.5184C339.171 83.379 338.991 84.1802 338.621 84.932C338.261 85.6838 337.551 86.5444 336.501 87.5039L332.831 90.9364H339.701L339.691 90.9265Z" fill="white"/>
<path d="M107.914 68.1653L96.3243 56.7006C94.8544 55.2464 94.8544 52.9021 96.3243 51.4479L107.914 39.9832C108.614 39.2908 109.014 38.3411 109.014 37.3618V3.8678C109.014 1.82017 107.334 0.158329 105.264 0.158329H71.4058C70.4159 0.158329 69.4559 0.554006 68.756 1.24644L57.1666 12.7112C55.6967 14.1653 53.3269 14.1653 51.857 12.7112L40.2676 1.23655C39.5677 0.544114 38.6077 0.148438 37.6178 0.148438H3.74978C1.6799 0.148438 0 1.81028 0 3.8678V37.3618C0 38.351 0.399977 39.2908 1.09994 39.9832L12.6893 51.4479C14.1592 52.9021 14.1592 55.2464 12.6893 56.7006L1.09994 68.1653C0.399977 68.8577 0 69.8074 0 70.7866V104.281C0 106.328 1.6799 107.99 3.74978 107.99H37.6078C38.5977 107.99 39.5577 107.594 40.2576 106.902L51.847 95.4373C53.3169 93.9832 55.6867 93.9832 57.1566 95.4373L68.746 106.902C69.4459 107.594 70.4059 107.99 71.3958 107.99H105.254C107.324 107.99 109.004 106.328 109.004 104.281V70.7866C109.004 69.7975 108.604 68.8577 107.904 68.1653H107.914ZM70.7458 3.69964C71.0158 3.43256 71.3758 3.28418 71.7558 3.28418H104.414C105.204 3.28418 105.844 3.91726 105.844 4.69872V37.0156C105.844 37.3915 105.694 37.7476 105.424 38.0147L92.4346 50.8643C91.8746 51.4183 90.9746 51.4183 90.4147 50.8643C89.8547 50.3104 89.8547 49.4201 90.4147 48.8662L102.564 36.8475C102.834 36.5804 102.984 36.2243 102.984 35.8484V7.52781C102.984 6.74635 102.344 6.11327 101.554 6.11327H72.9357C72.5557 6.11327 72.1958 6.26164 71.9258 6.52873L34.598 43.4652C34.038 44.0191 33.1381 44.0191 32.5781 43.4652C32.0181 42.9112 32.0181 42.0209 32.5781 41.467L70.7458 3.69964ZM82.9451 41.467L91.9946 32.5148C92.2646 32.2477 92.4146 31.8916 92.4146 31.5157V17.9935C92.4146 17.212 91.7746 16.5789 90.9846 16.5789H77.3155C76.9355 16.5789 76.5755 16.7273 76.3055 16.9944L42.0675 50.8544C41.5076 51.4084 40.6076 51.4084 40.0476 50.8544C39.4877 50.3005 39.4877 49.4102 40.0476 48.8563L75.1256 14.1554C75.3956 13.8883 75.7555 13.7399 76.1355 13.7399H93.8545C94.6444 13.7399 95.2844 14.373 95.2844 15.1545V32.683C95.2844 33.0589 95.1344 33.415 94.8644 33.682L84.975 43.4652C84.415 44.0191 83.5151 44.0191 82.9551 43.4652C82.3952 42.9112 82.3952 42.0209 82.9551 41.467H82.9451ZM82.3452 37.6289C80.8752 39.083 78.5054 39.083 77.0355 37.6289L71.1358 31.7927C69.6659 30.3386 69.6659 27.9942 71.1358 26.5401L76.9355 20.8028C77.6354 20.1103 78.5954 19.7147 79.5853 19.7147H85.485C87.5549 19.7147 89.2348 21.3765 89.2348 23.4241V29.2604C89.2348 30.2496 88.8348 31.1893 88.1348 31.8817L82.3352 37.619L82.3452 37.6289ZM76.3055 91.1739C76.5755 91.441 76.9355 91.5894 77.3155 91.5894H90.9846C91.7746 91.5894 92.4146 90.9563 92.4146 90.1748V76.6526C92.4146 76.2767 92.2646 75.9206 91.9946 75.6535L57.7566 41.7638C57.1966 41.2098 57.1966 40.3195 57.7566 39.7656C58.3166 39.2116 59.2165 39.2116 59.7765 39.7656L94.8544 74.4664C95.1244 74.7335 95.2744 75.0896 95.2744 75.4655V92.994C95.2744 93.7755 94.6344 94.4086 93.8445 94.4086H76.1255C75.7455 94.4086 75.3856 94.2602 75.1156 93.9931L65.2262 84.21C64.6662 83.656 64.6662 82.7658 65.2262 82.2118C65.7861 81.6579 66.6861 81.6579 67.246 82.2118L76.2955 91.164L76.3055 91.1739ZM71.1358 76.3756L77.0355 70.5394C78.5054 69.0852 80.8752 69.0852 82.3452 70.5394L88.1448 76.2767C88.8448 76.9691 89.2448 77.9187 89.2448 78.898V84.7343C89.2448 86.7819 87.5648 88.4437 85.495 88.4437H79.5953C78.6054 88.4437 77.6454 88.048 76.9455 87.3556L71.1458 81.6183C69.6759 80.1642 69.6759 77.8198 71.1458 76.3657L71.1358 76.3756ZM26.0685 66.6914L17.019 75.6436C16.749 75.9107 16.599 76.2668 16.599 76.6427V90.1649C16.599 90.9464 17.239 91.5795 18.0289 91.5795H31.6981C32.0781 91.5795 32.4381 91.4311 32.7081 91.164L66.9461 57.2941C67.506 56.7401 68.406 56.7401 68.966 57.2941C69.5259 57.848 69.5259 58.7383 68.966 59.2922L33.888 93.9931C33.618 94.2602 33.258 94.4086 32.8781 94.4086H15.1691C14.3792 94.4086 13.7392 93.7755 13.7392 92.994V75.4655C13.7392 75.0896 13.8892 74.7335 14.1592 74.4664L24.0486 64.6833C24.6086 64.1294 25.5085 64.1294 26.0685 64.6833C26.6284 65.2373 26.6284 66.1276 26.0685 66.6815V66.6914ZM26.6684 70.5295C28.1383 69.0753 30.5082 69.0753 31.9781 70.5295L37.8778 76.3657C39.3477 77.8198 39.3477 80.1642 37.8778 81.6183L32.0781 87.3556C31.3782 88.048 30.4182 88.4437 29.4283 88.4437H23.5286C21.4587 88.4437 19.7788 86.7819 19.7788 84.7343V78.898C19.7788 77.9088 20.1788 76.9691 20.8788 76.2767L26.6784 70.5394L26.6684 70.5295ZM32.7081 16.9845C32.4381 16.7174 32.0781 16.569 31.6981 16.569H18.0289C17.239 16.569 16.599 17.2021 16.599 17.9836V31.5058C16.599 31.8817 16.749 32.2378 17.019 32.5049L51.257 66.3749C51.817 66.9288 51.817 67.8191 51.257 68.373C50.697 68.927 49.7971 68.927 49.2371 68.373L14.1592 33.682C13.8892 33.415 13.7392 33.0589 13.7392 32.683V15.1545C13.7392 14.373 14.3792 13.7399 15.1691 13.7399H32.8881C33.268 13.7399 33.628 13.8883 33.898 14.1554L43.7874 23.9385C44.3474 24.4925 44.3474 25.3827 43.7874 25.9367C43.2275 26.4906 42.3275 26.4906 41.7675 25.9367L32.7181 16.9845H32.7081ZM37.8778 31.7828L31.9781 37.619C30.5082 39.0731 28.1383 39.0731 26.6684 37.619L20.8688 31.8817C20.1688 31.1893 19.7688 30.2397 19.7688 29.2604V23.4241C19.7688 21.3765 21.4487 19.7147 23.5186 19.7147H29.4183C30.4082 19.7147 31.3682 20.1103 32.0681 20.8028L37.8678 26.5401C39.3377 27.9942 39.3377 30.3386 37.8678 31.7927L37.8778 31.7828ZM45.9473 51.4479L51.857 45.6018C53.3269 44.1477 55.6967 44.1477 57.1666 45.6018L63.0663 51.438C64.5262 52.8922 64.5262 55.2365 63.0663 56.6907L57.1666 62.5368C55.6967 63.9909 53.3269 63.9909 51.857 62.5368L45.9573 56.7006C44.4974 55.2464 44.4974 52.9021 45.9573 51.4479H45.9473ZM34.8979 11.7616C34.628 11.4945 34.268 11.3461 33.888 11.3461H12.7393C11.9493 11.3461 11.3093 11.9792 11.3093 12.7606V33.682C11.3093 34.0579 11.4593 34.4141 11.7293 34.6811L47.5172 70.0843C48.0772 70.6383 48.0772 71.5285 47.5172 72.0825C46.9572 72.6364 46.0573 72.6364 45.4973 72.0825L8.86948 35.8484C8.59949 35.5813 8.4495 35.2252 8.4495 34.8493V9.93155C8.4495 9.15009 9.08947 8.517 9.87942 8.517H35.0679C35.4479 8.517 35.8079 8.66538 36.0779 8.93246L47.5172 20.2488C48.0772 20.8028 48.0772 21.693 47.5172 22.247C46.9572 22.8009 46.0573 22.8009 45.4973 22.247L34.8979 11.7616ZM22.3287 62.9918L11.7293 73.4772C11.4593 73.7443 11.3093 74.1004 11.3093 74.4763V95.3978C11.3093 96.1792 11.9493 96.8123 12.7393 96.8123H33.888C34.268 96.8123 34.628 96.6639 34.8979 96.3968L70.6858 60.9936C71.2458 60.4397 72.1458 60.4397 72.7057 60.9936C73.2657 61.5476 73.2657 62.4379 72.7057 62.9918L36.0779 99.2259C35.8079 99.493 35.4479 99.6414 35.0679 99.6414H9.87942C9.08947 99.6414 8.4495 99.0083 8.4495 98.2268V73.3091C8.4495 72.9332 8.59949 72.5771 8.86948 72.31L20.3088 60.9936C20.8688 60.4397 21.7687 60.4397 22.3287 60.9936C22.8887 61.5476 22.8887 62.4379 22.3287 62.9918ZM74.1156 96.3968C74.3856 96.6639 74.7456 96.8123 75.1256 96.8123H96.2743C97.0643 96.8123 97.7043 96.1792 97.7043 95.3978V74.4763C97.7043 74.1004 97.5543 73.7443 97.2843 73.4772L61.4964 38.0741C60.9364 37.5201 60.9364 36.6298 61.4964 36.0759C62.0564 35.5219 62.9563 35.5219 63.5163 36.0759L100.144 72.31C100.414 72.5771 100.564 72.9332 100.564 73.3091V98.2268C100.564 99.0083 99.9241 99.6414 99.1342 99.6414H73.9456C73.5657 99.6414 73.2057 99.493 72.9357 99.2259L61.4964 87.9096C60.9364 87.3556 60.9364 86.4653 61.4964 85.9114C62.0564 85.3575 62.9563 85.3575 63.5163 85.9114L74.1156 96.3968ZM86.6849 45.1666L97.2843 34.6811C97.5543 34.4141 97.7043 34.0579 97.7043 33.682V12.7606C97.7043 11.9792 97.0643 11.3461 96.2743 11.3461H75.1256C74.7456 11.3461 74.3856 11.4945 74.1156 11.7616L38.3277 47.1647C37.7678 47.7187 36.8678 47.7187 36.3079 47.1647C35.7479 46.6108 35.7479 45.7205 36.3079 45.1666L72.9357 8.93246C73.2057 8.66538 73.5657 8.517 73.9456 8.517H99.1342C99.9241 8.517 100.564 9.15009 100.564 9.93155V34.8493C100.564 35.2252 100.414 35.5813 100.144 35.8484L88.7048 47.1647C88.1448 47.7187 87.2449 47.7187 86.6849 47.1647C86.1249 46.6108 86.1249 45.7205 86.6849 45.1666ZM3.58979 38.0147C3.3198 37.7476 3.16981 37.3915 3.16981 37.0156V4.69872C3.16981 3.91726 3.80978 3.28418 4.59973 3.28418H37.2578C37.6378 3.28418 37.9978 3.43256 38.2677 3.69964L51.257 16.5492C51.817 17.1032 51.817 17.9935 51.257 18.5474C50.697 19.1014 49.7971 19.1014 49.2371 18.5474L37.0878 6.52873C36.8178 6.26164 36.4579 6.11327 36.0779 6.11327H7.45956C6.66961 6.11327 6.02965 6.74635 6.02965 7.52781V35.8385C6.02965 36.2144 6.17964 36.5705 6.44962 36.8376L43.7874 73.774C44.3474 74.328 44.3474 75.2182 43.7874 75.7722C43.2275 76.3261 42.3275 76.3261 41.7675 75.7722L3.58979 38.0147ZM38.2677 104.449C37.9978 104.716 37.6378 104.864 37.2578 104.864H4.59973C3.80978 104.864 3.16981 104.231 3.16981 103.45V71.1428C3.16981 70.7669 3.3198 70.4108 3.58979 70.1437L16.579 57.2941C17.139 56.7401 18.0389 56.7401 18.5989 57.2941C19.1589 57.848 19.1589 58.7383 18.5989 59.2922L6.44962 71.3109C6.17964 71.578 6.02965 71.9341 6.02965 72.31V100.621C6.02965 101.402 6.66961 102.035 7.45956 102.035H36.0779C36.4579 102.035 36.8178 101.887 37.0878 101.62L74.4256 64.6833C74.9856 64.1294 75.8855 64.1294 76.4455 64.6833C77.0055 65.2373 77.0055 66.1276 76.4455 66.6815L38.2777 104.449H38.2677ZM105.844 103.45C105.844 104.231 105.204 104.864 104.414 104.864H71.7558C71.3758 104.864 71.0158 104.716 70.7458 104.449L57.7566 91.5993C57.1966 91.0453 57.1966 90.155 57.7566 89.6011C58.3166 89.0471 59.2165 89.0471 59.7765 89.6011L71.9258 101.62C72.1958 101.887 72.5557 102.035 72.9357 102.035H101.554C102.344 102.035 102.984 101.402 102.984 100.621V72.31C102.984 71.9341 102.834 71.578 102.564 71.3109L65.2262 34.3745C64.6662 33.8205 64.6662 32.9303 65.2262 32.3763C65.7861 31.8224 66.6861 31.8224 67.246 32.3763L105.424 70.1437C105.694 70.4108 105.844 70.7669 105.844 71.1428V103.45Z" fill="white"/>
</g>
<defs>
<clipPath id="clip0_2_56">
<rect width="340" height="108" fill="white"/>
</clipPath>
</defs>
</svg>
